<svg width="32" height="32" viewBox="0 0 32 32" fill="none" xmlns="http://www.w3.org/2000/svg">
<path d="M15.325 21H16.825V16.85H21V15.35H16.825V11H15.325V15.35H11V16.85H15.325V21ZM16.0066 26C14.6278 26 13.3319 25.7375 12.1191 25.2125C10.9064 24.6875 9.84583 23.9708 8.9375 23.0625C8.02917 22.1542 7.3125 21.093 6.7875 19.879C6.2625 18.665 6 17.3678 6 15.9875C6 14.6072 6.2625 13.31 6.7875 12.096C7.3125 10.882 8.02917 9.825 8.9375 8.925C9.84583 8.025 10.907 7.3125 12.121 6.7875C13.335 6.2625 14.6322 6 16.0125 6C17.3928 6 18.69 6.2625 19.904 6.7875C21.118 7.3125 22.175 8.025 23.075 8.925C23.975 9.825 24.6875 10.8833 25.2125 12.1C25.7375 13.3167 26 14.6145 26 15.9934C26 17.3723 25.7375 18.6681 25.2125 19.8809C24.6875 21.0936 23.975 22.1526 23.075 23.0579C22.175 23.9632 21.1167 24.6798 19.9 25.2079C18.6833 25.736 17.3855 26 16.0066 26ZM16.0125 24.5C18.3708 24.5 20.375 23.6708 22.025 22.0125C23.675 20.3542 24.5 18.3458 24.5 15.9875C24.5 13.6292 23.6766 11.625 22.0297 9.975C20.3828 8.325 18.3729 7.5 16 7.5C13.65 7.5 11.6458 8.32343 9.9875 9.9703C8.32917 11.6172 7.5 13.6271 7.5 16C7.5 18.35 8.32917 20.3542 9.9875 22.0125C11.6458 23.6708 13.6542 24.5 16.0125 24.5Z" fill="white" fill-opacity="0.75"/>
</svg>
