<svg width="32" height="32" viewBox="0 0 32 32" fill="none" xmlns="http://www.w3.org/2000/svg">
<path d="M7.29922 24V22.5H10.3742L10.0242 22.15C9.02422 21.15 8.30339 20.1375 7.86172 19.1125C7.42005 18.0875 7.19922 17.0833 7.19922 16.1C7.19922 14.2833 7.72005 12.6583 8.76172 11.225C9.80339 9.79167 11.1742 8.8 12.8742 8.25V9.8C11.6076 10.3 10.5951 11.125 9.83672 12.275C9.07839 13.425 8.69922 14.7 8.69922 16.1C8.69922 16.9667 8.84505 17.7875 9.13672 18.5625C9.42839 19.3375 9.92422 20.0417 10.6242 20.675L11.3742 21.35V18.425H12.8742V24H7.29922ZM24.7742 15.65H23.2742C23.2409 14.8 23.0742 14.0125 22.7742 13.2875C22.4742 12.5625 22.0076 11.9083 21.3742 11.325L20.6242 10.65V13.575H19.1242V8H24.6992V9.5H21.5992L21.9742 9.85C22.9409 10.7667 23.6409 11.725 24.0742 12.725C24.5075 13.725 24.7409 14.7 24.7742 15.65ZM21.3992 27L21.2742 25.8C20.9409 25.7 20.5992 25.5542 20.2492 25.3625C19.8992 25.1708 19.6159 24.9583 19.3992 24.725L18.3492 25.225L17.4742 23.875L18.4242 23.125C18.3409 22.7417 18.2992 22.3958 18.2992 22.0875C18.2992 21.7792 18.3409 21.4333 18.4242 21.05L17.4742 20.3L18.3492 18.925L19.3992 19.425C19.6159 19.225 19.8992 19.025 20.2492 18.825C20.5992 18.625 20.9409 18.475 21.2742 18.375L21.3992 17.15H22.8992L23.0492 18.375C23.3825 18.475 23.7242 18.625 24.0742 18.825C24.4242 19.025 24.7076 19.225 24.9242 19.425L25.9742 18.925L26.8492 20.3L25.8992 21.05C25.9825 21.4333 26.0242 21.7792 26.0242 22.0875C26.0242 22.3958 25.9825 22.7417 25.8992 23.125L26.8492 23.875L25.9742 25.225L24.9242 24.725C24.7076 24.9583 24.4242 25.1708 24.0742 25.3625C23.7242 25.5542 23.3825 25.7 23.0492 25.8L22.8992 27H21.3992ZM22.1492 24.625C22.8826 24.625 23.4909 24.3833 23.9742 23.9C24.4576 23.4167 24.6992 22.8083 24.6992 22.075C24.6992 21.3417 24.4576 20.7333 23.9742 20.25C23.4909 19.7667 22.8826 19.525 22.1492 19.525C21.4159 19.525 20.8076 19.7667 20.3242 20.25C19.8409 20.7333 19.5992 21.3417 19.5992 22.075C19.5992 22.8083 19.8409 23.4167 20.3242 23.9C20.8076 24.3833 21.4159 24.625 22.1492 24.625Z" fill="white" fill-opacity="0.75"/>
</svg>
