<svg width="938" height="676" viewBox="0 0 938 676" fill="none" xmlns="http://www.w3.org/2000/svg">
<circle cx="128.16" cy="337.404" r="30.1541" fill="#CBAA00" fill-opacity="0.15" stroke="#F5C304" stroke-width="0.5"/>
<g clip-path="url(#clip0_2600_83629)">
<path d="M128.159 336.09C129.901 336.09 131.572 336.783 132.804 338.014C134.036 339.246 134.728 340.917 134.728 342.659V350.542H121.59V342.659C121.59 340.917 122.282 339.246 123.514 338.014C124.746 336.783 126.417 336.09 128.159 336.09ZM119.341 340.04C119.132 340.745 119.009 341.473 118.973 342.207L118.963 342.659V350.542H115.021V344.63C115.021 343.497 115.439 342.404 116.196 341.56C116.952 340.716 117.993 340.181 119.119 340.058L119.342 340.04H119.341ZM136.977 340.04C138.146 340.111 139.244 340.625 140.047 341.478C140.849 342.331 141.296 343.459 141.297 344.63V350.542H137.355V342.659C137.355 341.749 137.224 340.87 136.977 340.04ZM119.62 332.149C120.491 332.149 121.326 332.495 121.942 333.111C122.558 333.727 122.904 334.562 122.904 335.434C122.904 336.305 122.558 337.14 121.942 337.756C121.326 338.372 120.491 338.718 119.62 338.718C118.749 338.718 117.913 338.372 117.297 337.756C116.681 337.14 116.335 336.305 116.335 335.434C116.335 334.562 116.681 333.727 117.297 333.111C117.913 332.495 118.749 332.149 119.62 332.149V332.149ZM136.699 332.149C137.57 332.149 138.405 332.495 139.021 333.111C139.637 333.727 139.983 334.562 139.983 335.434C139.983 336.305 139.637 337.14 139.021 337.756C138.405 338.372 137.57 338.718 136.699 338.718C135.827 338.718 134.992 338.372 134.376 337.756C133.76 337.14 133.414 336.305 133.414 335.434C133.414 334.562 133.76 333.727 134.376 333.111C134.992 332.495 135.827 332.149 136.699 332.149V332.149ZM128.159 324.267C129.553 324.267 130.889 324.82 131.875 325.806C132.86 326.791 133.414 328.128 133.414 329.522C133.414 330.915 132.86 332.252 131.875 333.238C130.889 334.223 129.553 334.777 128.159 334.777C126.765 334.777 125.429 334.223 124.443 333.238C123.458 332.252 122.904 330.915 122.904 329.522C122.904 328.128 123.458 326.791 124.443 325.806C125.429 324.82 126.765 324.267 128.159 324.267V324.267Z" fill="#F5C304"/>
</g>
<path d="M97.1187 386.564V378.104H102.459V378.932H98.0787V381.86H102.207V382.688H98.0787V385.736H102.459V386.564H97.1187ZM103.983 386.564V380.732H104.931V381.728C105.123 381.36 105.395 381.084 105.747 380.9C106.099 380.716 106.495 380.624 106.935 380.624C108.319 380.624 109.011 381.392 109.011 382.928V386.564H108.039V382.988C108.039 382.444 107.931 382.048 107.715 381.8C107.507 381.544 107.171 381.416 106.707 381.416C106.171 381.416 105.743 381.584 105.423 381.92C105.111 382.248 104.955 382.688 104.955 383.24V386.564H103.983ZM113.383 388.832C112.879 388.832 112.403 388.764 111.955 388.628C111.515 388.5 111.123 388.304 110.779 388.04L111.103 387.332C111.463 387.588 111.819 387.772 112.171 387.884C112.531 387.996 112.919 388.052 113.335 388.052C114.487 388.052 115.063 387.46 115.063 386.276V385.244C114.895 385.612 114.631 385.904 114.271 386.12C113.919 386.328 113.515 386.432 113.059 386.432C112.523 386.432 112.059 386.308 111.667 386.06C111.275 385.812 110.971 385.472 110.755 385.04C110.547 384.6 110.443 384.092 110.443 383.516C110.443 382.94 110.547 382.436 110.755 382.004C110.971 381.564 111.275 381.224 111.667 380.984C112.059 380.744 112.523 380.624 113.059 380.624C113.515 380.624 113.919 380.728 114.271 380.936C114.631 381.144 114.895 381.428 115.063 381.788V380.732H116.011V386.144C116.011 387.04 115.787 387.712 115.339 388.16C114.899 388.608 114.247 388.832 113.383 388.832ZM113.239 385.64C113.799 385.64 114.243 385.448 114.571 385.064C114.899 384.68 115.063 384.164 115.063 383.516C115.063 382.868 114.899 382.356 114.571 381.98C114.243 381.596 113.799 381.404 113.239 381.404C112.687 381.404 112.247 381.596 111.919 381.98C111.591 382.356 111.427 382.868 111.427 383.516C111.427 384.164 111.591 384.68 111.919 385.064C112.247 385.448 112.687 385.64 113.239 385.64ZM117.714 379.28V378.188H118.914V379.28H117.714ZM117.834 386.564V380.732H118.806V386.564H117.834ZM120.623 386.564V380.732H121.571V381.728C121.763 381.36 122.035 381.084 122.387 380.9C122.739 380.716 123.135 380.624 123.575 380.624C124.959 380.624 125.651 381.392 125.651 382.928V386.564H124.679V382.988C124.679 382.444 124.571 382.048 124.355 381.8C124.147 381.544 123.811 381.416 123.347 381.416C122.811 381.416 122.383 381.584 122.063 381.92C121.751 382.248 121.595 382.688 121.595 383.24V386.564H120.623ZM130.072 386.672C129.152 386.672 128.424 386.404 127.888 385.868C127.352 385.324 127.084 384.588 127.084 383.66C127.084 383.06 127.204 382.532 127.444 382.076C127.684 381.612 128.012 381.256 128.428 381.008C128.852 380.752 129.34 380.624 129.892 380.624C130.684 380.624 131.304 380.88 131.752 381.392C132.2 381.896 132.424 382.592 132.424 383.48V383.852H128.032C128.064 384.516 128.256 385.024 128.608 385.376C128.96 385.72 129.448 385.892 130.072 385.892C130.424 385.892 130.76 385.84 131.08 385.736C131.4 385.624 131.704 385.444 131.992 385.196L132.328 385.88C132.064 386.128 131.728 386.324 131.32 386.468C130.912 386.604 130.496 386.672 130.072 386.672ZM129.916 381.344C129.364 381.344 128.928 381.516 128.608 381.86C128.288 382.204 128.1 382.656 128.044 383.216H131.584C131.56 382.624 131.404 382.164 131.116 381.836C130.836 381.508 130.436 381.344 129.916 381.344ZM136.458 386.672C135.538 386.672 134.81 386.404 134.274 385.868C133.738 385.324 133.47 384.588 133.47 383.66C133.47 383.06 133.59 382.532 133.83 382.076C134.07 381.612 134.398 381.256 134.814 381.008C135.238 380.752 135.726 380.624 136.278 380.624C137.07 380.624 137.69 380.88 138.138 381.392C138.586 381.896 138.81 382.592 138.81 383.48V383.852H134.418C134.45 384.516 134.642 385.024 134.994 385.376C135.346 385.72 135.834 385.892 136.458 385.892C136.81 385.892 137.146 385.84 137.466 385.736C137.786 385.624 138.09 385.444 138.378 385.196L138.714 385.88C138.45 386.128 138.114 386.324 137.706 386.468C137.298 386.604 136.882 386.672 136.458 386.672ZM136.302 381.344C135.75 381.344 135.314 381.516 134.994 381.86C134.674 382.204 134.486 382.656 134.43 383.216H137.97C137.946 382.624 137.79 382.164 137.502 381.836C137.222 381.508 136.822 381.344 136.302 381.344ZM140.217 386.564V380.732H141.165V381.776C141.477 381.072 142.117 380.684 143.085 380.612L143.433 380.576L143.505 381.416L142.893 381.488C142.341 381.536 141.921 381.712 141.633 382.016C141.345 382.312 141.201 382.72 141.201 383.24V386.564H140.217ZM144.398 379.28V378.188H145.598V379.28H144.398ZM144.518 386.564V380.732H145.49V386.564H144.518ZM147.307 386.564V380.732H148.255V381.728C148.447 381.36 148.719 381.084 149.071 380.9C149.423 380.716 149.819 380.624 150.259 380.624C151.643 380.624 152.335 381.392 152.335 382.928V386.564H151.363V382.988C151.363 382.444 151.255 382.048 151.039 381.8C150.831 381.544 150.495 381.416 150.031 381.416C149.495 381.416 149.067 381.584 148.747 381.92C148.435 382.248 148.279 382.688 148.279 383.24V386.564H147.307ZM156.707 388.832C156.203 388.832 155.727 388.764 155.279 388.628C154.839 388.5 154.447 388.304 154.103 388.04L154.427 387.332C154.787 387.588 155.143 387.772 155.495 387.884C155.855 387.996 156.243 388.052 156.659 388.052C157.811 388.052 158.387 387.46 158.387 386.276V385.244C158.219 385.612 157.955 385.904 157.595 386.12C157.243 386.328 156.839 386.432 156.383 386.432C155.847 386.432 155.383 386.308 154.991 386.06C154.599 385.812 154.295 385.472 154.079 385.04C153.871 384.6 153.767 384.092 153.767 383.516C153.767 382.94 153.871 382.436 154.079 382.004C154.295 381.564 154.599 381.224 154.991 380.984C155.383 380.744 155.847 380.624 156.383 380.624C156.839 380.624 157.243 380.728 157.595 380.936C157.955 381.144 158.219 381.428 158.387 381.788V380.732H159.335V386.144C159.335 387.04 159.111 387.712 158.663 388.16C158.223 388.608 157.571 388.832 156.707 388.832ZM156.563 385.64C157.123 385.64 157.567 385.448 157.895 385.064C158.223 384.68 158.387 384.164 158.387 383.516C158.387 382.868 158.223 382.356 157.895 381.98C157.567 381.596 157.123 381.404 156.563 381.404C156.011 381.404 155.571 381.596 155.243 381.98C154.915 382.356 154.751 382.868 154.751 383.516C154.751 384.164 154.915 384.68 155.243 385.064C155.571 385.448 156.011 385.64 156.563 385.64ZM96.6324 402.564V394.104H99.4884C100.856 394.104 101.912 394.468 102.656 395.196C103.4 395.916 103.772 396.96 103.772 398.328C103.772 399.696 103.4 400.744 102.656 401.472C101.912 402.2 100.856 402.564 99.4884 402.564H96.6324ZM97.6164 401.724H99.4164C101.624 401.724 102.728 400.592 102.728 398.328C102.728 396.072 101.624 394.944 99.4164 394.944H97.6164V401.724ZM108.035 402.672C107.115 402.672 106.387 402.404 105.851 401.868C105.315 401.324 105.047 400.588 105.047 399.66C105.047 399.06 105.167 398.532 105.407 398.076C105.647 397.612 105.975 397.256 106.391 397.008C106.815 396.752 107.303 396.624 107.855 396.624C108.647 396.624 109.267 396.88 109.715 397.392C110.163 397.896 110.387 398.592 110.387 399.48V399.852H105.995C106.027 400.516 106.219 401.024 106.571 401.376C106.923 401.72 107.411 401.892 108.035 401.892C108.387 401.892 108.723 401.84 109.043 401.736C109.363 401.624 109.667 401.444 109.955 401.196L110.291 401.88C110.027 402.128 109.691 402.324 109.283 402.468C108.875 402.604 108.459 402.672 108.035 402.672ZM107.879 397.344C107.327 397.344 106.891 397.516 106.571 397.86C106.251 398.204 106.063 398.656 106.007 399.216H109.547C109.523 398.624 109.367 398.164 109.079 397.836C108.799 397.508 108.399 397.344 107.879 397.344ZM111.793 404.724V396.732H112.741V397.776C112.917 397.416 113.177 397.136 113.521 396.936C113.873 396.728 114.281 396.624 114.745 396.624C115.265 396.624 115.717 396.748 116.101 396.996C116.493 397.236 116.793 397.584 117.001 398.04C117.217 398.488 117.325 399.024 117.325 399.648C117.325 400.264 117.217 400.8 117.001 401.256C116.793 401.704 116.493 402.052 116.101 402.3C115.717 402.548 115.265 402.672 114.745 402.672C114.297 402.672 113.897 402.572 113.545 402.372C113.193 402.172 112.933 401.896 112.765 401.544V404.724H111.793ZM114.541 401.892C115.085 401.892 115.521 401.7 115.849 401.316C116.177 400.924 116.341 400.368 116.341 399.648C116.341 398.92 116.177 398.364 115.849 397.98C115.521 397.596 115.085 397.404 114.541 397.404C113.997 397.404 113.561 397.596 113.233 397.98C112.905 398.364 112.741 398.92 112.741 399.648C112.741 400.368 112.905 400.924 113.233 401.316C113.561 401.7 113.997 401.892 114.541 401.892ZM120.625 402.672C120.225 402.672 119.865 402.596 119.545 402.444C119.233 402.284 118.985 402.068 118.801 401.796C118.617 401.524 118.525 401.22 118.525 400.884C118.525 400.46 118.633 400.124 118.849 399.876C119.073 399.628 119.437 399.452 119.941 399.348C120.453 399.236 121.149 399.18 122.029 399.18H122.413V398.808C122.413 398.312 122.309 397.956 122.101 397.74C121.901 397.516 121.577 397.404 121.129 397.404C120.777 397.404 120.437 397.456 120.109 397.56C119.781 397.656 119.445 397.816 119.101 398.04L118.765 397.332C119.069 397.116 119.437 396.944 119.869 396.816C120.309 396.688 120.729 396.624 121.129 396.624C121.881 396.624 122.437 396.808 122.797 397.176C123.165 397.544 123.349 398.116 123.349 398.892V402.564H122.437V401.556C122.285 401.9 122.049 402.172 121.729 402.372C121.417 402.572 121.049 402.672 120.625 402.672ZM120.781 401.94C121.261 401.94 121.653 401.776 121.957 401.448C122.261 401.112 122.413 400.688 122.413 400.176V399.816H122.041C121.393 399.816 120.881 399.848 120.505 399.912C120.137 399.968 119.877 400.072 119.725 400.224C119.581 400.368 119.509 400.568 119.509 400.824C119.509 401.152 119.621 401.42 119.845 401.628C120.077 401.836 120.389 401.94 120.781 401.94ZM125.153 402.564V396.732H126.101V397.776C126.413 397.072 127.053 396.684 128.021 396.612L128.369 396.576L128.441 397.416L127.829 397.488C127.277 397.536 126.857 397.712 126.569 398.016C126.281 398.312 126.137 398.72 126.137 399.24V402.564H125.153ZM132.11 402.672C131.422 402.672 130.906 402.492 130.562 402.132C130.218 401.764 130.046 401.236 130.046 400.548V397.488H128.906V396.732H130.046V394.944H131.018V396.732H132.866V397.488H131.018V400.452C131.018 400.908 131.114 401.256 131.306 401.496C131.498 401.728 131.81 401.844 132.242 401.844C132.37 401.844 132.498 401.828 132.626 401.796C132.754 401.764 132.87 401.732 132.974 401.7L133.142 402.444C133.038 402.5 132.886 402.552 132.686 402.6C132.486 402.648 132.294 402.672 132.11 402.672ZM133.989 402.564V396.732H134.937V397.716C135.113 397.364 135.357 397.096 135.669 396.912C135.981 396.72 136.345 396.624 136.761 396.624C137.673 396.624 138.257 397.02 138.513 397.812C138.689 397.444 138.949 397.156 139.293 396.948C139.637 396.732 140.033 396.624 140.481 396.624C141.777 396.624 142.425 397.392 142.425 398.928V402.564H141.453V398.976C141.453 398.44 141.357 398.048 141.165 397.8C140.981 397.544 140.673 397.416 140.241 397.416C139.769 397.416 139.393 397.584 139.113 397.92C138.833 398.256 138.693 398.704 138.693 399.264V402.564H137.721V398.976C137.721 398.44 137.625 398.048 137.433 397.8C137.249 397.544 136.941 397.416 136.509 397.416C136.029 397.416 135.649 397.584 135.369 397.92C135.097 398.256 134.961 398.704 134.961 399.264V402.564H133.989ZM146.871 402.672C145.951 402.672 145.223 402.404 144.687 401.868C144.151 401.324 143.883 400.588 143.883 399.66C143.883 399.06 144.003 398.532 144.243 398.076C144.483 397.612 144.811 397.256 145.227 397.008C145.651 396.752 146.139 396.624 146.691 396.624C147.483 396.624 148.103 396.88 148.551 397.392C148.999 397.896 149.223 398.592 149.223 399.48V399.852H144.831C144.863 400.516 145.055 401.024 145.407 401.376C145.759 401.72 146.247 401.892 146.871 401.892C147.223 401.892 147.559 401.84 147.879 401.736C148.199 401.624 148.503 401.444 148.791 401.196L149.127 401.88C148.863 402.128 148.527 402.324 148.119 402.468C147.711 402.604 147.295 402.672 146.871 402.672ZM146.715 397.344C146.163 397.344 145.727 397.516 145.407 397.86C145.087 398.204 144.899 398.656 144.843 399.216H148.383C148.359 398.624 148.203 398.164 147.915 397.836C147.635 397.508 147.235 397.344 146.715 397.344ZM150.629 402.564V396.732H151.577V397.728C151.769 397.36 152.041 397.084 152.393 396.9C152.745 396.716 153.141 396.624 153.581 396.624C154.965 396.624 155.657 397.392 155.657 398.928V402.564H154.685V398.988C154.685 398.444 154.577 398.048 154.361 397.8C154.153 397.544 153.817 397.416 153.353 397.416C152.817 397.416 152.389 397.584 152.069 397.92C151.757 398.248 151.601 398.688 151.601 399.24V402.564H150.629ZM159.79 402.672C159.102 402.672 158.586 402.492 158.242 402.132C157.898 401.764 157.726 401.236 157.726 400.548V397.488H156.586V396.732H157.726V394.944H158.698V396.732H160.546V397.488H158.698V400.452C158.698 400.908 158.794 401.256 158.986 401.496C159.178 401.728 159.49 401.844 159.922 401.844C160.05 401.844 160.178 401.828 160.306 401.796C160.434 401.764 160.55 401.732 160.654 401.7L160.822 402.444C160.718 402.5 160.566 402.552 160.366 402.6C160.166 402.648 159.974 402.672 159.79 402.672Z" fill="#F5C304"/>
<path d="M315.043 236L306.389 236.327L310.998 243.658L315.043 236ZM173.399 325.944L309.727 240.228L308.929 238.958L172.601 324.674L173.399 325.944Z" fill="#CBAA00" fill-opacity="0.5"/>
<g filter="url(#filter0_d_2600_83629)">
<circle cx="354.552" cy="214.357" r="31.5302" fill="#FF3D00"/>
<circle cx="354.552" cy="214.357" r="30.5302" stroke="#FF6433" stroke-width="2"/>
</g>
<path d="M338.787 202.096V226.62C338.787 228.546 340.346 230.123 342.29 230.123H366.814C368.741 230.123 370.317 228.546 370.317 226.62V202.096C370.317 200.169 368.741 198.593 366.814 198.593H342.29C340.346 198.593 338.787 200.169 338.787 202.096ZM359.807 209.103C359.807 212.011 357.46 214.358 354.552 214.358C351.644 214.358 349.297 212.011 349.297 209.103C349.297 206.195 351.644 203.848 354.552 203.848C357.46 203.848 359.807 206.195 359.807 209.103ZM344.042 223.116C344.042 219.613 351.049 217.686 354.552 217.686C358.056 217.686 365.062 219.613 365.062 223.116V224.868H344.042V223.116Z" fill="#0F1226"/>
<path d="M342.427 264.645L338.731 256.185H339.787L342.895 263.397L345.991 256.185H347.023L343.315 264.645H342.427ZM347.808 257.361V256.269H349.008V257.361H347.808ZM347.928 264.645V258.813H348.9V264.645H347.928ZM352.685 264.753C352.229 264.753 351.797 264.689 351.389 264.561C350.981 264.433 350.645 264.253 350.381 264.021L350.693 263.337C350.981 263.569 351.297 263.741 351.641 263.853C351.993 263.957 352.349 264.009 352.709 264.009C353.165 264.009 353.509 263.925 353.741 263.757C353.973 263.589 354.089 263.361 354.089 263.073C354.089 262.849 354.013 262.673 353.861 262.545C353.709 262.409 353.469 262.305 353.141 262.233L352.049 261.993C351.057 261.777 350.561 261.265 350.561 260.457C350.561 259.929 350.769 259.505 351.185 259.185C351.609 258.865 352.161 258.705 352.841 258.705C353.241 258.705 353.621 258.769 353.981 258.897C354.349 259.017 354.653 259.197 354.893 259.437L354.569 260.121C354.337 259.905 354.065 259.741 353.753 259.629C353.449 259.509 353.145 259.449 352.841 259.449C352.393 259.449 352.053 259.537 351.821 259.713C351.589 259.889 351.473 260.121 351.473 260.409C351.473 260.857 351.769 261.145 352.361 261.273L353.453 261.501C353.965 261.613 354.353 261.793 354.617 262.041C354.881 262.281 355.013 262.609 355.013 263.025C355.013 263.561 354.801 263.985 354.377 264.297C353.953 264.601 353.389 264.753 352.685 264.753ZM356.495 264.645V256.185H357.467V259.773C357.659 259.421 357.927 259.157 358.271 258.981C358.623 258.797 359.015 258.705 359.447 258.705C360.831 258.705 361.523 259.473 361.523 261.009V264.645H360.551V261.069C360.551 260.525 360.443 260.129 360.227 259.881C360.019 259.625 359.683 259.497 359.219 259.497C358.683 259.497 358.255 259.665 357.935 260.001C357.623 260.329 357.467 260.769 357.467 261.321V264.645H356.495ZM365.151 264.753C364.751 264.753 364.391 264.677 364.071 264.525C363.759 264.365 363.511 264.149 363.327 263.877C363.143 263.605 363.051 263.301 363.051 262.965C363.051 262.541 363.159 262.205 363.375 261.957C363.599 261.709 363.963 261.533 364.467 261.429C364.979 261.317 365.675 261.261 366.555 261.261H366.939V260.889C366.939 260.393 366.835 260.037 366.627 259.821C366.427 259.597 366.103 259.485 365.655 259.485C365.303 259.485 364.963 259.537 364.635 259.641C364.307 259.737 363.971 259.897 363.627 260.121L363.291 259.413C363.595 259.197 363.963 259.025 364.395 258.897C364.835 258.769 365.255 258.705 365.655 258.705C366.407 258.705 366.963 258.889 367.323 259.257C367.691 259.625 367.875 260.197 367.875 260.973V264.645H366.963V263.637C366.811 263.981 366.575 264.253 366.255 264.453C365.943 264.653 365.575 264.753 365.151 264.753ZM365.307 264.021C365.787 264.021 366.179 263.857 366.483 263.529C366.787 263.193 366.939 262.769 366.939 262.257V261.897H366.567C365.919 261.897 365.407 261.929 365.031 261.993C364.663 262.049 364.403 262.153 364.251 262.305C364.107 262.449 364.035 262.649 364.035 262.905C364.035 263.233 364.147 263.501 364.371 263.709C364.603 263.917 364.915 264.021 365.307 264.021ZM371.466 264.753C370.874 264.753 370.426 264.581 370.122 264.237C369.826 263.885 369.678 263.377 369.678 262.713V256.185H370.65V262.641C370.65 263.497 370.99 263.925 371.67 263.925C371.87 263.925 372.05 263.901 372.21 263.853L372.186 264.669C371.938 264.725 371.698 264.753 371.466 264.753ZM333.195 280.645V272.185H334.179V276.025H334.203L338.307 272.185H339.567L335.151 276.301L339.831 280.645H338.535L334.203 276.661H334.179V280.645H333.195ZM340.563 280.645V272.185H341.535V275.773C341.727 275.421 341.995 275.157 342.339 274.981C342.691 274.797 343.083 274.705 343.515 274.705C344.899 274.705 345.591 275.473 345.591 277.009V280.645H344.619V277.069C344.619 276.525 344.511 276.129 344.295 275.881C344.087 275.625 343.751 275.497 343.287 275.497C342.751 275.497 342.323 275.665 342.003 276.001C341.691 276.329 341.535 276.769 341.535 277.321V280.645H340.563ZM349.219 280.753C348.819 280.753 348.459 280.677 348.139 280.525C347.827 280.365 347.579 280.149 347.395 279.877C347.211 279.605 347.119 279.301 347.119 278.965C347.119 278.541 347.227 278.205 347.443 277.957C347.667 277.709 348.031 277.533 348.535 277.429C349.047 277.317 349.743 277.261 350.623 277.261H351.007V276.889C351.007 276.393 350.903 276.037 350.695 275.821C350.495 275.597 350.171 275.485 349.723 275.485C349.371 275.485 349.031 275.537 348.703 275.641C348.375 275.737 348.039 275.897 347.695 276.121L347.359 275.413C347.663 275.197 348.031 275.025 348.463 274.897C348.903 274.769 349.323 274.705 349.723 274.705C350.475 274.705 351.031 274.889 351.391 275.257C351.759 275.625 351.943 276.197 351.943 276.973V280.645H351.031V279.637C350.879 279.981 350.643 280.253 350.323 280.453C350.011 280.653 349.643 280.753 349.219 280.753ZM349.375 280.021C349.855 280.021 350.247 279.857 350.551 279.529C350.855 279.193 351.007 278.769 351.007 278.257V277.897H350.635C349.987 277.897 349.475 277.929 349.099 277.993C348.731 278.049 348.471 278.153 348.319 278.305C348.175 278.449 348.103 278.649 348.103 278.905C348.103 279.233 348.215 279.501 348.439 279.709C348.671 279.917 348.983 280.021 349.375 280.021ZM353.747 280.645V274.813H354.695V275.857C355.007 275.153 355.647 274.765 356.615 274.693L356.963 274.657L357.035 275.497L356.423 275.569C355.871 275.617 355.451 275.793 355.163 276.097C354.875 276.393 354.731 276.801 354.731 277.321V280.645H353.747ZM360.449 280.753C359.865 280.753 359.361 280.629 358.937 280.381C358.513 280.125 358.185 279.769 357.953 279.313C357.729 278.849 357.617 278.309 357.617 277.693C357.617 276.765 357.869 276.037 358.373 275.509C358.877 274.973 359.569 274.705 360.449 274.705C360.809 274.705 361.165 274.769 361.517 274.897C361.869 275.025 362.161 275.205 362.393 275.437L362.057 276.145C361.825 275.921 361.569 275.757 361.289 275.653C361.017 275.549 360.757 275.497 360.509 275.497C359.901 275.497 359.433 275.689 359.105 276.073C358.777 276.449 358.613 276.993 358.613 277.705C358.613 278.401 358.777 278.953 359.105 279.361C359.433 279.761 359.901 279.961 360.509 279.961C360.757 279.961 361.017 279.909 361.289 279.805C361.569 279.701 361.825 279.533 362.057 279.301L362.393 280.009C362.161 280.241 361.865 280.425 361.505 280.561C361.153 280.689 360.801 280.753 360.449 280.753ZM363.532 280.645V272.185H364.504V275.773C364.696 275.421 364.964 275.157 365.308 274.981C365.66 274.797 366.052 274.705 366.484 274.705C367.868 274.705 368.56 275.473 368.56 277.009V280.645H367.588V277.069C367.588 276.525 367.48 276.129 367.264 275.881C367.056 275.625 366.72 275.497 366.256 275.497C365.72 275.497 365.292 275.665 364.972 276.001C364.66 276.329 364.504 276.769 364.504 277.321V280.645H363.532ZM372.98 280.753C372.06 280.753 371.332 280.485 370.796 279.949C370.26 279.405 369.992 278.669 369.992 277.741C369.992 277.141 370.112 276.613 370.352 276.157C370.592 275.693 370.92 275.337 371.336 275.089C371.76 274.833 372.248 274.705 372.8 274.705C373.592 274.705 374.212 274.961 374.66 275.473C375.108 275.977 375.332 276.673 375.332 277.561V277.933H370.94C370.972 278.597 371.164 279.105 371.516 279.457C371.868 279.801 372.356 279.973 372.98 279.973C373.332 279.973 373.668 279.921 373.988 279.817C374.308 279.705 374.612 279.525 374.9 279.277L375.236 279.961C374.972 280.209 374.636 280.405 374.228 280.549C373.82 280.685 373.404 280.753 372.98 280.753ZM372.824 275.425C372.272 275.425 371.836 275.597 371.516 275.941C371.196 276.285 371.008 276.737 370.952 277.297H374.492C374.468 276.705 374.312 276.245 374.024 275.917C373.744 275.589 373.344 275.425 372.824 275.425Z" fill="#FF3D00"/>
<circle cx="692.377" cy="251.518" r="17.7673" fill="#1391FF" fill-opacity="0.15" stroke="#3C92FF" stroke-width="0.5"/>
<path d="M698.231 242.51H691.024L685.637 247.915L685.619 258.725C685.619 259.716 686.43 260.527 687.421 260.527H698.231C699.222 260.527 700.033 259.716 700.033 258.725V244.311C700.033 243.321 699.222 242.51 698.231 242.51ZM692.826 247.915H691.024V244.311H692.826V247.915ZM695.529 247.915H693.727V244.311H695.529V247.915ZM698.231 247.915H696.43V244.311H698.231V247.915Z" fill="#3C92FF"/>
<circle cx="799.402" cy="287.397" r="30.1541" fill="#FF5C00" fill-opacity="0.15" stroke="#FF3D00" stroke-width="0.5"/>
<path d="M786.322 279.29H783.637V286.046H783.65L783.637 298.208C783.637 299.695 784.845 300.911 786.322 300.911H810.489V298.208H786.322V279.29ZM813.175 276.587H802.434L799.748 273.885H791.693C790.216 273.885 789.021 275.101 789.021 276.587L789.007 292.803C789.007 294.289 790.216 295.505 791.693 295.505H813.175C814.652 295.505 815.86 294.289 815.86 292.803V279.29C815.86 277.804 814.652 276.587 813.175 276.587Z" fill="#FF3D00"/>
<circle cx="731.109" cy="402.397" r="30.1541" fill="#FF5C00" fill-opacity="0.15" stroke="#FF3D00" stroke-width="0.5"/>
<path d="M743.046 398.344V414.55C743.047 414.727 743.014 414.903 742.947 415.068C742.88 415.232 742.781 415.382 742.657 415.508C742.532 415.635 742.384 415.735 742.221 415.804C742.057 415.873 741.882 415.909 741.704 415.911H720.064C719.709 415.911 719.368 415.769 719.116 415.518C718.865 415.267 718.723 414.926 718.723 414.57V390.225C718.723 389.5 719.327 388.885 720.071 388.885H733.587V396.993C733.587 397.351 733.729 397.695 733.983 397.948C734.236 398.201 734.58 398.344 734.938 398.344H743.046ZM743.046 395.641H736.289V388.889L743.046 395.641Z" fill="#FF3D00"/>
<circle cx="526.386" cy="113.017" r="17.7673" fill="#FF5C00" fill-opacity="0.15" stroke="#FF3D00" stroke-width="0.5"/>
<path d="M532.241 104.009H525.034L519.647 109.414L519.629 120.224C519.629 121.215 520.44 122.026 521.431 122.026H532.241C533.232 122.026 534.043 121.215 534.043 120.224V105.811C534.043 104.82 533.232 104.009 532.241 104.009ZM526.836 109.414H525.034V105.811H526.836V109.414ZM529.538 109.414H527.737V105.811H529.538V109.414ZM532.241 109.414H530.439V105.811H532.241V109.414Z" fill="#FF3D00"/>
<path d="M503.333 151.101C502.221 151.101 501.377 150.809 500.801 150.225C500.225 149.633 499.937 148.773 499.937 147.645V142.533H500.921V147.597C500.921 149.349 501.725 150.225 503.333 150.225C504.925 150.225 505.721 149.349 505.721 147.597V142.533H506.705V147.645C506.705 148.773 506.417 149.633 505.841 150.225C505.273 150.809 504.437 151.101 503.333 151.101ZM511.464 151.101C510.8 151.101 510.2 151.017 509.664 150.849C509.128 150.673 508.664 150.421 508.272 150.093L508.62 149.301C509.028 149.613 509.456 149.845 509.904 149.997C510.352 150.149 510.872 150.225 511.464 150.225C512.184 150.225 512.716 150.093 513.06 149.829C513.412 149.557 513.588 149.201 513.588 148.761C513.588 148.409 513.46 148.129 513.204 147.921C512.956 147.713 512.536 147.549 511.944 147.429L510.696 147.177C509.944 147.017 509.38 146.757 509.004 146.397C508.636 146.029 508.452 145.541 508.452 144.933C508.452 144.429 508.58 143.989 508.836 143.613C509.1 143.237 509.464 142.945 509.928 142.737C510.392 142.529 510.928 142.425 511.536 142.425C512.104 142.425 512.632 142.517 513.12 142.701C513.608 142.877 514.02 143.133 514.356 143.469L514.008 144.237C513.648 143.909 513.268 143.673 512.868 143.529C512.468 143.377 512.02 143.301 511.524 143.301C510.892 143.301 510.388 143.449 510.012 143.745C509.636 144.033 509.448 144.417 509.448 144.897C509.448 145.281 509.564 145.585 509.796 145.809C510.036 146.033 510.424 146.197 510.96 146.301L512.208 146.565C513.016 146.733 513.612 146.989 513.996 147.333C514.388 147.669 514.584 148.129 514.584 148.713C514.584 149.185 514.456 149.601 514.2 149.961C513.952 150.321 513.592 150.601 513.12 150.801C512.656 151.001 512.104 151.101 511.464 151.101ZM516.11 150.993V142.533H519.494C520.366 142.533 521.038 142.729 521.51 143.121C521.99 143.505 522.23 144.045 522.23 144.741C522.23 145.205 522.11 145.601 521.87 145.929C521.63 146.257 521.298 146.497 520.874 146.649C521.362 146.777 521.742 147.013 522.014 147.357C522.294 147.701 522.434 148.137 522.434 148.665C522.434 149.417 522.19 149.993 521.702 150.393C521.214 150.793 520.526 150.993 519.638 150.993H516.11ZM517.07 146.313H519.35C520.622 146.313 521.258 145.817 521.258 144.825C521.258 143.825 520.622 143.325 519.35 143.325H517.07V146.313ZM517.07 150.201H519.542C520.822 150.201 521.462 149.685 521.462 148.653C521.462 147.621 520.822 147.105 519.542 147.105H517.07V150.201ZM527.302 150.993V142.533H528.286V150.993H527.302ZM530.24 150.993V145.161H531.188V146.157C531.38 145.789 531.652 145.513 532.004 145.329C532.356 145.145 532.752 145.053 533.192 145.053C534.576 145.053 535.268 145.821 535.268 147.357V150.993H534.296V147.417C534.296 146.873 534.188 146.477 533.972 146.229C533.764 145.973 533.428 145.845 532.964 145.845C532.428 145.845 532 146.013 531.68 146.349C531.368 146.677 531.212 147.117 531.212 147.669V150.993H530.24ZM539.028 151.101C538.572 151.101 538.14 151.037 537.732 150.909C537.324 150.781 536.988 150.601 536.724 150.369L537.036 149.685C537.324 149.917 537.64 150.089 537.984 150.201C538.336 150.305 538.692 150.357 539.052 150.357C539.508 150.357 539.852 150.273 540.084 150.105C540.316 149.937 540.432 149.709 540.432 149.421C540.432 149.197 540.356 149.021 540.204 148.893C540.052 148.757 539.812 148.653 539.484 148.581L538.392 148.341C537.4 148.125 536.904 147.613 536.904 146.805C536.904 146.277 537.112 145.853 537.528 145.533C537.952 145.213 538.504 145.053 539.184 145.053C539.584 145.053 539.964 145.117 540.324 145.245C540.692 145.365 540.996 145.545 541.236 145.785L540.912 146.469C540.68 146.253 540.408 146.089 540.096 145.977C539.792 145.857 539.488 145.797 539.184 145.797C538.736 145.797 538.396 145.885 538.164 146.061C537.932 146.237 537.816 146.469 537.816 146.757C537.816 147.205 538.112 147.493 538.704 147.621L539.796 147.849C540.308 147.961 540.696 148.141 540.96 148.389C541.224 148.629 541.356 148.957 541.356 149.373C541.356 149.909 541.144 150.333 540.72 150.645C540.296 150.949 539.732 151.101 539.028 151.101ZM545.466 151.101C544.546 151.101 543.818 150.833 543.282 150.297C542.746 149.753 542.478 149.017 542.478 148.089C542.478 147.489 542.598 146.961 542.838 146.505C543.078 146.041 543.406 145.685 543.822 145.437C544.246 145.181 544.734 145.053 545.286 145.053C546.078 145.053 546.698 145.309 547.146 145.821C547.594 146.325 547.818 147.021 547.818 147.909V148.281H543.426C543.458 148.945 543.65 149.453 544.002 149.805C544.354 150.149 544.842 150.321 545.466 150.321C545.818 150.321 546.154 150.269 546.474 150.165C546.794 150.053 547.098 149.873 547.386 149.625L547.722 150.309C547.458 150.557 547.122 150.753 546.714 150.897C546.306 151.033 545.89 151.101 545.466 151.101ZM545.31 145.773C544.758 145.773 544.322 145.945 544.002 146.289C543.682 146.633 543.494 147.085 543.438 147.645H546.978C546.954 147.053 546.798 146.593 546.51 146.265C546.23 145.937 545.83 145.773 545.31 145.773ZM549.225 150.993V145.161H550.173V146.205C550.485 145.501 551.125 145.113 552.093 145.041L552.441 145.005L552.513 145.845L551.901 145.917C551.349 145.965 550.929 146.141 550.641 146.445C550.353 146.741 550.209 147.149 550.209 147.669V150.993H549.225ZM556.182 151.101C555.494 151.101 554.978 150.921 554.634 150.561C554.29 150.193 554.118 149.665 554.118 148.977V145.917H552.978V145.161H554.118V143.373H555.09V145.161H556.938V145.917H555.09V148.881C555.09 149.337 555.186 149.685 555.378 149.925C555.57 150.157 555.882 150.273 556.314 150.273C556.442 150.273 556.57 150.257 556.698 150.225C556.826 150.193 556.942 150.161 557.046 150.129L557.214 150.873C557.11 150.929 556.958 150.981 556.758 151.029C556.558 151.077 556.366 151.101 556.182 151.101ZM509.391 167.101C508.927 167.101 508.519 166.997 508.167 166.789C507.823 166.581 507.563 166.297 507.387 165.937V166.993H506.439V158.533H507.411V162.169C507.579 161.825 507.839 161.553 508.191 161.353C508.543 161.153 508.943 161.053 509.391 161.053C509.911 161.053 510.363 161.177 510.747 161.425C511.139 161.665 511.439 162.013 511.647 162.469C511.863 162.917 511.971 163.453 511.971 164.077C511.971 164.693 511.863 165.229 511.647 165.685C511.439 166.133 511.139 166.481 510.747 166.729C510.363 166.977 509.911 167.101 509.391 167.101ZM509.187 166.321C509.731 166.321 510.167 166.129 510.495 165.745C510.823 165.353 510.987 164.797 510.987 164.077C510.987 163.349 510.823 162.793 510.495 162.409C510.167 162.025 509.731 161.833 509.187 161.833C508.643 161.833 508.207 162.025 507.879 162.409C507.551 162.793 507.387 163.349 507.387 164.077C507.387 164.797 507.551 165.353 507.879 165.745C508.207 166.129 508.643 166.321 509.187 166.321ZM515.223 167.101C514.631 167.101 514.183 166.929 513.879 166.585C513.583 166.233 513.435 165.725 513.435 165.061V158.533H514.407V164.989C514.407 165.845 514.747 166.273 515.427 166.273C515.627 166.273 515.807 166.249 515.967 166.201L515.943 167.017C515.695 167.073 515.455 167.101 515.223 167.101ZM519.352 167.101C518.784 167.101 518.292 166.977 517.876 166.729C517.46 166.481 517.136 166.133 516.904 165.685C516.68 165.229 516.568 164.693 516.568 164.077C516.568 163.461 516.68 162.929 516.904 162.481C517.136 162.025 517.46 161.673 517.876 161.425C518.292 161.177 518.784 161.053 519.352 161.053C519.912 161.053 520.4 161.177 520.816 161.425C521.24 161.673 521.564 162.025 521.788 162.481C522.02 162.929 522.136 163.461 522.136 164.077C522.136 164.693 522.02 165.229 521.788 165.685C521.564 166.133 521.24 166.481 520.816 166.729C520.4 166.977 519.912 167.101 519.352 167.101ZM519.352 166.321C519.896 166.321 520.332 166.129 520.66 165.745C520.988 165.353 521.152 164.797 521.152 164.077C521.152 163.349 520.988 162.793 520.66 162.409C520.332 162.025 519.896 161.833 519.352 161.833C518.8 161.833 518.36 162.025 518.032 162.409C517.712 162.793 517.552 163.349 517.552 164.077C517.552 164.797 517.712 165.353 518.032 165.745C518.36 166.129 518.8 166.321 519.352 166.321ZM526.068 167.101C525.484 167.101 524.98 166.977 524.556 166.729C524.132 166.473 523.804 166.117 523.572 165.661C523.348 165.197 523.236 164.657 523.236 164.041C523.236 163.113 523.488 162.385 523.992 161.857C524.496 161.321 525.188 161.053 526.068 161.053C526.428 161.053 526.784 161.117 527.136 161.245C527.488 161.373 527.78 161.553 528.012 161.785L527.676 162.493C527.444 162.269 527.188 162.105 526.908 162.001C526.636 161.897 526.376 161.845 526.128 161.845C525.52 161.845 525.052 162.037 524.724 162.421C524.396 162.797 524.232 163.341 524.232 164.053C524.232 164.749 524.396 165.301 524.724 165.709C525.052 166.109 525.52 166.309 526.128 166.309C526.376 166.309 526.636 166.257 526.908 166.153C527.188 166.049 527.444 165.881 527.676 165.649L528.012 166.357C527.78 166.589 527.484 166.773 527.124 166.909C526.772 167.037 526.42 167.101 526.068 167.101ZM529.15 166.993V158.533H530.122V163.753H530.146L532.846 161.161H534.082L531.154 163.969L534.334 166.993H533.098L530.146 164.257H530.122V166.993H529.15ZM537.626 167.101C536.706 167.101 535.978 166.833 535.442 166.297C534.906 165.753 534.638 165.017 534.638 164.089C534.638 163.489 534.758 162.961 534.998 162.505C535.238 162.041 535.566 161.685 535.982 161.437C536.406 161.181 536.894 161.053 537.446 161.053C538.238 161.053 538.858 161.309 539.306 161.821C539.754 162.325 539.978 163.021 539.978 163.909V164.281H535.586C535.618 164.945 535.81 165.453 536.162 165.805C536.514 166.149 537.002 166.321 537.626 166.321C537.978 166.321 538.314 166.269 538.634 166.165C538.954 166.053 539.258 165.873 539.546 165.625L539.882 166.309C539.618 166.557 539.282 166.753 538.874 166.897C538.466 167.033 538.05 167.101 537.626 167.101ZM537.47 161.773C536.918 161.773 536.482 161.945 536.162 162.289C535.842 162.633 535.654 163.085 535.598 163.645H539.138C539.114 163.053 538.958 162.593 538.67 162.265C538.39 161.937 537.99 161.773 537.47 161.773ZM543.605 167.101C543.085 167.101 542.629 166.977 542.237 166.729C541.853 166.481 541.553 166.133 541.337 165.685C541.129 165.229 541.025 164.693 541.025 164.077C541.025 163.453 541.129 162.917 541.337 162.469C541.553 162.013 541.853 161.665 542.237 161.425C542.629 161.177 543.085 161.053 543.605 161.053C544.061 161.053 544.461 161.153 544.805 161.353C545.157 161.553 545.417 161.829 545.585 162.181V158.533H546.557V166.993H545.609V165.925C545.441 166.293 545.181 166.581 544.829 166.789C544.477 166.997 544.069 167.101 543.605 167.101ZM543.809 166.321C544.353 166.321 544.789 166.129 545.117 165.745C545.445 165.353 545.609 164.797 545.609 164.077C545.609 163.349 545.445 162.793 545.117 162.409C544.789 162.025 544.353 161.833 543.809 161.833C543.257 161.833 542.817 162.025 542.489 162.409C542.169 162.793 542.009 163.349 542.009 164.077C542.009 164.797 542.169 165.353 542.489 165.745C542.817 166.129 543.257 166.321 543.809 166.321Z" fill="#FF3D00"/>
<path d="M668.313 288.292V279.832H671.661C672.573 279.832 673.269 280.052 673.749 280.492C674.237 280.932 674.481 281.56 674.481 282.376C674.481 283.184 674.237 283.812 673.749 284.26C673.269 284.7 672.573 284.92 671.661 284.92H669.297V288.292H668.313ZM669.297 284.092H671.541C672.853 284.092 673.509 283.52 673.509 282.376C673.509 281.224 672.853 280.648 671.541 280.648H669.297V284.092ZM679.473 288.4C678.641 288.4 677.929 288.224 677.337 287.872C676.745 287.52 676.289 287.02 675.969 286.372C675.657 285.724 675.501 284.952 675.501 284.056C675.501 283.168 675.657 282.4 675.969 281.752C676.289 281.104 676.745 280.604 677.337 280.252C677.929 279.9 678.641 279.724 679.473 279.724C680.057 279.724 680.593 279.816 681.081 280C681.577 280.184 681.997 280.452 682.341 280.804L681.957 281.608C681.589 281.264 681.205 281.016 680.805 280.864C680.413 280.704 679.977 280.624 679.497 280.624C678.545 280.624 677.817 280.924 677.313 281.524C676.809 282.124 676.557 282.968 676.557 284.056C676.557 285.152 676.809 286 677.313 286.6C677.817 287.2 678.545 287.5 679.497 287.5C679.977 287.5 680.413 287.424 680.805 287.272C681.205 287.112 681.589 286.86 681.957 286.516L682.341 287.32C681.997 287.664 681.577 287.932 681.081 288.124C680.593 288.308 680.057 288.4 679.473 288.4ZM683.355 285.496V284.692H686.715V285.496H683.355ZM692.101 288.292V286.48H688.201V285.736L692.269 279.832H693.097V285.64H694.357V286.48H693.097V288.292H692.101ZM692.101 285.64V281.452L689.221 285.64H692.101ZM696.116 288.292L700.052 280.684H695.576V279.832H701.168V280.576L697.208 288.292H696.116ZM703.312 288.292L707.248 280.684H702.772V279.832H708.364V280.576L704.404 288.292H703.312ZM712.667 288.4C712.107 288.4 711.575 288.316 711.071 288.148C710.567 287.972 710.143 287.72 709.799 287.392L710.159 286.612C710.551 286.932 710.947 287.164 711.347 287.308C711.747 287.452 712.179 287.524 712.643 287.524C713.251 287.524 713.715 287.392 714.035 287.128C714.363 286.856 714.527 286.46 714.527 285.94C714.527 285.444 714.363 285.068 714.035 284.812C713.707 284.556 713.231 284.428 712.607 284.428H711.359V283.576H712.523C713.067 283.576 713.495 283.436 713.807 283.156C714.127 282.868 714.287 282.476 714.287 281.98C714.287 281.54 714.139 281.2 713.843 280.96C713.555 280.72 713.143 280.6 712.607 280.6C711.727 280.6 710.959 280.92 710.303 281.56L709.943 280.792C710.255 280.456 710.651 280.196 711.131 280.012C711.619 279.82 712.131 279.724 712.667 279.724C713.483 279.724 714.119 279.916 714.575 280.3C715.039 280.684 715.271 281.216 715.271 281.896C715.271 282.368 715.151 282.784 714.911 283.144C714.671 283.496 714.339 283.752 713.915 283.912C714.419 284.048 714.811 284.3 715.091 284.668C715.371 285.028 715.511 285.476 715.511 286.012C715.511 286.74 715.255 287.32 714.743 287.752C714.239 288.184 713.547 288.4 712.667 288.4Z" fill="#3C92FF"/>
<path d="M779.39 336.558V328.098H782.738C783.65 328.098 784.346 328.318 784.826 328.758C785.314 329.198 785.558 329.826 785.558 330.642C785.558 331.45 785.314 332.078 784.826 332.526C784.346 332.966 783.65 333.186 782.738 333.186H780.374V336.558H779.39ZM780.374 332.358H782.618C783.93 332.358 784.586 331.786 784.586 330.642C784.586 329.49 783.93 328.914 782.618 328.914H780.374V332.358ZM788.395 336.666C787.995 336.666 787.635 336.59 787.315 336.438C787.003 336.278 786.755 336.062 786.571 335.79C786.387 335.518 786.295 335.214 786.295 334.878C786.295 334.454 786.403 334.118 786.619 333.87C786.843 333.622 787.207 333.446 787.711 333.342C788.223 333.23 788.919 333.174 789.799 333.174H790.183V332.802C790.183 332.306 790.079 331.95 789.871 331.734C789.671 331.51 789.347 331.398 788.899 331.398C788.547 331.398 788.207 331.45 787.879 331.554C787.551 331.65 787.215 331.81 786.871 332.034L786.535 331.326C786.839 331.11 787.207 330.938 787.639 330.81C788.079 330.682 788.499 330.618 788.899 330.618C789.651 330.618 790.207 330.802 790.567 331.17C790.935 331.538 791.119 332.11 791.119 332.886V336.558H790.207V335.55C790.055 335.894 789.819 336.166 789.499 336.366C789.187 336.566 788.819 336.666 788.395 336.666ZM788.551 335.934C789.031 335.934 789.423 335.77 789.727 335.442C790.031 335.106 790.183 334.682 790.183 334.17V333.81H789.811C789.163 333.81 788.651 333.842 788.275 333.906C787.907 333.962 787.647 334.066 787.495 334.218C787.351 334.362 787.279 334.562 787.279 334.818C787.279 335.146 787.391 335.414 787.615 335.622C787.847 335.83 788.159 335.934 788.551 335.934ZM795.262 336.666C794.574 336.666 794.058 336.486 793.714 336.126C793.37 335.758 793.198 335.23 793.198 334.542V331.482H792.058V330.726H793.198V328.938H794.17V330.726H796.018V331.482H794.17V334.446C794.17 334.902 794.266 335.25 794.458 335.49C794.65 335.722 794.962 335.838 795.394 335.838C795.522 335.838 795.65 335.822 795.778 335.79C795.906 335.758 796.022 335.726 796.126 335.694L796.294 336.438C796.19 336.494 796.038 336.546 795.838 336.594C795.638 336.642 795.446 336.666 795.262 336.666ZM799.687 336.666C798.767 336.666 798.039 336.398 797.503 335.862C796.967 335.318 796.699 334.582 796.699 333.654C796.699 333.054 796.819 332.526 797.059 332.07C797.299 331.606 797.627 331.25 798.043 331.002C798.467 330.746 798.955 330.618 799.507 330.618C800.299 330.618 800.919 330.874 801.367 331.386C801.815 331.89 802.039 332.586 802.039 333.474V333.846H797.647C797.679 334.51 797.871 335.018 798.223 335.37C798.575 335.714 799.063 335.886 799.687 335.886C800.039 335.886 800.375 335.834 800.695 335.73C801.015 335.618 801.319 335.438 801.607 335.19L801.943 335.874C801.679 336.122 801.343 336.318 800.935 336.462C800.527 336.598 800.111 336.666 799.687 336.666ZM799.531 331.338C798.979 331.338 798.543 331.51 798.223 331.854C797.903 332.198 797.715 332.65 797.659 333.21H801.199C801.175 332.618 801.019 332.158 800.731 331.83C800.451 331.502 800.051 331.338 799.531 331.338ZM803.446 336.558V330.726H804.394V331.722C804.586 331.354 804.858 331.078 805.21 330.894C805.562 330.71 805.958 330.618 806.398 330.618C807.782 330.618 808.474 331.386 808.474 332.922V336.558H807.502V332.982C807.502 332.438 807.394 332.042 807.178 331.794C806.97 331.538 806.634 331.41 806.17 331.41C805.634 331.41 805.206 331.578 804.886 331.914C804.574 332.242 804.418 332.682 804.418 333.234V336.558H803.446ZM812.606 336.666C811.918 336.666 811.402 336.486 811.058 336.126C810.714 335.758 810.542 335.23 810.542 334.542V331.482H809.402V330.726H810.542V328.938H811.514V330.726H813.362V331.482H811.514V334.446C811.514 334.902 811.61 335.25 811.802 335.49C811.994 335.722 812.306 335.838 812.738 335.838C812.866 335.838 812.994 335.822 813.122 335.79C813.25 335.758 813.366 335.726 813.47 335.694L813.638 336.438C813.534 336.494 813.382 336.546 813.182 336.594C812.982 336.642 812.79 336.666 812.606 336.666ZM816.429 336.666C815.973 336.666 815.541 336.602 815.133 336.474C814.725 336.346 814.389 336.166 814.125 335.934L814.437 335.25C814.725 335.482 815.041 335.654 815.385 335.766C815.737 335.87 816.093 335.922 816.453 335.922C816.909 335.922 817.253 335.838 817.485 335.67C817.717 335.502 817.833 335.274 817.833 334.986C817.833 334.762 817.757 334.586 817.605 334.458C817.453 334.322 817.213 334.218 816.885 334.146L815.793 333.906C814.801 333.69 814.305 333.178 814.305 332.37C814.305 331.842 814.513 331.418 814.929 331.098C815.353 330.778 815.905 330.618 816.585 330.618C816.985 330.618 817.365 330.682 817.725 330.81C818.093 330.93 818.397 331.11 818.637 331.35L818.313 332.034C818.081 331.818 817.809 331.654 817.497 331.542C817.193 331.422 816.889 331.362 816.585 331.362C816.137 331.362 815.797 331.45 815.565 331.626C815.333 331.802 815.217 332.034 815.217 332.322C815.217 332.77 815.513 333.058 816.105 333.186L817.197 333.414C817.709 333.526 818.097 333.706 818.361 333.954C818.625 334.194 818.757 334.522 818.757 334.938C818.757 335.474 818.545 335.898 818.121 336.21C817.697 336.514 817.133 336.666 816.429 336.666Z" fill="#FF3D00"/>
<path d="M676.128 453.718V445.726H677.076V446.77C677.252 446.41 677.512 446.13 677.856 445.93C678.208 445.722 678.616 445.618 679.08 445.618C679.6 445.618 680.052 445.742 680.436 445.99C680.828 446.23 681.128 446.578 681.336 447.034C681.552 447.482 681.66 448.018 681.66 448.642C681.66 449.258 681.552 449.794 681.336 450.25C681.128 450.698 680.828 451.046 680.436 451.294C680.052 451.542 679.6 451.666 679.08 451.666C678.632 451.666 678.232 451.566 677.88 451.366C677.528 451.166 677.268 450.89 677.1 450.538V453.718H676.128ZM678.876 450.886C679.42 450.886 679.856 450.694 680.184 450.31C680.512 449.918 680.676 449.362 680.676 448.642C680.676 447.914 680.512 447.358 680.184 446.974C679.856 446.59 679.42 446.398 678.876 446.398C678.332 446.398 677.896 446.59 677.568 446.974C677.24 447.358 677.076 447.914 677.076 448.642C677.076 449.362 677.24 449.918 677.568 450.31C677.896 450.694 678.332 450.886 678.876 450.886ZM684.96 451.666C684.56 451.666 684.2 451.59 683.88 451.438C683.568 451.278 683.32 451.062 683.136 450.79C682.952 450.518 682.86 450.214 682.86 449.878C682.86 449.454 682.968 449.118 683.184 448.87C683.408 448.622 683.772 448.446 684.276 448.342C684.788 448.23 685.484 448.174 686.364 448.174H686.748V447.802C686.748 447.306 686.644 446.95 686.436 446.734C686.236 446.51 685.912 446.398 685.464 446.398C685.112 446.398 684.772 446.45 684.444 446.554C684.116 446.65 683.78 446.81 683.436 447.034L683.1 446.326C683.404 446.11 683.772 445.938 684.204 445.81C684.644 445.682 685.064 445.618 685.464 445.618C686.216 445.618 686.772 445.802 687.132 446.17C687.5 446.538 687.684 447.11 687.684 447.886V451.558H686.772V450.55C686.62 450.894 686.384 451.166 686.064 451.366C685.752 451.566 685.384 451.666 684.96 451.666ZM685.116 450.934C685.596 450.934 685.988 450.77 686.292 450.442C686.596 450.106 686.748 449.682 686.748 449.17V448.81H686.376C685.728 448.81 685.216 448.842 684.84 448.906C684.472 448.962 684.212 449.066 684.06 449.218C683.916 449.362 683.844 449.562 683.844 449.818C683.844 450.146 683.956 450.414 684.18 450.622C684.412 450.83 684.724 450.934 685.116 450.934ZM691.828 451.666C691.14 451.666 690.624 451.486 690.28 451.126C689.936 450.758 689.764 450.23 689.764 449.542V446.482H688.624V445.726H689.764V443.938H690.736V445.726H692.584V446.482H690.736V449.446C690.736 449.902 690.832 450.25 691.024 450.49C691.216 450.722 691.528 450.838 691.96 450.838C692.088 450.838 692.216 450.822 692.344 450.79C692.472 450.758 692.588 450.726 692.692 450.694L692.86 451.438C692.756 451.494 692.604 451.546 692.404 451.594C692.204 451.642 692.012 451.666 691.828 451.666ZM696.252 451.666C695.332 451.666 694.604 451.398 694.068 450.862C693.532 450.318 693.264 449.582 693.264 448.654C693.264 448.054 693.384 447.526 693.624 447.07C693.864 446.606 694.192 446.25 694.608 446.002C695.032 445.746 695.52 445.618 696.072 445.618C696.864 445.618 697.484 445.874 697.932 446.386C698.38 446.89 698.604 447.586 698.604 448.474V448.846H694.212C694.244 449.51 694.436 450.018 694.788 450.37C695.14 450.714 695.628 450.886 696.252 450.886C696.604 450.886 696.94 450.834 697.26 450.73C697.58 450.618 697.884 450.438 698.172 450.19L698.508 450.874C698.244 451.122 697.908 451.318 697.5 451.462C697.092 451.598 696.676 451.666 696.252 451.666ZM696.096 446.338C695.544 446.338 695.108 446.51 694.788 446.854C694.468 447.198 694.28 447.65 694.224 448.21H697.764C697.74 447.618 697.584 447.158 697.296 446.83C697.016 446.502 696.616 446.338 696.096 446.338ZM700.011 451.558V445.726H700.959V446.722C701.151 446.354 701.423 446.078 701.775 445.894C702.127 445.71 702.523 445.618 702.963 445.618C704.347 445.618 705.039 446.386 705.039 447.922V451.558H704.067V447.982C704.067 447.438 703.959 447.042 703.743 446.794C703.535 446.538 703.199 446.41 702.735 446.41C702.199 446.41 701.771 446.578 701.451 446.914C701.139 447.242 700.983 447.682 700.983 448.234V451.558H700.011ZM709.171 451.666C708.483 451.666 707.967 451.486 707.623 451.126C707.279 450.758 707.107 450.23 707.107 449.542V446.482H705.967V445.726H707.107V443.938H708.079V445.726H709.927V446.482H708.079V449.446C708.079 449.902 708.175 450.25 708.367 450.49C708.559 450.722 708.871 450.838 709.303 450.838C709.431 450.838 709.559 450.822 709.687 450.79C709.815 450.758 709.931 450.726 710.035 450.694L710.203 451.438C710.099 451.494 709.947 451.546 709.747 451.594C709.547 451.642 709.355 451.666 709.171 451.666ZM712.995 451.666C712.539 451.666 712.107 451.602 711.699 451.474C711.291 451.346 710.955 451.166 710.691 450.934L711.003 450.25C711.291 450.482 711.607 450.654 711.951 450.766C712.303 450.87 712.659 450.922 713.019 450.922C713.475 450.922 713.819 450.838 714.051 450.67C714.283 450.502 714.399 450.274 714.399 449.986C714.399 449.762 714.323 449.586 714.171 449.458C714.019 449.322 713.779 449.218 713.451 449.146L712.359 448.906C711.367 448.69 710.871 448.178 710.871 447.37C710.871 446.842 711.079 446.418 711.495 446.098C711.919 445.778 712.471 445.618 713.151 445.618C713.551 445.618 713.931 445.682 714.291 445.81C714.659 445.93 714.963 446.11 715.203 446.35L714.879 447.034C714.647 446.818 714.375 446.654 714.063 446.542C713.759 446.422 713.455 446.362 713.151 446.362C712.703 446.362 712.363 446.45 712.131 446.626C711.899 446.802 711.783 447.034 711.783 447.322C711.783 447.77 712.079 448.058 712.671 448.186L713.763 448.414C714.275 448.526 714.663 448.706 714.927 448.954C715.191 449.194 715.323 449.522 715.323 449.938C715.323 450.474 715.111 450.898 714.687 451.21C714.263 451.514 713.699 451.666 712.995 451.666ZM716.073 452.194V451.558H721.593V452.194H716.073ZM725.433 451.666C724.465 451.666 723.729 451.294 723.225 450.55C722.721 449.806 722.469 448.73 722.469 447.322C722.469 445.906 722.721 444.83 723.225 444.094C723.729 443.358 724.465 442.99 725.433 442.99C726.409 442.99 727.145 443.358 727.641 444.094C728.145 444.822 728.397 445.894 728.397 447.31C728.397 448.726 728.141 449.806 727.629 450.55C727.125 451.294 726.393 451.666 725.433 451.666ZM725.433 450.814C726.105 450.814 726.601 450.53 726.921 449.962C727.249 449.394 727.413 448.51 727.413 447.31C727.413 446.11 727.253 445.234 726.933 444.682C726.613 444.122 726.113 443.842 725.433 443.842C724.761 443.842 724.261 444.122 723.933 444.682C723.613 445.242 723.453 446.118 723.453 447.31C723.453 448.51 723.613 449.394 723.933 449.962C724.261 450.53 724.761 450.814 725.433 450.814ZM730.517 451.558V450.718H732.449V444.286L730.925 445.246L730.505 444.514L732.725 443.098H733.433V450.718H735.245V451.558H730.517ZM737.304 451.558V450.814L740.196 447.694C740.604 447.246 740.896 446.838 741.072 446.47C741.256 446.102 741.348 445.726 741.348 445.342C741.348 444.358 740.776 443.866 739.632 443.866C738.776 443.866 738.02 444.186 737.364 444.826L736.992 444.058C737.304 443.738 737.7 443.482 738.18 443.29C738.668 443.09 739.18 442.99 739.716 442.99C740.564 442.99 741.212 443.19 741.66 443.59C742.116 443.982 742.344 444.542 742.344 445.27C742.344 445.774 742.22 446.27 741.972 446.758C741.724 447.238 741.344 447.75 740.832 448.294L738.564 450.718H742.692V451.558H737.304ZM747.943 451.558V449.746H744.043V449.002L748.111 443.098H748.939V448.906H750.199V449.746H748.939V451.558H747.943ZM747.943 448.906V444.718L745.063 448.906H747.943ZM754.215 451.666C753.247 451.666 752.511 451.294 752.007 450.55C751.503 449.806 751.251 448.73 751.251 447.322C751.251 445.906 751.503 444.83 752.007 444.094C752.511 443.358 753.247 442.99 754.215 442.99C755.191 442.99 755.927 443.358 756.423 444.094C756.927 444.822 757.179 445.894 757.179 447.31C757.179 448.726 756.923 449.806 756.411 450.55C755.907 451.294 755.175 451.666 754.215 451.666ZM754.215 450.814C754.887 450.814 755.383 450.53 755.703 449.962C756.031 449.394 756.195 448.51 756.195 447.31C756.195 446.11 756.035 445.234 755.715 444.682C755.395 444.122 754.895 443.842 754.215 443.842C753.543 443.842 753.043 444.122 752.715 444.682C752.395 445.242 752.235 446.118 752.235 447.31C752.235 448.51 752.395 449.394 752.715 449.962C753.043 450.53 753.543 450.814 754.215 450.814ZM758.566 451.558V450.334H759.79V451.558H758.566ZM763.403 451.666C762.883 451.666 762.427 451.542 762.035 451.294C761.651 451.046 761.351 450.698 761.135 450.25C760.927 449.794 760.823 449.258 760.823 448.642C760.823 448.018 760.927 447.482 761.135 447.034C761.351 446.578 761.651 446.23 762.035 445.99C762.427 445.742 762.883 445.618 763.403 445.618C763.859 445.618 764.259 445.718 764.603 445.918C764.955 446.118 765.215 446.394 765.383 446.746V443.098H766.355V451.558H765.407V450.49C765.239 450.858 764.979 451.146 764.627 451.354C764.275 451.562 763.867 451.666 763.403 451.666ZM763.607 450.886C764.151 450.886 764.587 450.694 764.915 450.31C765.243 449.918 765.407 449.362 765.407 448.642C765.407 447.914 765.243 447.358 764.915 446.974C764.587 446.59 764.151 446.398 763.607 446.398C763.055 446.398 762.615 446.59 762.287 446.974C761.967 447.358 761.807 447.914 761.807 448.642C761.807 449.362 761.967 449.918 762.287 450.31C762.615 450.694 763.055 450.886 763.607 450.886ZM770.603 451.666C770.035 451.666 769.543 451.542 769.127 451.294C768.711 451.046 768.387 450.698 768.155 450.25C767.931 449.794 767.819 449.258 767.819 448.642C767.819 448.026 767.931 447.494 768.155 447.046C768.387 446.59 768.711 446.238 769.127 445.99C769.543 445.742 770.035 445.618 770.603 445.618C771.163 445.618 771.651 445.742 772.067 445.99C772.491 446.238 772.815 446.59 773.039 447.046C773.271 447.494 773.387 448.026 773.387 448.642C773.387 449.258 773.271 449.794 773.039 450.25C772.815 450.698 772.491 451.046 772.067 451.294C771.651 451.542 771.163 451.666 770.603 451.666ZM770.603 450.886C771.147 450.886 771.583 450.694 771.911 450.31C772.239 449.918 772.403 449.362 772.403 448.642C772.403 447.914 772.239 447.358 771.911 446.974C771.583 446.59 771.147 446.398 770.603 446.398C770.051 446.398 769.611 446.59 769.283 446.974C768.963 447.358 768.803 447.914 768.803 448.642C768.803 449.362 768.963 449.918 769.283 450.31C769.611 450.694 770.051 450.886 770.603 450.886ZM777.319 451.666C776.735 451.666 776.231 451.542 775.807 451.294C775.383 451.038 775.055 450.682 774.823 450.226C774.599 449.762 774.487 449.222 774.487 448.606C774.487 447.678 774.739 446.95 775.243 446.422C775.747 445.886 776.439 445.618 777.319 445.618C777.679 445.618 778.035 445.682 778.387 445.81C778.739 445.938 779.031 446.118 779.263 446.35L778.927 447.058C778.695 446.834 778.439 446.67 778.159 446.566C777.887 446.462 777.627 446.41 777.379 446.41C776.771 446.41 776.303 446.602 775.975 446.986C775.647 447.362 775.483 447.906 775.483 448.618C775.483 449.314 775.647 449.866 775.975 450.274C776.303 450.674 776.771 450.874 777.379 450.874C777.627 450.874 777.887 450.822 778.159 450.718C778.439 450.614 778.695 450.446 778.927 450.214L779.263 450.922C779.031 451.154 778.735 451.338 778.375 451.474C778.023 451.602 777.671 451.666 777.319 451.666ZM779.74 451.558L782.164 448.546L779.884 445.726H781.036L782.728 447.874L784.432 445.726H785.572L783.292 448.546L785.716 451.558H784.564L782.716 449.242L780.892 451.558H779.74Z" fill="#FF3D00"/>
<path d="M504.322 122.019L495.682 122.616L500.519 129.8L504.322 122.019ZM391.007 199.215L499.142 126.411L498.304 125.167L390.169 197.971L391.007 199.215Z" fill="#FF5C00" fill-opacity="0.5"/>
<path d="M667.603 245.888L660.714 240.64L659.614 249.23L667.603 245.888ZM394.997 211.723L660.812 245.774L661.003 244.286L395.187 210.236L394.997 211.723Z" fill="url(#paint0_linear_2600_83629)" fill-opacity="0.5"/>
<path d="M760.998 274.993L755.343 268.434L752.49 276.611L760.998 274.993ZM717.751 260.701L754.378 273.478L754.872 272.062L718.245 259.285L717.751 260.701Z" fill="url(#paint1_linear_2600_83629)" fill-opacity="0.5"/>
<path fill-rule="evenodd" clip-rule="evenodd" d="M567.381 196.34H499.816V218.861H527.029L533.599 226.87L540.168 218.861H567.381V196.34Z" fill="url(#paint2_linear_2600_83629)" fill-opacity="0.25"/>
<path d="M499.816 196.34V196.09H499.566V196.34H499.816ZM567.381 196.34H567.631V196.09H567.381V196.34ZM499.816 218.861H499.566V219.111H499.816V218.861ZM527.029 218.861L527.223 218.703L527.148 218.611H527.029V218.861ZM533.599 226.87L533.406 227.029L533.599 227.264L533.792 227.029L533.599 226.87ZM540.168 218.861V218.611H540.05L539.975 218.703L540.168 218.861ZM567.381 218.861V219.111H567.631V218.861H567.381ZM499.816 196.59H567.381V196.09H499.816V196.59ZM500.066 218.861V196.34H499.566V218.861H500.066ZM527.029 218.611H499.816V219.111H527.029V218.611ZM526.836 219.02L533.406 227.029L533.792 226.711L527.223 218.703L526.836 219.02ZM533.792 227.029L540.362 219.02L539.975 218.703L533.406 226.711L533.792 227.029ZM567.381 218.611H540.168V219.111H567.381V218.611ZM567.131 196.34V218.861H567.631V196.34H567.131Z" fill="white"/>
<path d="M523.012 209.808C522.559 209.808 522.126 209.734 521.712 209.588C521.299 209.441 520.949 209.234 520.662 208.968L520.972 208.318C521.592 208.824 522.269 209.078 523.002 209.078C523.489 209.078 523.872 208.941 524.152 208.668C524.432 208.394 524.572 208.034 524.572 207.588C524.572 207.128 524.439 206.751 524.172 206.458C523.906 206.164 523.539 206.018 523.072 206.018C522.399 206.018 521.869 206.298 521.482 206.858H520.882V202.668H524.972V203.368H521.692V205.888C522.079 205.501 522.589 205.308 523.222 205.308C523.662 205.308 524.046 205.401 524.372 205.588C524.699 205.774 524.949 206.038 525.122 206.378C525.302 206.711 525.392 207.101 525.392 207.548C525.392 207.988 525.296 208.378 525.102 208.718C524.909 209.058 524.632 209.324 524.272 209.518C523.919 209.711 523.499 209.808 523.012 209.808ZM526.489 209.718V208.698H527.509V209.718H526.489ZM529.034 209.718V209.098L531.444 206.498C531.784 206.124 532.027 205.784 532.174 205.478C532.327 205.171 532.404 204.858 532.404 204.538C532.404 203.718 531.927 203.308 530.974 203.308C530.261 203.308 529.631 203.574 529.084 204.108L528.774 203.468C529.034 203.201 529.364 202.988 529.764 202.828C530.171 202.661 530.597 202.578 531.044 202.578C531.751 202.578 532.291 202.744 532.664 203.078C533.044 203.404 533.234 203.871 533.234 204.478C533.234 204.898 533.131 205.311 532.924 205.718C532.717 206.118 532.401 206.544 531.974 206.998L530.084 209.018H533.524V209.718H529.034ZM540.788 209.808C539.655 209.808 538.792 209.488 538.198 208.848C537.605 208.208 537.308 207.324 537.308 206.198C537.308 205.451 537.442 204.808 537.708 204.268C537.975 203.728 538.358 203.311 538.858 203.018C539.358 202.724 539.962 202.578 540.668 202.578C541.168 202.578 541.628 202.654 542.048 202.808C542.468 202.954 542.825 203.171 543.118 203.458L542.798 204.118C542.478 203.838 542.148 203.634 541.808 203.508C541.468 203.381 541.085 203.318 540.658 203.318C539.858 203.318 539.245 203.571 538.818 204.078C538.392 204.578 538.178 205.284 538.178 206.198C538.178 207.131 538.398 207.844 538.838 208.338C539.278 208.831 539.935 209.078 540.808 209.078C541.375 209.078 541.918 208.981 542.438 208.788V206.698H540.648V206.048H543.148V209.308C542.962 209.408 542.735 209.494 542.468 209.568C542.208 209.641 541.932 209.698 541.638 209.738C541.345 209.784 541.062 209.808 540.788 209.808ZM544.824 209.718V202.668H547.644C548.371 202.668 548.931 202.831 549.324 203.158C549.724 203.478 549.924 203.928 549.924 204.508C549.924 204.894 549.824 205.224 549.624 205.498C549.424 205.771 549.148 205.971 548.794 206.098C549.201 206.204 549.518 206.401 549.744 206.688C549.978 206.974 550.094 207.338 550.094 207.778C550.094 208.404 549.891 208.884 549.484 209.218C549.078 209.551 548.504 209.718 547.764 209.718H544.824ZM545.624 205.818H547.524C548.584 205.818 549.114 205.404 549.114 204.578C549.114 203.744 548.584 203.328 547.524 203.328H545.624V205.818ZM545.624 209.058H547.684C548.751 209.058 549.284 208.628 549.284 207.768C549.284 206.908 548.751 206.478 547.684 206.478H545.624V209.058Z" fill="white"/>
<path d="M395.092 383.27L396.079 377.581L390.659 379.571L395.092 383.27ZM361.966 294.482L393.072 379.218L394.011 378.873L362.905 294.137L361.966 294.482Z" fill="#CBAA00" fill-opacity="0.5"/>
<path d="M389.211 490.986V482.526H390.195V490.122H394.503V490.986H389.211ZM397.961 491.094C397.393 491.094 396.901 490.97 396.485 490.722C396.069 490.474 395.745 490.126 395.513 489.678C395.289 489.222 395.177 488.686 395.177 488.07C395.177 487.454 395.289 486.922 395.513 486.474C395.745 486.018 396.069 485.666 396.485 485.418C396.901 485.17 397.393 485.046 397.961 485.046C398.521 485.046 399.009 485.17 399.425 485.418C399.849 485.666 400.173 486.018 400.397 486.474C400.629 486.922 400.745 487.454 400.745 488.07C400.745 488.686 400.629 489.222 400.397 489.678C400.173 490.126 399.849 490.474 399.425 490.722C399.009 490.97 398.521 491.094 397.961 491.094ZM397.961 490.314C398.505 490.314 398.941 490.122 399.269 489.738C399.597 489.346 399.761 488.79 399.761 488.07C399.761 487.342 399.597 486.786 399.269 486.402C398.941 486.018 398.505 485.826 397.961 485.826C397.409 485.826 396.969 486.018 396.641 486.402C396.321 486.786 396.161 487.342 396.161 488.07C396.161 488.79 396.321 489.346 396.641 489.738C396.969 490.122 397.409 490.314 397.961 490.314ZM404.784 493.254C404.28 493.254 403.804 493.186 403.356 493.05C402.916 492.922 402.524 492.726 402.18 492.462L402.504 491.754C402.864 492.01 403.22 492.194 403.572 492.306C403.932 492.418 404.32 492.474 404.736 492.474C405.888 492.474 406.464 491.882 406.464 490.698V489.666C406.296 490.034 406.032 490.326 405.672 490.542C405.32 490.75 404.916 490.854 404.46 490.854C403.924 490.854 403.46 490.73 403.068 490.482C402.676 490.234 402.372 489.894 402.156 489.462C401.948 489.022 401.844 488.514 401.844 487.938C401.844 487.362 401.948 486.858 402.156 486.426C402.372 485.986 402.676 485.646 403.068 485.406C403.46 485.166 403.924 485.046 404.46 485.046C404.916 485.046 405.32 485.15 405.672 485.358C406.032 485.566 406.296 485.85 406.464 486.21V485.154H407.412V490.566C407.412 491.462 407.188 492.134 406.74 492.582C406.3 493.03 405.648 493.254 404.784 493.254ZM404.64 490.062C405.2 490.062 405.644 489.87 405.972 489.486C406.3 489.102 406.464 488.586 406.464 487.938C406.464 487.29 406.3 486.778 405.972 486.402C405.644 486.018 405.2 485.826 404.64 485.826C404.088 485.826 403.648 486.018 403.32 486.402C402.992 486.778 402.828 487.29 402.828 487.938C402.828 488.586 402.992 489.102 403.32 489.486C403.648 489.87 404.088 490.062 404.64 490.062ZM409.116 483.702V482.61H410.316V483.702H409.116ZM409.236 490.986V485.154H410.208V490.986H409.236ZM412.025 490.986V485.154H412.973V486.15C413.165 485.782 413.437 485.506 413.789 485.322C414.141 485.138 414.537 485.046 414.977 485.046C416.361 485.046 417.053 485.814 417.053 487.35V490.986H416.081V487.41C416.081 486.866 415.973 486.47 415.757 486.222C415.549 485.966 415.213 485.838 414.749 485.838C414.213 485.838 413.785 486.006 413.465 486.342C413.153 486.67 412.997 487.11 412.997 487.662V490.986H412.025ZM421.807 483.702V482.61H423.007V483.702H421.807ZM421.927 490.986V485.154H422.899V490.986H421.927ZM424.716 490.986V485.154H425.664V486.15C425.856 485.782 426.128 485.506 426.48 485.322C426.832 485.138 427.228 485.046 427.668 485.046C429.052 485.046 429.744 485.814 429.744 487.35V490.986H428.772V487.41C428.772 486.866 428.664 486.47 428.448 486.222C428.24 485.966 427.904 485.838 427.44 485.838C426.904 485.838 426.476 486.006 426.156 486.342C425.844 486.67 425.688 487.11 425.688 487.662V490.986H424.716ZM433.877 491.094C433.189 491.094 432.673 490.914 432.329 490.554C431.985 490.186 431.813 489.658 431.813 488.97V485.91H430.673V485.154H431.813V483.366H432.785V485.154H434.633V485.91H432.785V488.874C432.785 489.33 432.881 489.678 433.073 489.918C433.265 490.15 433.577 490.266 434.009 490.266C434.137 490.266 434.265 490.25 434.393 490.218C434.521 490.186 434.637 490.154 434.741 490.122L434.909 490.866C434.805 490.922 434.653 490.974 434.453 491.022C434.253 491.07 434.061 491.094 433.877 491.094ZM438.097 491.094C437.529 491.094 437.037 490.97 436.621 490.722C436.205 490.474 435.881 490.126 435.649 489.678C435.425 489.222 435.313 488.686 435.313 488.07C435.313 487.454 435.425 486.922 435.649 486.474C435.881 486.018 436.205 485.666 436.621 485.418C437.037 485.17 437.529 485.046 438.097 485.046C438.657 485.046 439.145 485.17 439.561 485.418C439.985 485.666 440.309 486.018 440.533 486.474C440.765 486.922 440.881 487.454 440.881 488.07C440.881 488.686 440.765 489.222 440.533 489.678C440.309 490.126 439.985 490.474 439.561 490.722C439.145 490.97 438.657 491.094 438.097 491.094ZM438.097 490.314C438.641 490.314 439.077 490.122 439.405 489.738C439.733 489.346 439.897 488.79 439.897 488.07C439.897 487.342 439.733 486.786 439.405 486.402C439.077 486.018 438.641 485.826 438.097 485.826C437.545 485.826 437.105 486.018 436.777 486.402C436.457 486.786 436.297 487.342 436.297 488.07C436.297 488.79 436.457 489.346 436.777 489.738C437.105 490.122 437.545 490.314 438.097 490.314ZM391.293 507.094C390.509 507.094 389.825 506.918 389.241 506.566C388.665 506.206 388.217 505.702 387.897 505.054C387.585 504.406 387.429 503.638 387.429 502.75C387.429 501.862 387.585 501.094 387.897 500.446C388.209 499.798 388.653 499.298 389.229 498.946C389.813 498.594 390.501 498.418 391.293 498.418C392.093 498.418 392.781 498.594 393.357 498.946C393.941 499.298 394.389 499.798 394.701 500.446C395.021 501.086 395.181 501.85 395.181 502.738C395.181 503.626 395.021 504.398 394.701 505.054C394.381 505.702 393.929 506.206 393.345 506.566C392.769 506.918 392.085 507.094 391.293 507.094ZM391.293 506.218C392.197 506.218 392.897 505.914 393.393 505.306C393.889 504.698 394.137 503.846 394.137 502.75C394.137 501.654 393.889 500.806 393.393 500.206C392.897 499.598 392.197 499.294 391.293 499.294C390.405 499.294 389.713 499.598 389.217 500.206C388.721 500.806 388.473 501.654 388.473 502.75C388.473 503.838 388.721 504.69 389.217 505.306C389.713 505.914 390.405 506.218 391.293 506.218ZM397.12 506.986V501.91H395.968V501.154H397.12V500.95C397.12 500.174 397.312 499.586 397.696 499.186C398.088 498.786 398.688 498.562 399.496 498.514L399.964 498.49L400.048 499.234L399.496 499.27C399 499.31 398.64 499.458 398.416 499.714C398.2 499.97 398.092 500.342 398.092 500.83V501.154H399.772V501.91H398.092V506.986H397.12ZM400.929 506.986V501.91H399.777V501.154H400.929V500.95C400.929 500.174 401.121 499.586 401.505 499.186C401.897 498.786 402.497 498.562 403.305 498.514L403.749 498.49L403.809 499.246L403.305 499.27C402.809 499.302 402.449 499.45 402.225 499.714C402.009 499.97 401.901 500.342 401.901 500.83V501.154H405.501V506.986H404.529V501.91H401.901V506.986H400.929ZM404.421 499.702V498.61H405.609V499.702H404.421ZM409.792 507.094C409.208 507.094 408.704 506.97 408.28 506.722C407.856 506.466 407.528 506.11 407.296 505.654C407.072 505.19 406.96 504.65 406.96 504.034C406.96 503.106 407.212 502.378 407.716 501.85C408.22 501.314 408.912 501.046 409.792 501.046C410.152 501.046 410.508 501.11 410.86 501.238C411.212 501.366 411.504 501.546 411.736 501.778L411.4 502.486C411.168 502.262 410.912 502.098 410.632 501.994C410.36 501.89 410.1 501.838 409.852 501.838C409.244 501.838 408.776 502.03 408.448 502.414C408.12 502.79 407.956 503.334 407.956 504.046C407.956 504.742 408.12 505.294 408.448 505.702C408.776 506.102 409.244 506.302 409.852 506.302C410.1 506.302 410.36 506.25 410.632 506.146C410.912 506.042 411.168 505.874 411.4 505.642L411.736 506.35C411.504 506.582 411.208 506.766 410.848 506.902C410.496 507.03 410.144 507.094 409.792 507.094ZM415.385 507.094C414.465 507.094 413.737 506.826 413.201 506.29C412.665 505.746 412.397 505.01 412.397 504.082C412.397 503.482 412.517 502.954 412.757 502.498C412.997 502.034 413.325 501.678 413.741 501.43C414.165 501.174 414.653 501.046 415.205 501.046C415.997 501.046 416.617 501.302 417.065 501.814C417.513 502.318 417.737 503.014 417.737 503.902V504.274H413.345C413.377 504.938 413.569 505.446 413.921 505.798C414.273 506.142 414.761 506.314 415.385 506.314C415.737 506.314 416.073 506.262 416.393 506.158C416.713 506.046 417.017 505.866 417.305 505.618L417.641 506.302C417.377 506.55 417.041 506.746 416.633 506.89C416.225 507.026 415.809 507.094 415.385 507.094ZM415.229 501.766C414.677 501.766 414.241 501.938 413.921 502.282C413.601 502.626 413.413 503.078 413.357 503.638H416.897C416.873 503.046 416.717 502.586 416.429 502.258C416.149 501.93 415.749 501.766 415.229 501.766ZM424.818 507.094C424.258 507.094 423.726 507.01 423.222 506.842C422.718 506.666 422.294 506.414 421.95 506.086L422.31 505.306C422.702 505.626 423.098 505.858 423.498 506.002C423.898 506.146 424.33 506.218 424.794 506.218C425.402 506.218 425.866 506.086 426.186 505.822C426.514 505.55 426.678 505.154 426.678 504.634C426.678 504.138 426.514 503.762 426.186 503.506C425.858 503.25 425.382 503.122 424.758 503.122H423.51V502.27H424.674C425.218 502.27 425.646 502.13 425.958 501.85C426.278 501.562 426.438 501.17 426.438 500.674C426.438 500.234 426.29 499.894 425.994 499.654C425.706 499.414 425.294 499.294 424.758 499.294C423.878 499.294 423.11 499.614 422.454 500.254L422.094 499.486C422.406 499.15 422.802 498.89 423.282 498.706C423.77 498.514 424.282 498.418 424.818 498.418C425.634 498.418 426.27 498.61 426.726 498.994C427.19 499.378 427.422 499.91 427.422 500.59C427.422 501.062 427.302 501.478 427.062 501.838C426.822 502.19 426.49 502.446 426.066 502.606C426.57 502.742 426.962 502.994 427.242 503.362C427.522 503.722 427.662 504.17 427.662 504.706C427.662 505.434 427.406 506.014 426.894 506.446C426.39 506.878 425.698 507.094 424.818 507.094ZM432.397 507.094C431.397 507.094 430.625 506.734 430.081 506.014C429.545 505.286 429.277 504.27 429.277 502.966C429.277 501.502 429.577 500.378 430.177 499.594C430.777 498.81 431.617 498.418 432.697 498.418C433.129 498.418 433.561 498.51 433.993 498.694C434.433 498.878 434.793 499.126 435.073 499.438L434.713 500.206C434.417 499.902 434.093 499.674 433.741 499.522C433.397 499.37 433.041 499.294 432.673 499.294C431.889 499.294 431.285 499.586 430.861 500.17C430.445 500.754 430.237 501.622 430.237 502.774V503.362C430.389 502.834 430.669 502.422 431.077 502.126C431.493 501.83 431.981 501.682 432.541 501.682C433.037 501.682 433.477 501.798 433.861 502.03C434.245 502.254 434.545 502.566 434.761 502.966C434.977 503.366 435.085 503.826 435.085 504.346C435.085 504.882 434.969 505.358 434.737 505.774C434.513 506.182 434.197 506.506 433.789 506.746C433.389 506.978 432.925 507.094 432.397 507.094ZM432.337 506.254C432.873 506.254 433.305 506.082 433.633 505.738C433.969 505.394 434.137 504.942 434.137 504.382C434.137 503.83 433.969 503.382 433.633 503.038C433.305 502.686 432.873 502.51 432.337 502.51C431.801 502.51 431.365 502.686 431.029 503.038C430.701 503.382 430.537 503.83 430.537 504.382C430.537 504.942 430.701 505.394 431.029 505.738C431.365 506.082 431.801 506.254 432.337 506.254ZM439.485 507.094C438.941 507.094 438.421 507.006 437.925 506.83C437.429 506.654 437.009 506.406 436.665 506.086L437.037 505.306C437.781 505.914 438.593 506.218 439.473 506.218C440.057 506.218 440.517 506.054 440.853 505.726C441.189 505.398 441.357 504.966 441.357 504.43C441.357 503.878 441.197 503.426 440.877 503.074C440.557 502.722 440.117 502.546 439.557 502.546C438.749 502.546 438.113 502.882 437.649 503.554H436.929V498.526H441.837V499.366H437.901V502.39C438.365 501.926 438.977 501.694 439.737 501.694C440.265 501.694 440.725 501.806 441.117 502.03C441.509 502.254 441.809 502.57 442.017 502.978C442.233 503.378 442.341 503.846 442.341 504.382C442.341 504.91 442.225 505.378 441.993 505.786C441.761 506.194 441.429 506.514 440.997 506.746C440.573 506.978 440.069 507.094 439.485 507.094Z" fill="#F5C304"/>
<circle cx="414.234" cy="433.943" r="38.0367" fill="#CBAA00" fill-opacity="0.15" stroke="#F5C304" stroke-width="0.5"/>
<path d="M403.656 414.8C404.781 414.8 405.894 415.021 406.933 415.452C407.972 415.882 408.916 416.513 409.712 417.308C410.507 418.103 411.138 419.048 411.568 420.087C411.999 421.126 412.22 422.239 412.22 423.364V431.928H403.656C401.385 431.928 399.206 431.026 397.6 429.42C395.994 427.814 395.092 425.635 395.092 423.364C395.092 421.093 395.994 418.914 397.6 417.308C399.206 415.702 401.385 414.8 403.656 414.8V414.8ZM403.656 435.958H412.22V444.522C412.22 446.216 411.718 447.872 410.777 449.28C409.836 450.689 408.498 451.786 406.933 452.435C405.368 453.083 403.646 453.252 401.985 452.922C400.324 452.591 398.798 451.776 397.6 450.578C396.402 449.38 395.587 447.854 395.256 446.193C394.926 444.532 395.096 442.81 395.744 441.245C396.392 439.68 397.49 438.343 398.898 437.402C400.306 436.461 401.962 435.958 403.656 435.958V435.958ZM424.814 414.8C427.086 414.8 429.264 415.702 430.87 417.308C432.476 418.914 433.378 421.093 433.378 423.364C433.378 425.635 432.476 427.814 430.87 429.42C429.264 431.026 427.086 431.928 424.814 431.928H416.25V423.364C416.25 421.093 417.153 418.914 418.759 417.308C420.365 415.702 422.543 414.8 424.814 414.8V414.8ZM416.25 435.958H424.814C426.508 435.958 428.164 436.461 429.572 437.402C430.981 438.343 432.078 439.68 432.727 441.245C433.375 442.81 433.544 444.532 433.214 446.193C432.883 447.854 432.068 449.38 430.87 450.578C429.672 451.776 428.146 452.591 426.485 452.922C424.824 453.252 423.102 453.083 421.537 452.435C419.972 451.786 418.635 450.689 417.694 449.28C416.753 447.872 416.25 446.216 416.25 444.522V435.958Z" fill="#F5C304"/>
<path d="M516.708 497.004L514.126 491.839L510.945 496.657L516.708 497.004ZM456.75 458.008L512.677 494.941L513.228 494.107L457.301 457.174L456.75 458.008Z" fill="#CBAA00" fill-opacity="0.5"/>
<path d="M749.998 371.993L754.361 368.212L748.905 366.324L749.998 371.993ZM768.211 317.83L750.997 367.577L751.942 367.904L769.156 318.157L768.211 317.83Z" fill="#FF3D00"/>
<path d="M460.998 407.993L469.651 408.354L465.637 400.68L460.998 407.993ZM667.254 299.275L466.632 404.2L467.327 405.53L667.949 300.604L667.254 299.275Z" fill="url(#paint3_linear_2600_83629)" fill-opacity="0.5"/>
<circle cx="540.355" cy="506.012" r="17.7673" fill="#CBAA00" fill-opacity="0.15" stroke="#F5C304" stroke-width="0.5"/>
<mask id="mask0_2600_83629" style="mask-type:alpha" maskUnits="userSpaceOnUse" x="528" y="493" width="25" height="25">
<rect x="528.492" y="493.801" width="24" height="24" fill="#D9D9D9"/>
</mask>
<g mask="url(#mask0_2600_83629)">
<path d="M532.492 513.801C531.942 513.801 531.471 513.605 531.08 513.213C530.688 512.822 530.492 512.351 530.492 511.801V499.801C530.492 499.251 530.688 498.78 531.08 498.388C531.471 497.997 531.942 497.801 532.492 497.801H548.492C549.042 497.801 549.513 497.997 549.905 498.388C550.296 498.78 550.492 499.251 550.492 499.801V511.801C550.492 512.351 550.296 512.822 549.905 513.213C549.513 513.605 549.042 513.801 548.492 513.801H532.492ZM540.492 506.801L532.492 501.801V511.801H548.492V501.801L540.492 506.801ZM540.492 504.801L548.492 499.801H532.492L540.492 504.801ZM532.492 501.801V499.801V511.801V501.801Z" fill="#F5C304"/>
</g>
<path d="M514.984 541.101C514.528 541.101 514.096 541.037 513.688 540.909C513.28 540.781 512.944 540.601 512.68 540.369L512.992 539.685C513.28 539.917 513.596 540.089 513.94 540.201C514.292 540.305 514.648 540.357 515.008 540.357C515.464 540.357 515.808 540.273 516.04 540.105C516.272 539.937 516.388 539.709 516.388 539.421C516.388 539.197 516.312 539.021 516.16 538.893C516.008 538.757 515.768 538.653 515.44 538.581L514.348 538.341C513.356 538.125 512.86 537.613 512.86 536.805C512.86 536.277 513.068 535.853 513.484 535.533C513.908 535.213 514.46 535.053 515.14 535.053C515.54 535.053 515.92 535.117 516.28 535.245C516.648 535.365 516.952 535.545 517.192 535.785L516.868 536.469C516.636 536.253 516.364 536.089 516.052 535.977C515.748 535.857 515.444 535.797 515.14 535.797C514.692 535.797 514.352 535.885 514.12 536.061C513.888 536.237 513.772 536.469 513.772 536.757C513.772 537.205 514.068 537.493 514.66 537.621L515.752 537.849C516.264 537.961 516.652 538.141 516.916 538.389C517.18 538.629 517.312 538.957 517.312 539.373C517.312 539.909 517.1 540.333 516.676 540.645C516.252 540.949 515.688 541.101 514.984 541.101ZM518.793 543.153V535.161H519.741V536.205C519.917 535.845 520.177 535.565 520.521 535.365C520.873 535.157 521.281 535.053 521.745 535.053C522.265 535.053 522.717 535.177 523.101 535.425C523.493 535.665 523.793 536.013 524.001 536.469C524.217 536.917 524.325 537.453 524.325 538.077C524.325 538.693 524.217 539.229 524.001 539.685C523.793 540.133 523.493 540.481 523.101 540.729C522.717 540.977 522.265 541.101 521.745 541.101C521.297 541.101 520.897 541.001 520.545 540.801C520.193 540.601 519.933 540.325 519.765 539.973V543.153H518.793ZM521.541 540.321C522.085 540.321 522.521 540.129 522.849 539.745C523.177 539.353 523.341 538.797 523.341 538.077C523.341 537.349 523.177 536.793 522.849 536.409C522.521 536.025 522.085 535.833 521.541 535.833C520.997 535.833 520.561 536.025 520.233 536.409C519.905 536.793 519.741 537.349 519.741 538.077C519.741 538.797 519.905 539.353 520.233 539.745C520.561 540.129 520.997 540.321 521.541 540.321ZM527.625 541.101C527.225 541.101 526.865 541.025 526.545 540.873C526.233 540.713 525.985 540.497 525.801 540.225C525.617 539.953 525.525 539.649 525.525 539.313C525.525 538.889 525.633 538.553 525.849 538.305C526.073 538.057 526.437 537.881 526.941 537.777C527.453 537.665 528.149 537.609 529.029 537.609H529.413V537.237C529.413 536.741 529.309 536.385 529.101 536.169C528.901 535.945 528.577 535.833 528.129 535.833C527.777 535.833 527.437 535.885 527.109 535.989C526.781 536.085 526.445 536.245 526.101 536.469L525.765 535.761C526.069 535.545 526.437 535.373 526.869 535.245C527.309 535.117 527.729 535.053 528.129 535.053C528.881 535.053 529.437 535.237 529.797 535.605C530.165 535.973 530.349 536.545 530.349 537.321V540.993H529.437V539.985C529.285 540.329 529.049 540.601 528.729 540.801C528.417 541.001 528.049 541.101 527.625 541.101ZM527.781 540.369C528.261 540.369 528.653 540.205 528.957 539.877C529.261 539.541 529.413 539.117 529.413 538.605V538.245H529.041C528.393 538.245 527.881 538.277 527.505 538.341C527.137 538.397 526.877 538.501 526.725 538.653C526.581 538.797 526.509 538.997 526.509 539.253C526.509 539.581 526.621 539.849 526.845 540.057C527.077 540.265 527.389 540.369 527.781 540.369ZM532.152 540.993V535.161H533.1V536.157C533.292 535.789 533.564 535.513 533.916 535.329C534.268 535.145 534.664 535.053 535.104 535.053C536.488 535.053 537.18 535.821 537.18 537.357V540.993H536.208V537.417C536.208 536.873 536.1 536.477 535.884 536.229C535.676 535.973 535.34 535.845 534.876 535.845C534.34 535.845 533.912 536.013 533.592 536.349C533.28 536.677 533.124 537.117 533.124 537.669V540.993H532.152ZM541.193 541.101C540.673 541.101 540.217 540.977 539.825 540.729C539.441 540.481 539.141 540.133 538.925 539.685C538.717 539.229 538.613 538.693 538.613 538.077C538.613 537.453 538.717 536.917 538.925 536.469C539.141 536.013 539.441 535.665 539.825 535.425C540.217 535.177 540.673 535.053 541.193 535.053C541.649 535.053 542.049 535.153 542.393 535.353C542.745 535.553 543.005 535.829 543.173 536.181V532.533H544.145V540.993H543.197V539.925C543.029 540.293 542.769 540.581 542.417 540.789C542.065 540.997 541.657 541.101 541.193 541.101ZM541.397 540.321C541.941 540.321 542.377 540.129 542.705 539.745C543.033 539.353 543.197 538.797 543.197 538.077C543.197 537.349 543.033 536.793 542.705 536.409C542.377 536.025 541.941 535.833 541.397 535.833C540.845 535.833 540.405 536.025 540.077 536.409C539.757 536.793 539.597 537.349 539.597 538.077C539.597 538.797 539.757 539.353 540.077 539.745C540.405 540.129 540.845 540.321 541.397 540.321ZM548.597 541.101C547.677 541.101 546.949 540.833 546.413 540.297C545.877 539.753 545.609 539.017 545.609 538.089C545.609 537.489 545.729 536.961 545.969 536.505C546.209 536.041 546.537 535.685 546.953 535.437C547.377 535.181 547.865 535.053 548.417 535.053C549.209 535.053 549.829 535.309 550.277 535.821C550.725 536.325 550.949 537.021 550.949 537.909V538.281H546.557C546.589 538.945 546.781 539.453 547.133 539.805C547.485 540.149 547.973 540.321 548.597 540.321C548.949 540.321 549.285 540.269 549.605 540.165C549.925 540.053 550.229 539.873 550.517 539.625L550.853 540.309C550.589 540.557 550.253 540.753 549.845 540.897C549.437 541.033 549.021 541.101 548.597 541.101ZM548.441 535.773C547.889 535.773 547.453 535.945 547.133 536.289C546.813 536.633 546.625 537.085 546.569 537.645H550.109C550.085 537.053 549.929 536.593 549.641 536.265C549.361 535.937 548.961 535.773 548.441 535.773ZM552.957 543.153L553.953 540.897L551.493 535.161H552.549L554.481 539.889L556.425 535.161H557.445L553.977 543.153H552.957ZM563.357 542.949C562.341 542.949 561.449 542.733 560.681 542.301C559.921 541.877 559.329 541.273 558.905 540.489C558.481 539.705 558.269 538.781 558.269 537.717C558.269 536.933 558.393 536.217 558.641 535.569C558.897 534.921 559.257 534.365 559.721 533.901C560.193 533.429 560.749 533.065 561.389 532.809C562.029 532.553 562.737 532.425 563.513 532.425C564.441 532.425 565.253 532.613 565.949 532.989C566.645 533.357 567.185 533.873 567.569 534.537C567.961 535.201 568.157 535.977 568.157 536.865C568.157 537.561 568.061 538.165 567.869 538.677C567.685 539.189 567.421 539.585 567.077 539.865C566.733 540.145 566.333 540.285 565.877 540.285C565.485 540.285 565.169 540.193 564.929 540.009C564.689 539.817 564.545 539.553 564.497 539.217C564.273 539.569 564.001 539.837 563.681 540.021C563.369 540.197 563.037 540.285 562.685 540.285C562.069 540.285 561.589 540.093 561.245 539.709C560.909 539.317 560.741 538.781 560.741 538.101C560.741 537.517 560.853 536.997 561.077 536.541C561.301 536.077 561.609 535.713 562.001 535.449C562.393 535.185 562.837 535.053 563.333 535.053C564.101 535.053 564.609 535.365 564.857 535.989L565.001 535.161H565.793L565.253 538.269C565.221 538.477 565.205 538.665 565.205 538.833C565.205 539.369 565.445 539.637 565.925 539.637C566.381 539.637 566.753 539.385 567.041 538.881C567.329 538.369 567.473 537.697 567.473 536.865C567.473 536.105 567.305 535.445 566.969 534.885C566.641 534.325 566.181 533.889 565.589 533.577C564.997 533.265 564.301 533.109 563.501 533.109C562.613 533.109 561.833 533.301 561.161 533.685C560.489 534.069 559.965 534.609 559.589 535.305C559.213 535.993 559.025 536.797 559.025 537.717C559.025 538.669 559.201 539.485 559.553 540.165C559.905 540.845 560.405 541.365 561.053 541.725C561.701 542.093 562.469 542.277 563.357 542.277C564.005 542.277 564.589 542.173 565.109 541.965C565.637 541.765 566.073 541.481 566.417 541.113L566.813 541.689C566.421 542.097 565.925 542.409 565.325 542.625C564.733 542.841 564.077 542.949 563.357 542.949ZM562.793 539.589C563.153 539.589 563.469 539.485 563.741 539.277C564.021 539.061 564.241 538.765 564.401 538.389C564.561 538.013 564.641 537.581 564.641 537.093C564.641 536.197 564.233 535.749 563.417 535.749C563.065 535.749 562.749 535.853 562.469 536.061C562.189 536.261 561.965 536.537 561.797 536.889C561.637 537.241 561.557 537.645 561.557 538.101C561.557 538.581 561.665 538.949 561.881 539.205C562.097 539.461 562.401 539.589 562.793 539.589ZM516.504 559.261C516 559.261 515.524 559.193 515.076 559.057C514.636 558.929 514.244 558.733 513.9 558.469L514.224 557.761C514.584 558.017 514.94 558.201 515.292 558.313C515.652 558.425 516.04 558.481 516.456 558.481C517.608 558.481 518.184 557.889 518.184 556.705V555.673C518.016 556.041 517.752 556.333 517.392 556.549C517.04 556.757 516.636 556.861 516.18 556.861C515.644 556.861 515.18 556.737 514.788 556.489C514.396 556.241 514.092 555.901 513.876 555.469C513.668 555.029 513.564 554.521 513.564 553.945C513.564 553.369 513.668 552.865 513.876 552.433C514.092 551.993 514.396 551.653 514.788 551.413C515.18 551.173 515.644 551.053 516.18 551.053C516.636 551.053 517.04 551.157 517.392 551.365C517.752 551.573 518.016 551.857 518.184 552.217V551.161H519.132V556.573C519.132 557.469 518.908 558.141 518.46 558.589C518.02 559.037 517.368 559.261 516.504 559.261ZM516.36 556.069C516.92 556.069 517.364 555.877 517.692 555.493C518.02 555.109 518.184 554.593 518.184 553.945C518.184 553.297 518.02 552.785 517.692 552.409C517.364 552.025 516.92 551.833 516.36 551.833C515.808 551.833 515.368 552.025 515.04 552.409C514.712 552.785 514.548 553.297 514.548 553.945C514.548 554.593 514.712 555.109 515.04 555.493C515.368 555.877 515.808 556.069 516.36 556.069ZM520.979 556.993V551.161H521.927V552.145C522.103 551.793 522.347 551.525 522.659 551.341C522.971 551.149 523.335 551.053 523.751 551.053C524.663 551.053 525.247 551.449 525.503 552.241C525.679 551.873 525.939 551.585 526.283 551.377C526.627 551.161 527.023 551.053 527.471 551.053C528.767 551.053 529.415 551.821 529.415 553.357V556.993H528.443V553.405C528.443 552.869 528.347 552.477 528.155 552.229C527.971 551.973 527.663 551.845 527.231 551.845C526.759 551.845 526.383 552.013 526.103 552.349C525.823 552.685 525.683 553.133 525.683 553.693V556.993H524.711V553.405C524.711 552.869 524.615 552.477 524.423 552.229C524.239 551.973 523.931 551.845 523.499 551.845C523.019 551.845 522.639 552.013 522.359 552.349C522.087 552.685 521.951 553.133 521.951 553.693V556.993H520.979ZM533.068 557.101C532.668 557.101 532.308 557.025 531.988 556.873C531.676 556.713 531.428 556.497 531.244 556.225C531.06 555.953 530.968 555.649 530.968 555.313C530.968 554.889 531.076 554.553 531.292 554.305C531.516 554.057 531.88 553.881 532.384 553.777C532.896 553.665 533.592 553.609 534.472 553.609H534.856V553.237C534.856 552.741 534.752 552.385 534.544 552.169C534.344 551.945 534.02 551.833 533.572 551.833C533.22 551.833 532.88 551.885 532.552 551.989C532.224 552.085 531.888 552.245 531.544 552.469L531.208 551.761C531.512 551.545 531.88 551.373 532.312 551.245C532.752 551.117 533.172 551.053 533.572 551.053C534.324 551.053 534.88 551.237 535.24 551.605C535.608 551.973 535.792 552.545 535.792 553.321V556.993H534.88V555.985C534.728 556.329 534.492 556.601 534.172 556.801C533.86 557.001 533.492 557.101 533.068 557.101ZM533.224 556.369C533.704 556.369 534.096 556.205 534.4 555.877C534.704 555.541 534.856 555.117 534.856 554.605V554.245H534.484C533.836 554.245 533.324 554.277 532.948 554.341C532.58 554.397 532.32 554.501 532.168 554.653C532.024 554.797 531.952 554.997 531.952 555.253C531.952 555.581 532.064 555.849 532.288 556.057C532.52 556.265 532.832 556.369 533.224 556.369ZM537.476 549.709V548.617H538.676V549.709H537.476ZM537.596 556.993V551.161H538.568V556.993H537.596ZM542.173 557.101C541.581 557.101 541.133 556.929 540.829 556.585C540.533 556.233 540.385 555.725 540.385 555.061V548.533H541.357V554.989C541.357 555.845 541.697 556.273 542.377 556.273C542.577 556.273 542.757 556.249 542.917 556.201L542.893 557.017C542.645 557.073 542.405 557.101 542.173 557.101ZM543.897 556.993V555.769H545.121V556.993H543.897ZM548.986 557.101C548.402 557.101 547.898 556.977 547.474 556.729C547.05 556.473 546.722 556.117 546.49 555.661C546.266 555.197 546.154 554.657 546.154 554.041C546.154 553.113 546.406 552.385 546.91 551.857C547.414 551.321 548.106 551.053 548.986 551.053C549.346 551.053 549.702 551.117 550.054 551.245C550.406 551.373 550.698 551.553 550.93 551.785L550.594 552.493C550.362 552.269 550.106 552.105 549.826 552.001C549.554 551.897 549.294 551.845 549.046 551.845C548.438 551.845 547.97 552.037 547.642 552.421C547.314 552.797 547.15 553.341 547.15 554.053C547.15 554.749 547.314 555.301 547.642 555.709C547.97 556.109 548.438 556.309 549.046 556.309C549.294 556.309 549.554 556.257 549.826 556.153C550.106 556.049 550.362 555.881 550.594 555.649L550.93 556.357C550.698 556.589 550.402 556.773 550.042 556.909C549.69 557.037 549.338 557.101 548.986 557.101ZM554.375 557.101C553.807 557.101 553.315 556.977 552.899 556.729C552.483 556.481 552.159 556.133 551.927 555.685C551.703 555.229 551.591 554.693 551.591 554.077C551.591 553.461 551.703 552.929 551.927 552.481C552.159 552.025 552.483 551.673 552.899 551.425C553.315 551.177 553.807 551.053 554.375 551.053C554.935 551.053 555.423 551.177 555.839 551.425C556.263 551.673 556.587 552.025 556.811 552.481C557.043 552.929 557.159 553.461 557.159 554.077C557.159 554.693 557.043 555.229 556.811 555.685C556.587 556.133 556.263 556.481 555.839 556.729C555.423 556.977 554.935 557.101 554.375 557.101ZM554.375 556.321C554.919 556.321 555.355 556.129 555.683 555.745C556.011 555.353 556.175 554.797 556.175 554.077C556.175 553.349 556.011 552.793 555.683 552.409C555.355 552.025 554.919 551.833 554.375 551.833C553.823 551.833 553.383 552.025 553.055 552.409C552.735 552.793 552.575 553.349 552.575 554.077C552.575 554.797 552.735 555.353 553.055 555.745C553.383 556.129 553.823 556.321 554.375 556.321ZM558.643 556.993V551.161H559.591V552.145C559.767 551.793 560.011 551.525 560.323 551.341C560.635 551.149 560.999 551.053 561.415 551.053C562.327 551.053 562.911 551.449 563.167 552.241C563.343 551.873 563.603 551.585 563.947 551.377C564.291 551.161 564.687 551.053 565.135 551.053C566.431 551.053 567.079 551.821 567.079 553.357V556.993H566.107V553.405C566.107 552.869 566.011 552.477 565.819 552.229C565.635 551.973 565.327 551.845 564.895 551.845C564.423 551.845 564.047 552.013 563.767 552.349C563.487 552.685 563.347 553.133 563.347 553.693V556.993H562.375V553.405C562.375 552.869 562.279 552.477 562.087 552.229C561.903 551.973 561.595 551.845 561.163 551.845C560.683 551.845 560.303 552.013 560.023 552.349C559.751 552.685 559.615 553.133 559.615 553.693V556.993H558.643Z" fill="#F5C304"/>
<g opacity="0.5">
<path d="M196.902 426.061L196.005 428.804L198.829 428.21L196.902 426.061ZM201.651 447.405L197.61 428.211L197.121 428.314L201.162 447.508L201.651 447.405Z" fill="url(#paint4_linear_2600_83629)" fill-opacity="0.5"/>
<path d="M205.91 385.522L207.561 387.891L208.786 385.277L205.91 385.522ZM244.303 403.254L208.053 386.252L207.841 386.704L244.091 403.707L244.303 403.254Z" fill="url(#paint5_linear_2600_83629)" fill-opacity="0.5"/>
</g>
<defs>
<filter id="filter0_d_2600_83629" x="298.021" y="161.827" width="113.061" height="113.061" filterUnits="userSpaceOnUse" color-interpolation-filters="sRGB">
<feFlood flood-opacity="0" result="BackgroundImageFix"/>
<feColorMatrix in="SourceAlpha" type="matrix" values="0 0 0 0 0 0 0 0 0 0 0 0 0 0 0 0 0 0 127 0" result="hardAlpha"/>
<feMorphology radius="5" operator="dilate" in="SourceAlpha" result="effect1_dropShadow_2600_83629"/>
<feOffset dy="4"/>
<feGaussianBlur stdDeviation="10"/>
<feComposite in2="hardAlpha" operator="out"/>
<feColorMatrix type="matrix" values="0 0 0 0 0.721569 0 0 0 0 0.560784 0 0 0 0 0 0 0 0 0.2 0"/>
<feBlend mode="normal" in2="BackgroundImageFix" result="effect1_dropShadow_2600_83629"/>
<feBlend mode="normal" in="SourceGraphic" in2="effect1_dropShadow_2600_83629" result="shape"/>
</filter>
<linearGradient id="paint0_linear_2600_83629" x1="667.603" y1="245.888" x2="395.092" y2="210.979" gradientUnits="userSpaceOnUse">
<stop stop-color="#1391FF"/>
<stop offset="1" stop-color="#B88F00" stop-opacity="0.5"/>
</linearGradient>
<linearGradient id="paint1_linear_2600_83629" x1="719.459" y1="261.185" x2="764.019" y2="277.096" gradientUnits="userSpaceOnUse">
<stop stop-color="#1391FF" stop-opacity="0.5"/>
<stop offset="1" stop-color="#FF5C00" stop-opacity="0.5"/>
</linearGradient>
<linearGradient id="paint2_linear_2600_83629" x1="499.816" y1="219.424" x2="563.313" y2="193.696" gradientUnits="userSpaceOnUse">
<stop stop-color="#242E58"/>
<stop offset="0.369435" stop-color="#5F6580"/>
<stop offset="1" stop-color="#C4C4C4"/>
</linearGradient>
<linearGradient id="paint3_linear_2600_83629" x1="667.602" y1="299.939" x2="460.998" y2="407.993" gradientUnits="userSpaceOnUse">
<stop stop-color="#1391FF" stop-opacity="0.5"/>
<stop offset="1" stop-color="#B88F00" stop-opacity="0.5"/>
</linearGradient>
<linearGradient id="paint4_linear_2600_83629" x1="197.393" y1="428.392" x2="201.406" y2="447.456" gradientUnits="userSpaceOnUse">
<stop stop-color="#FF5C00"/>
<stop offset="0.871547" stop-color="#006AA6" stop-opacity="0.94"/>
</linearGradient>
<linearGradient id="paint5_linear_2600_83629" x1="342.895" y1="282.023" x2="247.575" y2="398.413" gradientUnits="userSpaceOnUse">
<stop stop-color="#CBAA00"/>
<stop offset="0.871547" stop-color="#006AA6" stop-opacity="0.94"/>
</linearGradient>
<clipPath id="clip0_2600_83629">
<rect width="31.5302" height="31.5302" fill="white" transform="translate(112.395 321.639)"/>
</clipPath>
</defs>
</svg>
