<svg width="159" height="159" viewBox="0 0 159 159" fill="none" xmlns="http://www.w3.org/2000/svg">
<circle cx="79.5" cy="79.5" r="79.5" fill="black"/>
<path fill-rule="evenodd" clip-rule="evenodd" d="M122.667 61.6667C122.667 49.7005 112.967 40 101.001 40H57.6675C45.7013 40 36.0008 49.7005 36.0008 61.6667V63.8332C36.0008 74.6028 44.7313 83.3333 55.501 83.3333H68.5011C72.091 83.3333 75.0011 86.2435 75.0011 89.8333C75.0011 93.4232 72.091 96.3333 68.5011 96.3333L46.8338 96.3333C40.8507 96.3333 36.0005 101.184 36.0005 107.167V113.667C36.0005 116.06 37.9406 118 40.3338 118C42.7271 118 44.6672 116.06 44.6672 113.667V111.5C44.6672 107.91 47.5773 105 51.1672 105H107.5C111.09 105 114 107.91 114 111.5V113.667C114 116.06 115.941 118 118.334 118C120.727 118 122.667 116.06 122.667 113.667V107.167C122.667 101.184 117.817 96.3333 111.834 96.3333L90.1678 96.3333C86.5779 96.3333 83.6678 93.4232 83.6678 89.8333C83.6678 86.2435 86.578 83.3333 90.1678 83.3333H103.168C113.937 83.3333 122.667 74.603 122.667 63.8335V61.6667ZM114.001 61.6667C114.001 54.487 108.181 48.6667 101.001 48.6667H57.6675C50.4878 48.6667 44.6675 54.487 44.6675 61.6667C44.6675 68.8464 50.4878 74.6667 57.6675 74.6667H101.001C108.181 74.6667 114.001 68.8464 114.001 61.6667Z" fill="url(#paint0_linear_899_5906)"/>
<rect x="81.9346" y="57.3333" width="17.3333" height="8.66667" rx="4.33333" fill="#5E34F5"/>
<circle cx="86.2679" cy="61.6667" r="4.33333" fill="#3C92FF"/>
<rect x="58.5347" y="57.3333" width="17.3333" height="8.66667" rx="4.33333" fill="#5E34F5"/>
<circle cx="71.5345" cy="61.6667" r="4.33333" fill="#3C92FF"/>
<mask id="mask0_899_5906" style="mask-type:alpha" maskUnits="userSpaceOnUse" x="36" y="40" width="87" height="78">
<path fill-rule="evenodd" clip-rule="evenodd" d="M122.667 61.6667C122.667 49.7005 112.967 40 101 40H57.667C45.7008 40 36.0003 49.7005 36.0003 61.6667V63.8332C36.0003 74.6028 44.7308 83.3333 55.5005 83.3333H68.5007C72.0905 83.3333 75.0007 86.2435 75.0007 89.8333C75.0007 93.4232 72.0905 96.3333 68.5007 96.3333L46.8333 96.3333C40.8503 96.3333 36 101.184 36 107.167V113.667C36 116.06 37.9401 118 40.3333 118C42.7266 118 44.6667 116.06 44.6667 113.667V111.5C44.6667 107.91 47.5768 105 51.1667 105H107.5C111.09 105 114 107.91 114 111.5V113.667C114 116.06 115.94 118 118.333 118C120.727 118 122.667 116.06 122.667 113.667V107.167C122.667 101.184 117.816 96.3333 111.833 96.3333L90.1673 96.3333C86.5775 96.3333 83.6673 93.4232 83.6673 89.8333C83.6673 86.2435 86.5775 83.3333 90.1673 83.3333H103.167C113.937 83.3333 122.667 74.603 122.667 63.8335V61.6667ZM114 61.6667C114 54.487 108.18 48.6667 101 48.6667H57.667C50.4873 48.6667 44.667 54.487 44.667 61.6667C44.667 68.8464 50.4873 74.6667 57.667 74.6667H101C108.18 74.6667 114 68.8464 114 61.6667Z" fill="url(#paint1_linear_899_5906)"/>
<rect x="81.9341" y="57.3333" width="17.3333" height="8.66667" rx="4.33333" fill="#5E34F5"/>
<circle cx="86.2674" cy="61.6667" r="4.33333" fill="#3C92FF"/>
<rect x="58.5342" y="57.3333" width="17.3333" height="8.66667" rx="4.33333" fill="#5E34F5"/>
<circle cx="71.534" cy="61.6667" r="4.33333" fill="#3C92FF"/>
</mask>
<g mask="url(#mask0_899_5906)">
<rect x="122.436" y="19.4584" width="31.0125" height="130.327" transform="rotate(46.4179 122.436 19.4584)" fill="white" fill-opacity="0.3"/>
</g>
<defs>
<linearGradient id="paint0_linear_899_5906" x1="35.8397" y1="40" x2="125.237" y2="40" gradientUnits="userSpaceOnUse">
<stop stop-color="#3C92FF"/>
<stop offset="0.432292" stop-color="#3C92FF"/>
<stop offset="0.744792" stop-color="#5E34F5"/>
</linearGradient>
<linearGradient id="paint1_linear_899_5906" x1="35.8392" y1="40" x2="125.236" y2="40" gradientUnits="userSpaceOnUse">
<stop stop-color="#3C92FF"/>
<stop offset="0.432292" stop-color="#3C92FF"/>
<stop offset="0.744792" stop-color="#5E34F5"/>
</linearGradient>
</defs>
</svg>
