<svg width="61" height="61" viewBox="0 0 61 61" fill="none" xmlns="http://www.w3.org/2000/svg">
<path d="M30.5 52C42.6503 52 52.5 42.1503 52.5 30C52.5 17.8497 42.6503 8 30.5 8C18.3497 8 8.5 17.8497 8.5 30C8.5 42.1503 18.3497 52 30.5 52Z" fill="#1A4478"/>
<path d="M47.3996 28.5996C48.0996 28.5996 48.6996 29.1996 48.6996 29.8996C48.6996 30.5996 48.0996 31.1996 47.3996 31.1996C46.6996 31.1996 46.0996 30.5996 46.0996 29.8996C46.0996 29.1996 46.6996 28.5996 47.3996 28.5996Z" fill="#4999FE"/>
<path d="M43.3 17.0996C43.8 17.5996 43.8 18.3996 43.3 18.8996C42.8 19.3996 42 19.3996 41.5 18.8996C41 18.3996 41 17.5996 41.5 17.0996C42 16.5996 42.8 16.5996 43.3 17.0996Z" fill="#4999FE"/>
<path d="M43.3 40.9004C43.8 41.4004 43.8 42.2004 43.3 42.7004C42.8 43.2004 42 43.2004 41.5 42.7004C41 42.2004 41 41.4004 41.5 40.9004C42 40.4004 42.8 40.4004 43.3 40.9004Z" fill="#4999FE"/>
<path d="M30.5002 11.7998C31.2002 11.7998 31.8002 12.3998 31.8002 13.0998C31.8002 13.7998 31.2002 14.3998 30.5002 14.3998C29.8002 14.3998 29.2002 13.7998 29.2002 13.0998C29.3002 12.2998 29.8002 11.7998 30.5002 11.7998Z" fill="#4999FE"/>
<path d="M30.5002 45.5C31.2002 45.5 31.8002 46.1 31.8002 46.8C31.8002 47.5 31.2002 48 30.5002 48C29.8002 48 29.2002 47.4 29.2002 46.7C29.3002 46.1 29.8002 45.5 30.5002 45.5Z" fill="#4999FE"/>
<path d="M19.5002 17.0996C20.0002 17.5996 20.0002 18.3996 19.5002 18.8996C19.0002 19.3996 18.2002 19.3996 17.7002 18.8996C17.2002 18.3996 17.2002 17.5996 17.7002 17.0996C18.2002 16.5996 19.0002 16.5996 19.5002 17.0996Z" fill="#4999FE"/>
<path d="M19.5002 40.9004C20.0002 41.4004 20.0002 42.2004 19.5002 42.7004C19.0002 43.2004 18.2002 43.2004 17.7002 42.7004C17.2002 42.2004 17.2002 41.4004 17.7002 40.9004C18.2002 40.4004 19.0002 40.4004 19.5002 40.9004Z" fill="#4999FE"/>
<path d="M13.5998 28.5996C14.2998 28.5996 14.8998 29.1996 14.8998 29.8996C14.8998 30.5996 14.2998 31.1996 13.5998 31.1996C12.8998 31.1996 12.2998 30.5996 12.2998 29.8996C12.3998 29.1996 12.8998 28.5996 13.5998 28.5996Z" fill="#4999FE"/>
<path d="M30.5 59.5C22.6 59.5 15.2 56.4 9.6 50.9C4.1 45.3 1 37.9 1 30C1 22.1 4.1 14.7 9.6 9.1C15.1 3.5 22.6 0.5 30.5 0.5C38.4 0.5 45.8 3.6 51.4 9.1C57 14.7 60 22.1 60 30C60 37.9 56.9 45.3 51.4 50.9C45.8 56.4 38.4 59.5 30.5 59.5ZM30.5 3C15.6 3 3.5 15.1 3.5 30C3.5 44.9 15.6 57 30.5 57C45.4 57 57.5 44.9 57.5 30C57.5 15.1 45.4 3 30.5 3Z" fill="#4999FE"/>
<path d="M30.4998 53.1998C17.6998 53.1998 7.2998 42.7998 7.2998 29.9998C7.2998 17.1998 17.6998 6.7998 30.4998 6.7998C43.2998 6.7998 53.6998 17.1998 53.6998 29.9998C53.6998 42.7998 43.2998 53.1998 30.4998 53.1998ZM30.4998 9.2998C19.0998 9.2998 9.7998 18.5998 9.7998 29.9998C9.7998 41.3998 19.0998 50.6998 30.4998 50.6998C41.8998 50.6998 51.1998 41.3998 51.1998 29.9998C51.1998 18.5998 41.8998 9.2998 30.4998 9.2998Z" fill="#4999FE"/>
<path d="M26.1002 36.0996C25.8002 36.0996 25.5002 35.9996 25.2002 35.6996C24.7002 35.1996 24.7002 34.3996 25.2002 33.8996L29.2002 29.8996V22.8996C29.2002 22.1996 29.8002 21.5996 30.5002 21.5996C31.2002 21.5996 31.8002 22.1996 31.8002 22.8996V30.3996C31.8002 30.6996 31.7002 30.9996 31.4002 31.2996L27.0002 35.7996C26.8002 35.9996 26.4002 36.0996 26.1002 36.0996Z" fill="#4999FE"/>
<path d="M59.3 60.5004H1.8C1.1 60.5004 0.5 59.9004 0.5 59.2004C0.5 58.5004 1.1 57.9004 1.8 57.9004H59.3C60 57.9004 60.6 58.5004 60.6 59.2004C60.5 59.9004 59.9 60.5004 59.3 60.5004Z" fill="#4999FE"/>
</svg>
