<svg width="28" height="28" viewBox="0 0 28 28" fill="none" xmlns="http://www.w3.org/2000/svg">
<path d="M10.8447 2.68799V4.83701H12.9559V2.68799H10.8447Z" fill="white" fill-opacity="0.75"/>
<path d="M15.0488 3.00439V5.15342H17.16V3.00439H15.0488Z" fill="white" fill-opacity="0.75"/>
<path d="M6.18164 5.77197V7.921H8.29283V5.77197H6.18164Z" fill="white" fill-opacity="0.75"/>
<path d="M12.6055 5.77197V7.921H14.7167V5.77197H12.6055Z" fill="white" fill-opacity="0.75"/>
<path d="M6.99609 9.35449V11.5035H9.10728V9.35449H6.99609Z" fill="white" fill-opacity="0.75"/>
<path d="M14.3652 9.35449V11.5035H16.4764V9.35449H14.3652Z" fill="white" fill-opacity="0.75"/>
<path d="M18.2354 8.69092V10.8399H20.3465V8.69092H18.2354Z" fill="white" fill-opacity="0.75"/>
<path d="M3.69434 12.9355V15.0858H5.80552V12.9355H3.69434Z" fill="white" fill-opacity="0.75"/>
<path d="M6.97559 12.9355V15.0858H9.08677V12.9355H6.97559Z" fill="white" fill-opacity="0.75"/>
<path d="M6.97559 16.5181V18.6671H9.08677V16.5181H6.97559Z" fill="white" fill-opacity="0.75"/>
<path d="M9.79004 16.5181V18.6671H11.9012V16.5181H9.79004Z" fill="white" fill-opacity="0.75"/>
<path d="M15.2354 24.6299V26.7789H17.3465V24.6299H15.2354Z" fill="white" fill-opacity="0.75"/>
<path d="M9.32422 5.77197V7.921H11.4354V5.77197H9.32422Z" fill="white" fill-opacity="0.75"/>
<path d="M19.3135 5.27588V7.42491H21.4247V5.27588H19.3135Z" fill="white" fill-opacity="0.75"/>
<path d="M4.16016 9.35449V11.5035H6.27134V9.35449H4.16016Z" fill="white" fill-opacity="0.75"/>
<path d="M21.5146 9.22803V11.3771H23.6258V9.22803H21.5146Z" fill="white" fill-opacity="0.75"/>
<path d="M10.7422 9.35449V11.5035H12.8534V9.35449H10.7422Z" fill="white" fill-opacity="0.75"/>
<path d="M15.4209 6.21729V8.36631H17.5321V6.21729H15.4209Z" fill="white" fill-opacity="0.75"/>
<path d="M10.0703 12.9253V15.0755H12.1815V12.9253H10.0703Z" fill="white" fill-opacity="0.75"/>
<path d="M3.66406 16.46V18.609H5.77525V16.46H3.66406Z" fill="white" fill-opacity="0.75"/>
<path d="M6.41699 19.7202V21.8692H8.52818V19.7202H6.41699Z" fill="white" fill-opacity="0.75"/>
<path d="M9.51074 20.4121V22.5611H11.6219V20.4121H9.51074Z" fill="white" fill-opacity="0.75"/>
<path d="M11.6816 23.3311V25.4801H13.7928V23.3311H11.6816Z" fill="white" fill-opacity="0.75"/>
<path d="M23.3835 20.936C23.705 20.422 23.9631 19.8788 24.1585 19.3058C24.3533 18.7329 24.4507 18.1471 24.4507 17.5498C24.4507 15.8892 23.8824 14.4786 22.7453 13.3162C21.6087 12.1538 20.2266 11.5723 18.5982 11.5723C16.9698 11.5723 15.5865 12.1513 14.4463 13.3083C13.3074 14.4658 12.7373 15.8734 12.7373 17.5303C12.7373 19.1866 13.3086 20.596 14.4505 21.7554C15.5919 22.9159 16.9788 23.495 18.6096 23.495C19.1964 23.495 19.7712 23.4019 20.3335 23.2152C20.897 23.0273 21.4187 22.759 21.9015 22.408L26.5183 27.1075L28.0002 25.5996L23.3835 20.936ZM21.2824 20.2748C20.5474 21.02 19.6493 21.3916 18.5892 21.3916C17.5304 21.3916 16.634 21.0181 15.9026 20.27C15.1706 19.5218 14.8043 18.6075 14.8043 17.5297C14.8043 16.4506 15.1724 15.5382 15.9074 14.7943C16.6424 14.0492 17.5393 13.6763 18.5994 13.6763C19.6595 13.6763 20.5546 14.051 21.2866 14.7992C22.018 15.5473 22.3838 16.4603 22.3838 17.5394C22.3844 18.6185 22.0169 19.5297 21.2824 20.2748Z" fill="white" fill-opacity="0.75"/>
<path d="M13.7637 0C6.16266 0 0 6.27251 0 14.0103C0 21.4909 5.75871 27.601 13.0083 28V25.9702C6.85882 25.5736 1.99048 20.371 1.99048 14.0103C1.99048 7.39173 7.26158 2.02616 13.7637 2.02616C19.4459 2.02616 24.1869 6.12348 25.293 11.5724H27.32C26.1864 4.99574 20.549 0 13.7637 0Z" fill="white" fill-opacity="0.75"/>
</svg>
