<svg width="32" height="32" viewBox="0 0 32 32" fill="none" xmlns="http://www.w3.org/2000/svg">
<path d="M29.5667 13.1L28.8 11.4333L27.1333 10.6667L28.8 9.9L29.5667 8.23333L30.3333 9.9L32 10.6667L30.3333 11.4333L29.5667 13.1ZM25.3333 7.26667L24.1667 4.8L21.7 3.63333L24.1667 2.46667L25.3333 0L26.5 2.46667L28.9667 3.63333L26.5 4.8L25.3333 7.26667ZM12 29.3333C11.2444 29.3333 10.6056 29.0722 10.0833 28.55C9.56111 28.0278 9.3 27.3889 9.3 26.6333H14.7C14.7 27.3889 14.4389 28.0278 13.9167 28.55C13.3944 29.0722 12.7556 29.3333 12 29.3333ZM6.6 24.5667V22.5667H17.4V24.5667H6.6ZM6.76667 20.5333C5.3 19.5778 4.13889 18.3833 3.28333 16.95C2.42778 15.5167 2 13.9 2 12.1C2 9.38889 2.98889 7.04444 4.96667 5.06667C6.94444 3.08889 9.28889 2.1 12 2.1C14.7111 2.1 17.0556 3.08889 19.0333 5.06667C21.0111 7.04444 22 9.38889 22 12.1C22 13.9 21.5778 15.5167 20.7333 16.95C19.8889 18.3833 18.7222 19.5778 17.2333 20.5333H6.76667ZM7.5 18.5333H16.5333C17.6 17.8222 18.4444 16.9 19.0667 15.7667C19.6889 14.6333 20 13.4111 20 12.1C20 9.9 19.2167 8.01667 17.65 6.45C16.0833 4.88333 14.2 4.1 12 4.1C9.8 4.1 7.91667 4.88333 6.35 6.45C4.78333 8.01667 4 9.9 4 12.1C4 13.4111 4.31111 14.6333 4.93333 15.7667C5.55556 16.9 6.41111 17.8222 7.5 18.5333Z" fill="white" fill-opacity="0.75"/>
</svg>
