<svg width="23" height="20" viewBox="0 0 23 20" fill="none" xmlns="http://www.w3.org/2000/svg">
<path fill-rule="evenodd" clip-rule="evenodd" d="M22.2223 5.55555C22.2223 2.48731 19.735 0 16.6668 0H5.55565C2.4874 0 9.39002e-05 2.48731 9.39002e-05 5.55555V6.11108C9.39002e-05 8.87252 2.23869 11.1111 5.00013 11.1111L8.33349 11.1111C9.25396 11.1111 10.0002 11.8573 10.0002 12.7778C10.0002 13.6982 9.25396 14.4444 8.33349 14.4444H2.77777C1.24365 14.4444 0 15.6881 0 17.2222V18.8889C0 19.5025 0.497453 20 1.11109 20C1.72473 20 2.22218 19.5025 2.22218 18.8889V18.3333C2.22218 17.4128 2.96838 16.6667 3.88885 16.6667H18.3333C19.2538 16.6667 20 17.4128 20 18.3333V18.8889C20 19.5025 20.4974 20 21.1111 20C21.7248 20 22.2222 19.5025 22.2222 18.8889V17.2222C22.2222 15.6881 20.9786 14.4444 19.4445 14.4444H13.889C12.9686 14.4444 12.2224 13.6982 12.2224 12.7778C12.2224 11.8573 12.9686 11.1111 13.889 11.1111L17.2223 11.1111C19.9838 11.1111 22.2223 8.87255 22.2223 6.11114V5.55555ZM20 5.55556C20 3.71461 18.5076 2.22223 16.6667 2.22223H5.55558C3.71463 2.22223 2.22225 3.71461 2.22225 5.55556C2.22225 7.39651 3.71464 8.8889 5.55559 8.8889H16.6667C18.5076 8.8889 20 7.39651 20 5.55556Z" fill="url(#paint0_linear_840_3016)"/>
<rect x="11.7783" y="4.44443" width="4.44444" height="2.22222" rx="1.11111" fill="#5E34F5"/>
<ellipse cx="12.8894" cy="5.55554" rx="1.11111" ry="1.11111" fill="#3C92FF"/>
<rect x="5.77832" y="4.44444" width="4.44444" height="2.22222" rx="1.11111" fill="#5E34F5"/>
<ellipse cx="9.11209" cy="5.55554" rx="1.11111" ry="1.11111" fill="#3C92FF"/>
<mask id="mask0_840_3016" style="mask-type:alpha" maskUnits="userSpaceOnUse" x="0" y="0" width="23" height="20">
<path fill-rule="evenodd" clip-rule="evenodd" d="M22.2223 5.55555C22.2223 2.48731 19.735 0 16.6667 0H5.55561C2.48736 0 5.32101e-05 2.48731 5.32101e-05 5.55555V6.11106C5.32101e-05 8.87251 2.23865 11.1111 5.00011 11.1111L8.33349 11.1111C9.25396 11.1111 10.0002 11.8573 10.0002 12.7778C10.0002 13.6982 9.25397 14.4444 8.33349 14.4444H2.77777C1.24365 14.4444 0 15.6881 0 17.2222V18.8889C0 19.5025 0.497459 20 1.11111 20C1.72475 20 2.22221 19.5025 2.22221 18.8889V18.3333C2.22221 17.4128 2.9684 16.6667 3.88888 16.6667H18.3333C19.2538 16.6667 20 17.4128 20 18.3333V18.8889C20 19.5025 20.4975 20 21.1111 20C21.7248 20 22.2222 19.5025 22.2222 18.8889V17.2222C22.2222 15.6881 20.9786 14.4444 19.4445 14.4444H13.889C12.9686 14.4444 12.2224 13.6982 12.2224 12.7778C12.2224 11.8573 12.9686 11.1111 13.889 11.1111L17.2223 11.1111C19.9837 11.1111 22.2223 8.87256 22.2223 6.11116V5.55555ZM20 5.55556C20 3.71461 18.5077 2.22223 16.6667 2.22223H5.5556C3.71465 2.22223 2.22227 3.71461 2.22227 5.55556C2.22227 7.39651 3.71465 8.8889 5.5556 8.8889H16.6667C18.5077 8.8889 20 7.39651 20 5.55556Z" fill="url(#paint1_linear_840_3016)"/>
<rect x="11.7783" y="4.44443" width="4.44444" height="2.22222" rx="1.11111" fill="#5E34F5"/>
<ellipse cx="12.8894" cy="5.55554" rx="1.11111" ry="1.11111" fill="#3C92FF"/>
<rect x="5.77832" y="4.44444" width="4.44444" height="2.22222" rx="1.11111" fill="#5E34F5"/>
<ellipse cx="9.11111" cy="5.55554" rx="1.11111" ry="1.11111" fill="#3C92FF"/>
</mask>
<g mask="url(#mask0_840_3016)">
<rect x="22.1631" y="-5.26707" width="7.95192" height="33.4172" transform="rotate(46.4179 22.1631 -5.26707)" fill="white" fill-opacity="0.3"/>
</g>
<defs>
<linearGradient id="paint0_linear_840_3016" x1="-0.0412395" y1="0" x2="22.881" y2="0" gradientUnits="userSpaceOnUse">
<stop stop-color="#3C92FF"/>
<stop offset="0.432292" stop-color="#3C92FF"/>
<stop offset="0.744792" stop-color="#5E34F5"/>
</linearGradient>
<linearGradient id="paint1_linear_840_3016" x1="-0.0412395" y1="0" x2="22.881" y2="0" gradientUnits="userSpaceOnUse">
<stop stop-color="#3C92FF"/>
<stop offset="0.432292" stop-color="#3C92FF"/>
<stop offset="0.744792" stop-color="#5E34F5"/>
</linearGradient>
</defs>
</svg>
