<svg width="782" height="420" viewBox="0 0 782 420" fill="none" xmlns="http://www.w3.org/2000/svg">
<mask id="mask0_366_10631" style="mask-type:alpha" maskUnits="userSpaceOnUse" x="0" y="-1" width="782" height="421">
<rect x="1" width="780" height="419" fill="#D9D9D9"/>
<rect x="0.5" y="-0.5" width="781" height="420" stroke="#FF3E3E" stroke-opacity="0.3"/>
</mask>
<g mask="url(#mask0_366_10631)">
<circle cx="137.374" cy="56.1607" r="30.1541" fill="#CBAA00" fill-opacity="0.15" stroke="#F5C304" stroke-width="0.5"/>
<path d="M137.373 54.847C139.115 54.847 140.786 55.5391 142.018 56.771C143.25 58.0029 143.942 59.6737 143.942 61.4158V69.2984H130.804V61.4158C130.804 59.6737 131.496 58.0029 132.728 56.771C133.96 55.5391 135.631 54.847 137.373 54.847ZM128.555 58.7962C128.346 59.5014 128.223 60.2292 128.187 60.9639L128.177 61.4158V69.2984H124.236V63.3865C124.235 62.2534 124.653 61.1602 125.41 60.3165C126.166 59.4727 127.207 58.9379 128.333 58.8146L128.557 58.7962H128.555ZM146.191 58.7962C147.36 58.8674 148.458 59.3821 149.261 60.2351C150.064 61.0881 150.511 62.2152 150.511 63.3865V69.2984H146.57V61.4158C146.57 60.5054 146.438 59.6265 146.191 58.7962ZM128.834 50.9057C129.705 50.9057 130.54 51.2518 131.156 51.8677C131.772 52.4837 132.118 53.3191 132.118 54.1901C132.118 55.0612 131.772 55.8966 131.156 56.5126C130.54 57.1285 129.705 57.4745 128.834 57.4745C127.963 57.4745 127.127 57.1285 126.511 56.5126C125.895 55.8966 125.549 55.0612 125.549 54.1901C125.549 53.3191 125.895 52.4837 126.511 51.8677C127.127 51.2518 127.963 50.9057 128.834 50.9057ZM145.913 50.9057C146.784 50.9057 147.619 51.2518 148.235 51.8677C148.851 52.4837 149.197 53.3191 149.197 54.1901C149.197 55.0612 148.851 55.8966 148.235 56.5126C147.619 57.1285 146.784 57.4745 145.913 57.4745C145.042 57.4745 144.206 57.1285 143.59 56.5126C142.974 55.8966 142.628 55.0612 142.628 54.1901C142.628 53.3191 142.974 52.4837 143.59 51.8677C144.206 51.2518 145.042 50.9057 145.913 50.9057ZM137.373 43.0232C138.767 43.0232 140.104 43.5768 141.089 44.5624C142.075 45.5479 142.628 46.8845 142.628 48.2782C142.628 49.672 142.075 51.0086 141.089 51.9941C140.104 52.9796 138.767 53.5333 137.373 53.5333C135.979 53.5333 134.643 52.9796 133.657 51.9941C132.672 51.0086 132.118 49.672 132.118 48.2782C132.118 46.8845 132.672 45.5479 133.657 44.5624C134.643 43.5768 135.979 43.0232 137.373 43.0232Z" fill="#F5C304"/>
<path d="M106.332 105.321V96.8613H111.672V97.6893H107.292V100.617H111.42V101.445H107.292V104.493H111.672V105.321H106.332ZM113.196 105.321V99.4893H114.144V100.485C114.336 100.117 114.608 99.8413 114.96 99.6573C115.312 99.4733 115.708 99.3813 116.148 99.3813C117.532 99.3813 118.224 100.149 118.224 101.685V105.321H117.252V101.745C117.252 101.201 117.144 100.805 116.928 100.557C116.72 100.301 116.384 100.173 115.92 100.173C115.384 100.173 114.956 100.341 114.636 100.677C114.324 101.005 114.168 101.445 114.168 101.997V105.321H113.196ZM122.596 107.589C122.092 107.589 121.616 107.521 121.168 107.385C120.728 107.257 120.336 107.061 119.992 106.797L120.316 106.089C120.676 106.345 121.032 106.529 121.384 106.641C121.744 106.753 122.132 106.809 122.548 106.809C123.7 106.809 124.276 106.217 124.276 105.033V104.001C124.108 104.369 123.844 104.661 123.484 104.877C123.132 105.085 122.728 105.189 122.272 105.189C121.736 105.189 121.272 105.065 120.88 104.817C120.488 104.569 120.184 104.229 119.968 103.797C119.76 103.357 119.656 102.849 119.656 102.273C119.656 101.697 119.76 101.193 119.968 100.761C120.184 100.321 120.488 99.9813 120.88 99.7413C121.272 99.5013 121.736 99.3813 122.272 99.3813C122.728 99.3813 123.132 99.4853 123.484 99.6933C123.844 99.9013 124.108 100.185 124.276 100.545V99.4893H125.224V104.901C125.224 105.797 125 106.469 124.552 106.917C124.112 107.365 123.46 107.589 122.596 107.589ZM122.452 104.397C123.012 104.397 123.456 104.205 123.784 103.821C124.112 103.437 124.276 102.921 124.276 102.273C124.276 101.625 124.112 101.113 123.784 100.737C123.456 100.353 123.012 100.161 122.452 100.161C121.9 100.161 121.46 100.353 121.132 100.737C120.804 101.113 120.64 101.625 120.64 102.273C120.64 102.921 120.804 103.437 121.132 103.821C121.46 104.205 121.9 104.397 122.452 104.397ZM126.927 98.0373V96.9453H128.127V98.0373H126.927ZM127.047 105.321V99.4893H128.019V105.321H127.047ZM129.837 105.321V99.4893H130.785V100.485C130.977 100.117 131.249 99.8413 131.601 99.6573C131.953 99.4733 132.349 99.3813 132.789 99.3813C134.173 99.3813 134.865 100.149 134.865 101.685V105.321H133.893V101.745C133.893 101.201 133.785 100.805 133.569 100.557C133.361 100.301 133.025 100.173 132.561 100.173C132.025 100.173 131.597 100.341 131.277 100.677C130.965 101.005 130.809 101.445 130.809 101.997V105.321H129.837ZM139.285 105.429C138.365 105.429 137.637 105.161 137.101 104.625C136.565 104.081 136.297 103.345 136.297 102.417C136.297 101.817 136.417 101.289 136.657 100.833C136.897 100.369 137.225 100.013 137.641 99.7653C138.065 99.5093 138.553 99.3813 139.105 99.3813C139.897 99.3813 140.517 99.6373 140.965 100.149C141.413 100.653 141.637 101.349 141.637 102.237V102.609H137.245C137.277 103.273 137.469 103.781 137.821 104.133C138.173 104.477 138.661 104.649 139.285 104.649C139.637 104.649 139.973 104.597 140.293 104.493C140.613 104.381 140.917 104.201 141.205 103.953L141.541 104.637C141.277 104.885 140.941 105.081 140.533 105.225C140.125 105.361 139.709 105.429 139.285 105.429ZM139.129 100.101C138.577 100.101 138.141 100.273 137.821 100.617C137.501 100.961 137.313 101.413 137.257 101.973H140.797C140.773 101.381 140.617 100.921 140.329 100.593C140.049 100.265 139.649 100.101 139.129 100.101ZM145.672 105.429C144.752 105.429 144.024 105.161 143.488 104.625C142.952 104.081 142.684 103.345 142.684 102.417C142.684 101.817 142.804 101.289 143.044 100.833C143.284 100.369 143.612 100.013 144.028 99.7653C144.452 99.5093 144.94 99.3813 145.492 99.3813C146.284 99.3813 146.904 99.6373 147.352 100.149C147.8 100.653 148.024 101.349 148.024 102.237V102.609H143.632C143.664 103.273 143.856 103.781 144.208 104.133C144.56 104.477 145.048 104.649 145.672 104.649C146.024 104.649 146.36 104.597 146.68 104.493C147 104.381 147.304 104.201 147.592 103.953L147.928 104.637C147.664 104.885 147.328 105.081 146.92 105.225C146.512 105.361 146.096 105.429 145.672 105.429ZM145.516 100.101C144.964 100.101 144.528 100.273 144.208 100.617C143.888 100.961 143.7 101.413 143.644 101.973H147.184C147.16 101.381 147.004 100.921 146.716 100.593C146.436 100.265 146.036 100.101 145.516 100.101ZM149.43 105.321V99.4893H150.378V100.533C150.69 99.8293 151.33 99.4413 152.298 99.3693L152.646 99.3333L152.718 100.173L152.106 100.245C151.554 100.293 151.134 100.469 150.846 100.773C150.558 101.069 150.414 101.477 150.414 101.997V105.321H149.43ZM153.611 98.0373V96.9453H154.811V98.0373H153.611ZM153.731 105.321V99.4893H154.703V105.321H153.731ZM156.52 105.321V99.4893H157.468V100.485C157.66 100.117 157.932 99.8413 158.284 99.6573C158.636 99.4733 159.032 99.3813 159.472 99.3813C160.856 99.3813 161.548 100.149 161.548 101.685V105.321H160.576V101.745C160.576 101.201 160.468 100.805 160.252 100.557C160.044 100.301 159.708 100.173 159.244 100.173C158.708 100.173 158.28 100.341 157.96 100.677C157.648 101.005 157.492 101.445 157.492 101.997V105.321H156.52ZM165.92 107.589C165.416 107.589 164.94 107.521 164.492 107.385C164.052 107.257 163.66 107.061 163.316 106.797L163.64 106.089C164 106.345 164.356 106.529 164.708 106.641C165.068 106.753 165.456 106.809 165.872 106.809C167.024 106.809 167.6 106.217 167.6 105.033V104.001C167.432 104.369 167.168 104.661 166.808 104.877C166.456 105.085 166.052 105.189 165.596 105.189C165.06 105.189 164.596 105.065 164.204 104.817C163.812 104.569 163.508 104.229 163.292 103.797C163.084 103.357 162.98 102.849 162.98 102.273C162.98 101.697 163.084 101.193 163.292 100.761C163.508 100.321 163.812 99.9813 164.204 99.7413C164.596 99.5013 165.06 99.3813 165.596 99.3813C166.052 99.3813 166.456 99.4853 166.808 99.6933C167.168 99.9013 167.432 100.185 167.6 100.545V99.4893H168.548V104.901C168.548 105.797 168.324 106.469 167.876 106.917C167.436 107.365 166.784 107.589 165.92 107.589ZM165.776 104.397C166.336 104.397 166.78 104.205 167.108 103.821C167.436 103.437 167.6 102.921 167.6 102.273C167.6 101.625 167.436 101.113 167.108 100.737C166.78 100.353 166.336 100.161 165.776 100.161C165.224 100.161 164.784 100.353 164.456 100.737C164.128 101.113 163.964 101.625 163.964 102.273C163.964 102.921 164.128 103.437 164.456 103.821C164.784 104.205 165.224 104.397 165.776 104.397ZM105.845 121.321V112.861H108.701C110.069 112.861 111.125 113.225 111.869 113.953C112.613 114.673 112.985 115.717 112.985 117.085C112.985 118.453 112.613 119.501 111.869 120.229C111.125 120.957 110.069 121.321 108.701 121.321H105.845ZM106.829 120.481H108.629C110.837 120.481 111.941 119.349 111.941 117.085C111.941 114.829 110.837 113.701 108.629 113.701H106.829V120.481ZM117.248 121.429C116.328 121.429 115.6 121.161 115.064 120.625C114.528 120.081 114.26 119.345 114.26 118.417C114.26 117.817 114.38 117.289 114.62 116.833C114.86 116.369 115.188 116.013 115.604 115.765C116.028 115.509 116.516 115.381 117.068 115.381C117.86 115.381 118.48 115.637 118.928 116.149C119.376 116.653 119.6 117.349 119.6 118.237V118.609H115.208C115.24 119.273 115.432 119.781 115.784 120.133C116.136 120.477 116.624 120.649 117.248 120.649C117.6 120.649 117.936 120.597 118.256 120.493C118.576 120.381 118.88 120.201 119.168 119.953L119.504 120.637C119.24 120.885 118.904 121.081 118.496 121.225C118.088 121.361 117.672 121.429 117.248 121.429ZM117.092 116.101C116.54 116.101 116.104 116.273 115.784 116.617C115.464 116.961 115.276 117.413 115.22 117.973H118.76C118.736 117.381 118.58 116.921 118.292 116.593C118.012 116.265 117.612 116.101 117.092 116.101ZM121.006 123.481V115.489H121.954V116.533C122.13 116.173 122.39 115.893 122.734 115.693C123.086 115.485 123.494 115.381 123.958 115.381C124.478 115.381 124.93 115.505 125.314 115.753C125.706 115.993 126.006 116.341 126.214 116.797C126.43 117.245 126.538 117.781 126.538 118.405C126.538 119.021 126.43 119.557 126.214 120.013C126.006 120.461 125.706 120.809 125.314 121.057C124.93 121.305 124.478 121.429 123.958 121.429C123.51 121.429 123.11 121.329 122.758 121.129C122.406 120.929 122.146 120.653 121.978 120.301V123.481H121.006ZM123.754 120.649C124.298 120.649 124.734 120.457 125.062 120.073C125.39 119.681 125.554 119.125 125.554 118.405C125.554 117.677 125.39 117.121 125.062 116.737C124.734 116.353 124.298 116.161 123.754 116.161C123.21 116.161 122.774 116.353 122.446 116.737C122.118 117.121 121.954 117.677 121.954 118.405C121.954 119.125 122.118 119.681 122.446 120.073C122.774 120.457 123.21 120.649 123.754 120.649ZM129.839 121.429C129.439 121.429 129.079 121.353 128.759 121.201C128.447 121.041 128.199 120.825 128.015 120.553C127.831 120.281 127.739 119.977 127.739 119.641C127.739 119.217 127.847 118.881 128.063 118.633C128.287 118.385 128.651 118.209 129.155 118.105C129.667 117.993 130.363 117.937 131.243 117.937H131.627V117.565C131.627 117.069 131.523 116.713 131.315 116.497C131.115 116.273 130.791 116.161 130.343 116.161C129.991 116.161 129.651 116.213 129.323 116.317C128.995 116.413 128.659 116.573 128.315 116.797L127.979 116.089C128.283 115.873 128.651 115.701 129.083 115.573C129.523 115.445 129.943 115.381 130.343 115.381C131.095 115.381 131.651 115.565 132.011 115.933C132.379 116.301 132.563 116.873 132.563 117.649V121.321H131.651V120.313C131.499 120.657 131.263 120.929 130.943 121.129C130.631 121.329 130.263 121.429 129.839 121.429ZM129.995 120.697C130.475 120.697 130.867 120.533 131.171 120.205C131.475 119.869 131.627 119.445 131.627 118.933V118.573H131.255C130.607 118.573 130.095 118.605 129.719 118.669C129.351 118.725 129.091 118.829 128.939 118.981C128.795 119.125 128.723 119.325 128.723 119.581C128.723 119.909 128.835 120.177 129.059 120.385C129.291 120.593 129.603 120.697 129.995 120.697ZM134.366 121.321V115.489H135.314V116.533C135.626 115.829 136.266 115.441 137.234 115.369L137.582 115.333L137.654 116.173L137.042 116.245C136.49 116.293 136.07 116.469 135.782 116.773C135.494 117.069 135.35 117.477 135.35 117.997V121.321H134.366ZM141.323 121.429C140.635 121.429 140.119 121.249 139.775 120.889C139.431 120.521 139.259 119.993 139.259 119.305V116.245H138.119V115.489H139.259V113.701H140.231V115.489H142.079V116.245H140.231V119.209C140.231 119.665 140.327 120.013 140.519 120.253C140.711 120.485 141.023 120.601 141.455 120.601C141.583 120.601 141.711 120.585 141.839 120.553C141.967 120.521 142.083 120.489 142.187 120.457L142.355 121.201C142.251 121.257 142.099 121.309 141.899 121.357C141.699 121.405 141.507 121.429 141.323 121.429ZM143.202 121.321V115.489H144.15V116.473C144.326 116.121 144.57 115.853 144.882 115.669C145.194 115.477 145.558 115.381 145.974 115.381C146.886 115.381 147.47 115.777 147.726 116.569C147.902 116.201 148.162 115.913 148.506 115.705C148.85 115.489 149.246 115.381 149.694 115.381C150.99 115.381 151.638 116.149 151.638 117.685V121.321H150.666V117.733C150.666 117.197 150.57 116.805 150.378 116.557C150.194 116.301 149.886 116.173 149.454 116.173C148.982 116.173 148.606 116.341 148.326 116.677C148.046 117.013 147.906 117.461 147.906 118.021V121.321H146.934V117.733C146.934 117.197 146.838 116.805 146.646 116.557C146.462 116.301 146.154 116.173 145.722 116.173C145.242 116.173 144.862 116.341 144.582 116.677C144.31 117.013 144.174 117.461 144.174 118.021V121.321H143.202ZM156.084 121.429C155.164 121.429 154.436 121.161 153.9 120.625C153.364 120.081 153.096 119.345 153.096 118.417C153.096 117.817 153.216 117.289 153.456 116.833C153.696 116.369 154.024 116.013 154.44 115.765C154.864 115.509 155.352 115.381 155.904 115.381C156.696 115.381 157.316 115.637 157.764 116.149C158.212 116.653 158.436 117.349 158.436 118.237V118.609H154.044C154.076 119.273 154.268 119.781 154.62 120.133C154.972 120.477 155.46 120.649 156.084 120.649C156.436 120.649 156.772 120.597 157.092 120.493C157.412 120.381 157.716 120.201 158.004 119.953L158.34 120.637C158.076 120.885 157.74 121.081 157.332 121.225C156.924 121.361 156.508 121.429 156.084 121.429ZM155.928 116.101C155.376 116.101 154.94 116.273 154.62 116.617C154.3 116.961 154.112 117.413 154.056 117.973H157.596C157.572 117.381 157.416 116.921 157.128 116.593C156.848 116.265 156.448 116.101 155.928 116.101ZM159.842 121.321V115.489H160.79V116.485C160.982 116.117 161.254 115.841 161.606 115.657C161.958 115.473 162.354 115.381 162.794 115.381C164.178 115.381 164.87 116.149 164.87 117.685V121.321H163.898V117.745C163.898 117.201 163.79 116.805 163.574 116.557C163.366 116.301 163.03 116.173 162.566 116.173C162.03 116.173 161.602 116.341 161.282 116.677C160.97 117.005 160.814 117.445 160.814 117.997V121.321H159.842ZM169.003 121.429C168.315 121.429 167.799 121.249 167.455 120.889C167.111 120.521 166.939 119.993 166.939 119.305V116.245H165.799V115.489H166.939V113.701H167.911V115.489H169.759V116.245H167.911V119.209C167.911 119.665 168.007 120.013 168.199 120.253C168.391 120.485 168.703 120.601 169.135 120.601C169.263 120.601 169.391 120.585 169.519 120.553C169.647 120.521 169.763 120.489 169.867 120.457L170.035 121.201C169.931 121.257 169.779 121.309 169.579 121.357C169.379 121.405 169.187 121.429 169.003 121.429Z" fill="#F5C304"/>
<path d="M335.563 129.356L329.999 122.72L327.034 130.857L335.563 129.356ZM177.656 72.6305L328.964 127.75L329.478 126.341L178.169 71.2211L177.656 72.6305Z" fill="#CBAA00" fill-opacity="0.5"/>
<path d="M88 297L94.3399 291.1L86.0608 288.56L88 297ZM136.657 135.892L89.2633 290.327L90.6973 290.767L138.091 136.332L136.657 135.892Z" fill="url(#paint0_linear_366_10631)" fill-opacity="0.5"/>
<g filter="url(#filter0_d_366_10631)">
<circle cx="380.607" cy="138.364" r="31.5302" fill="#FF3D00"/>
<circle cx="380.607" cy="138.364" r="30.5302" stroke="#FF6433" stroke-width="2"/>
</g>
<path d="M364.842 126.103V150.626C364.842 152.553 366.401 154.13 368.345 154.13H392.869C394.796 154.13 396.372 152.553 396.372 150.626V126.103C396.372 124.176 394.796 122.599 392.869 122.599H368.345C366.401 122.599 364.842 124.176 364.842 126.103ZM385.862 133.109C385.862 136.017 383.515 138.364 380.607 138.364C377.699 138.364 375.352 136.017 375.352 133.109C375.352 130.202 377.699 127.854 380.607 127.854C383.515 127.854 385.862 130.202 385.862 133.109ZM370.097 147.123C370.097 143.62 377.104 141.693 380.607 141.693C384.11 141.693 391.117 143.62 391.117 147.123V148.875H370.097V147.123Z" fill="#6B1D04"/>
<path d="M368.481 188.651L364.785 180.191H365.841L368.949 187.403L372.045 180.191H373.077L369.369 188.651H368.481ZM373.863 181.367V180.275H375.063V181.367H373.863ZM373.983 188.651V182.819H374.955V188.651H373.983ZM378.74 188.759C378.284 188.759 377.852 188.695 377.444 188.567C377.036 188.439 376.7 188.259 376.436 188.027L376.748 187.343C377.036 187.575 377.352 187.747 377.696 187.859C378.048 187.963 378.404 188.015 378.764 188.015C379.22 188.015 379.564 187.931 379.796 187.763C380.028 187.595 380.144 187.367 380.144 187.079C380.144 186.855 380.068 186.679 379.916 186.551C379.764 186.415 379.524 186.311 379.196 186.239L378.104 185.999C377.112 185.783 376.616 185.271 376.616 184.463C376.616 183.935 376.824 183.511 377.24 183.191C377.664 182.871 378.216 182.711 378.896 182.711C379.296 182.711 379.676 182.775 380.036 182.903C380.404 183.023 380.708 183.203 380.948 183.443L380.624 184.127C380.392 183.911 380.12 183.747 379.808 183.635C379.504 183.515 379.2 183.455 378.896 183.455C378.448 183.455 378.108 183.543 377.876 183.719C377.644 183.895 377.528 184.127 377.528 184.415C377.528 184.863 377.824 185.151 378.416 185.279L379.508 185.507C380.02 185.619 380.408 185.799 380.672 186.047C380.936 186.287 381.068 186.615 381.068 187.031C381.068 187.567 380.856 187.991 380.432 188.303C380.008 188.607 379.444 188.759 378.74 188.759ZM382.549 188.651V180.191H383.521V183.779C383.713 183.427 383.981 183.163 384.325 182.987C384.677 182.803 385.069 182.711 385.501 182.711C386.885 182.711 387.577 183.479 387.577 185.015V188.651H386.605V185.075C386.605 184.531 386.497 184.135 386.281 183.887C386.073 183.631 385.737 183.503 385.273 183.503C384.737 183.503 384.309 183.671 383.989 184.007C383.677 184.335 383.521 184.775 383.521 185.327V188.651H382.549ZM391.205 188.759C390.805 188.759 390.445 188.683 390.125 188.531C389.813 188.371 389.565 188.155 389.381 187.883C389.197 187.611 389.105 187.307 389.105 186.971C389.105 186.547 389.213 186.211 389.429 185.963C389.653 185.715 390.017 185.539 390.521 185.435C391.033 185.323 391.729 185.267 392.609 185.267H392.993V184.895C392.993 184.399 392.889 184.043 392.681 183.827C392.481 183.603 392.157 183.491 391.709 183.491C391.357 183.491 391.017 183.543 390.689 183.647C390.361 183.743 390.025 183.903 389.681 184.127L389.345 183.419C389.649 183.203 390.017 183.031 390.449 182.903C390.889 182.775 391.309 182.711 391.709 182.711C392.461 182.711 393.017 182.895 393.377 183.263C393.745 183.631 393.929 184.203 393.929 184.979V188.651H393.017V187.643C392.865 187.987 392.629 188.259 392.309 188.459C391.997 188.659 391.629 188.759 391.205 188.759ZM391.361 188.027C391.841 188.027 392.233 187.863 392.537 187.535C392.841 187.199 392.993 186.775 392.993 186.263V185.903H392.621C391.973 185.903 391.461 185.935 391.085 185.999C390.717 186.055 390.457 186.159 390.305 186.311C390.161 186.455 390.089 186.655 390.089 186.911C390.089 187.239 390.201 187.507 390.425 187.715C390.657 187.923 390.969 188.027 391.361 188.027ZM397.521 188.759C396.929 188.759 396.481 188.587 396.177 188.243C395.881 187.891 395.733 187.383 395.733 186.719V180.191H396.705V186.647C396.705 187.503 397.045 187.931 397.725 187.931C397.925 187.931 398.105 187.907 398.265 187.859L398.241 188.675C397.993 188.731 397.753 188.759 397.521 188.759ZM359.249 204.651V196.191H360.233V200.031H360.257L364.361 196.191H365.621L361.205 200.307L365.885 204.651H364.589L360.257 200.667H360.233V204.651H359.249ZM366.617 204.651V196.191H367.589V199.779C367.781 199.427 368.049 199.163 368.393 198.987C368.745 198.803 369.137 198.711 369.569 198.711C370.953 198.711 371.645 199.479 371.645 201.015V204.651H370.673V201.075C370.673 200.531 370.565 200.135 370.349 199.887C370.141 199.631 369.805 199.503 369.341 199.503C368.805 199.503 368.377 199.671 368.057 200.007C367.745 200.335 367.589 200.775 367.589 201.327V204.651H366.617ZM375.274 204.759C374.874 204.759 374.514 204.683 374.194 204.531C373.882 204.371 373.634 204.155 373.45 203.883C373.266 203.611 373.174 203.307 373.174 202.971C373.174 202.547 373.282 202.211 373.498 201.963C373.722 201.715 374.086 201.539 374.59 201.435C375.102 201.323 375.798 201.267 376.678 201.267H377.062V200.895C377.062 200.399 376.958 200.043 376.75 199.827C376.55 199.603 376.226 199.491 375.778 199.491C375.426 199.491 375.086 199.543 374.758 199.647C374.43 199.743 374.094 199.903 373.75 200.127L373.414 199.419C373.718 199.203 374.086 199.031 374.518 198.903C374.958 198.775 375.378 198.711 375.778 198.711C376.53 198.711 377.086 198.895 377.446 199.263C377.814 199.631 377.998 200.203 377.998 200.979V204.651H377.086V203.643C376.934 203.987 376.698 204.259 376.378 204.459C376.066 204.659 375.698 204.759 375.274 204.759ZM375.43 204.027C375.91 204.027 376.302 203.863 376.606 203.535C376.91 203.199 377.062 202.775 377.062 202.263V201.903H376.69C376.042 201.903 375.53 201.935 375.154 201.999C374.786 202.055 374.526 202.159 374.374 202.311C374.23 202.455 374.158 202.655 374.158 202.911C374.158 203.239 374.27 203.507 374.494 203.715C374.726 203.923 375.038 204.027 375.43 204.027ZM379.801 204.651V198.819H380.749V199.863C381.061 199.159 381.701 198.771 382.669 198.699L383.017 198.663L383.089 199.503L382.477 199.575C381.925 199.623 381.505 199.799 381.217 200.103C380.929 200.399 380.785 200.807 380.785 201.327V204.651H379.801ZM386.503 204.759C385.919 204.759 385.415 204.635 384.991 204.387C384.567 204.131 384.239 203.775 384.007 203.319C383.783 202.855 383.671 202.315 383.671 201.699C383.671 200.771 383.923 200.043 384.427 199.515C384.931 198.979 385.623 198.711 386.503 198.711C386.863 198.711 387.219 198.775 387.571 198.903C387.923 199.031 388.215 199.211 388.447 199.443L388.111 200.151C387.879 199.927 387.623 199.763 387.343 199.659C387.071 199.555 386.811 199.503 386.563 199.503C385.955 199.503 385.487 199.695 385.159 200.079C384.831 200.455 384.667 200.999 384.667 201.711C384.667 202.407 384.831 202.959 385.159 203.367C385.487 203.767 385.955 203.967 386.563 203.967C386.811 203.967 387.071 203.915 387.343 203.811C387.623 203.707 387.879 203.539 388.111 203.307L388.447 204.015C388.215 204.247 387.919 204.431 387.559 204.567C387.207 204.695 386.855 204.759 386.503 204.759ZM389.586 204.651V196.191H390.558V199.779C390.75 199.427 391.018 199.163 391.362 198.987C391.714 198.803 392.106 198.711 392.538 198.711C393.922 198.711 394.614 199.479 394.614 201.015V204.651H393.642V201.075C393.642 200.531 393.534 200.135 393.318 199.887C393.11 199.631 392.774 199.503 392.31 199.503C391.774 199.503 391.346 199.671 391.026 200.007C390.714 200.335 390.558 200.775 390.558 201.327V204.651H389.586ZM399.034 204.759C398.114 204.759 397.386 204.491 396.85 203.955C396.314 203.411 396.046 202.675 396.046 201.747C396.046 201.147 396.166 200.619 396.406 200.163C396.646 199.699 396.974 199.343 397.39 199.095C397.814 198.839 398.302 198.711 398.854 198.711C399.646 198.711 400.266 198.967 400.714 199.479C401.162 199.983 401.386 200.679 401.386 201.567V201.939H396.994C397.026 202.603 397.218 203.111 397.57 203.463C397.922 203.807 398.41 203.979 399.034 203.979C399.386 203.979 399.722 203.927 400.042 203.823C400.362 203.711 400.666 203.531 400.954 203.283L401.29 203.967C401.026 204.215 400.69 204.411 400.282 204.555C399.874 204.691 399.458 204.759 399.034 204.759ZM398.878 199.431C398.326 199.431 397.89 199.603 397.57 199.947C397.25 200.291 397.062 200.743 397.006 201.303H400.546C400.522 200.711 400.366 200.251 400.078 199.923C399.798 199.595 399.398 199.431 398.878 199.431Z" fill="#FF3D00"/>
<circle cx="552.897" cy="37.0173" r="17.7673" fill="#CBAA00" fill-opacity="0.15" stroke="#F5C304" stroke-width="0.5"/>
<path d="M553.102 25.7566L561.514 27.6259C561.982 27.7303 562.316 28.1449 562.316 28.625V38.8488C562.316 40.9024 561.289 42.8208 559.58 43.9592L553.102 48.2782L546.624 43.9592C544.915 42.8198 543.889 40.9024 543.889 38.8498V28.625C543.889 28.1449 544.223 27.7303 544.691 27.6259L553.102 25.7566ZM557.66 33.1498L552.593 38.2161L549.698 35.3211L548.25 36.7686L552.594 41.1122L559.108 34.5973L557.66 33.1498Z" fill="#F5C304"/>
<circle cx="718.432" cy="175.525" r="17.7673" fill="#1391FF" fill-opacity="0.15" stroke="#3C92FF" stroke-width="0.5"/>
<path d="M724.287 166.516H717.08L711.693 171.922L711.675 182.732C711.675 183.723 712.486 184.534 713.477 184.534H724.287C725.278 184.534 726.089 183.723 726.089 182.732V168.318C726.089 167.327 725.278 166.516 724.287 166.516ZM718.882 171.922H717.08V168.318H718.882V171.922ZM721.585 171.922H719.783V168.318H721.585V171.922ZM724.287 171.922H722.486V168.318H724.287V171.922Z" fill="#3C92FF"/>
<circle cx="655.371" cy="310.654" r="17.7673" fill="#CBAA00" fill-opacity="0.15" stroke="#F5C304" stroke-width="0.5"/>
<path d="M650.392 301.646C650.922 301.646 651.446 301.75 651.935 301.953C652.424 302.155 652.868 302.452 653.242 302.826C653.616 303.201 653.913 303.645 654.116 304.134C654.318 304.623 654.423 305.147 654.423 305.676V309.706H650.392C649.323 309.706 648.298 309.282 647.543 308.526C646.787 307.77 646.362 306.745 646.362 305.676C646.362 304.607 646.787 303.582 647.543 302.826C648.298 302.071 649.323 301.646 650.392 301.646ZM650.392 311.603H654.423V315.633C654.423 316.43 654.186 317.209 653.743 317.872C653.3 318.535 652.671 319.051 651.935 319.356C651.198 319.662 650.388 319.741 649.606 319.586C648.824 319.43 648.106 319.046 647.543 318.483C646.979 317.919 646.595 317.201 646.44 316.419C646.284 315.638 646.364 314.827 646.669 314.091C646.974 313.354 647.491 312.725 648.153 312.282C648.816 311.839 649.595 311.603 650.392 311.603ZM660.349 301.646C661.418 301.646 662.443 302.071 663.199 302.826C663.955 303.582 664.379 304.607 664.379 305.676C664.379 306.745 663.955 307.77 663.199 308.526C662.443 309.282 661.418 309.706 660.349 309.706H656.319V305.676C656.319 304.607 656.744 303.582 657.499 302.826C658.255 302.071 659.28 301.646 660.349 301.646ZM656.319 311.603H660.349C661.146 311.603 661.926 311.839 662.588 312.282C663.251 312.725 663.768 313.354 664.073 314.091C664.378 314.827 664.457 315.638 664.302 316.419C664.146 317.201 663.763 317.919 663.199 318.483C662.635 319.046 661.917 319.43 661.135 319.586C660.354 319.741 659.543 319.662 658.807 319.356C658.071 319.051 657.441 318.535 656.998 317.872C656.555 317.209 656.319 316.43 656.319 315.633V311.603Z" fill="#F5C304"/>
<path d="M528.969 73.791V65.331H529.953V73.791H528.969ZM532.04 73.791V65.331H534.896C536.264 65.331 537.32 65.695 538.064 66.423C538.808 67.143 539.18 68.187 539.18 69.555C539.18 70.923 538.808 71.971 538.064 72.699C537.32 73.427 536.264 73.791 534.896 73.791H532.04ZM533.024 72.951H534.824C537.032 72.951 538.136 71.819 538.136 69.555C538.136 67.299 537.032 66.171 534.824 66.171H533.024V72.951ZM544.028 73.791V65.331H547.412C548.284 65.331 548.956 65.527 549.428 65.919C549.908 66.303 550.148 66.843 550.148 67.539C550.148 68.003 550.028 68.399 549.788 68.727C549.548 69.055 549.216 69.295 548.792 69.447C549.28 69.575 549.66 69.811 549.932 70.155C550.212 70.499 550.352 70.935 550.352 71.463C550.352 72.215 550.108 72.791 549.62 73.191C549.132 73.591 548.444 73.791 547.556 73.791H544.028ZM544.988 69.111H547.268C548.54 69.111 549.176 68.615 549.176 67.623C549.176 66.623 548.54 66.123 547.268 66.123H544.988V69.111ZM544.988 72.999H547.46C548.74 72.999 549.38 72.483 549.38 71.451C549.38 70.419 548.74 69.903 547.46 69.903H544.988V72.999ZM553.841 73.899C553.441 73.899 553.081 73.823 552.761 73.671C552.449 73.511 552.201 73.295 552.017 73.023C551.833 72.751 551.741 72.447 551.741 72.111C551.741 71.687 551.849 71.351 552.065 71.103C552.289 70.855 552.653 70.679 553.157 70.575C553.669 70.463 554.365 70.407 555.245 70.407H555.629V70.035C555.629 69.539 555.525 69.183 555.317 68.967C555.117 68.743 554.793 68.631 554.345 68.631C553.993 68.631 553.653 68.683 553.325 68.787C552.997 68.883 552.661 69.043 552.317 69.267L551.981 68.559C552.285 68.343 552.653 68.171 553.085 68.043C553.525 67.915 553.945 67.851 554.345 67.851C555.097 67.851 555.653 68.035 556.013 68.403C556.381 68.771 556.565 69.343 556.565 70.119V73.791H555.653V72.783C555.501 73.127 555.265 73.399 554.945 73.599C554.633 73.799 554.265 73.899 553.841 73.899ZM553.997 73.167C554.477 73.167 554.869 73.003 555.173 72.675C555.477 72.339 555.629 71.915 555.629 71.403V71.043H555.257C554.609 71.043 554.097 71.075 553.721 71.139C553.353 71.195 553.093 71.299 552.941 71.451C552.797 71.595 552.725 71.795 552.725 72.051C552.725 72.379 552.837 72.647 553.061 72.855C553.293 73.063 553.605 73.167 553.997 73.167ZM560.589 73.899C560.069 73.899 559.613 73.775 559.221 73.527C558.837 73.279 558.537 72.931 558.321 72.483C558.113 72.027 558.009 71.491 558.009 70.875C558.009 70.251 558.113 69.715 558.321 69.267C558.537 68.811 558.837 68.463 559.221 68.223C559.613 67.975 560.069 67.851 560.589 67.851C561.045 67.851 561.445 67.951 561.789 68.151C562.141 68.351 562.401 68.627 562.569 68.979V65.331H563.541V73.791H562.593V72.723C562.425 73.091 562.165 73.379 561.813 73.587C561.461 73.795 561.053 73.899 560.589 73.899ZM560.793 73.119C561.337 73.119 561.773 72.927 562.101 72.543C562.429 72.151 562.593 71.595 562.593 70.875C562.593 70.147 562.429 69.591 562.101 69.207C561.773 68.823 561.337 68.631 560.793 68.631C560.241 68.631 559.801 68.823 559.473 69.207C559.153 69.591 558.993 70.147 558.993 70.875C558.993 71.595 559.153 72.151 559.473 72.543C559.801 72.927 560.241 73.119 560.793 73.119ZM567.945 76.059C567.441 76.059 566.965 75.991 566.517 75.855C566.077 75.727 565.685 75.531 565.341 75.267L565.665 74.559C566.025 74.815 566.381 74.999 566.733 75.111C567.093 75.223 567.481 75.279 567.897 75.279C569.049 75.279 569.625 74.687 569.625 73.503V72.471C569.457 72.839 569.193 73.131 568.833 73.347C568.481 73.555 568.077 73.659 567.621 73.659C567.085 73.659 566.621 73.535 566.229 73.287C565.837 73.039 565.533 72.699 565.317 72.267C565.109 71.827 565.005 71.319 565.005 70.743C565.005 70.167 565.109 69.663 565.317 69.231C565.533 68.791 565.837 68.451 566.229 68.211C566.621 67.971 567.085 67.851 567.621 67.851C568.077 67.851 568.481 67.955 568.833 68.163C569.193 68.371 569.457 68.655 569.625 69.015V67.959H570.573V73.371C570.573 74.267 570.349 74.939 569.901 75.387C569.461 75.835 568.809 76.059 567.945 76.059ZM567.801 72.867C568.361 72.867 568.805 72.675 569.133 72.291C569.461 71.907 569.625 71.391 569.625 70.743C569.625 70.095 569.461 69.583 569.133 69.207C568.805 68.823 568.361 68.631 567.801 68.631C567.249 68.631 566.809 68.823 566.481 69.207C566.153 69.583 565.989 70.095 565.989 70.743C565.989 71.391 566.153 71.907 566.481 72.291C566.809 72.675 567.249 72.867 567.801 72.867ZM575.024 73.899C574.104 73.899 573.376 73.631 572.84 73.095C572.304 72.551 572.036 71.815 572.036 70.887C572.036 70.287 572.156 69.759 572.396 69.303C572.636 68.839 572.964 68.483 573.38 68.235C573.804 67.979 574.292 67.851 574.844 67.851C575.636 67.851 576.256 68.107 576.704 68.619C577.152 69.123 577.376 69.819 577.376 70.707V71.079H572.984C573.016 71.743 573.208 72.251 573.56 72.603C573.912 72.947 574.4 73.119 575.024 73.119C575.376 73.119 575.712 73.067 576.032 72.963C576.352 72.851 576.656 72.671 576.944 72.423L577.28 73.107C577.016 73.355 576.68 73.551 576.272 73.695C575.864 73.831 575.448 73.899 575.024 73.899ZM574.868 68.571C574.316 68.571 573.88 68.743 573.56 69.087C573.24 69.431 573.052 69.883 572.996 70.443H576.536C576.512 69.851 576.356 69.391 576.068 69.063C575.788 68.735 575.388 68.571 574.868 68.571Z" fill="#F5C304"/>
<path d="M688.134 212.299L685.17 203.839H686.202L688.59 210.859L691.038 203.839H691.83L694.254 210.919L696.69 203.839H697.674L694.71 212.299H693.834L691.422 205.339L688.986 212.299H688.134ZM700.649 212.407C700.081 212.407 699.589 212.283 699.173 212.035C698.757 211.787 698.433 211.439 698.201 210.991C697.977 210.535 697.865 209.999 697.865 209.383C697.865 208.767 697.977 208.235 698.201 207.787C698.433 207.331 698.757 206.979 699.173 206.731C699.589 206.483 700.081 206.359 700.649 206.359C701.209 206.359 701.697 206.483 702.113 206.731C702.537 206.979 702.861 207.331 703.085 207.787C703.317 208.235 703.433 208.767 703.433 209.383C703.433 209.999 703.317 210.535 703.085 210.991C702.861 211.439 702.537 211.787 702.113 212.035C701.697 212.283 701.209 212.407 700.649 212.407ZM700.649 211.627C701.193 211.627 701.629 211.435 701.957 211.051C702.285 210.659 702.449 210.103 702.449 209.383C702.449 208.655 702.285 208.099 701.957 207.715C701.629 207.331 701.193 207.139 700.649 207.139C700.097 207.139 699.657 207.331 699.329 207.715C699.009 208.099 698.849 208.655 698.849 209.383C698.849 210.103 699.009 210.659 699.329 211.051C699.657 211.435 700.097 211.627 700.649 211.627ZM704.893 212.299V206.467H705.841V207.511C706.153 206.807 706.793 206.419 707.761 206.347L708.109 206.311L708.181 207.151L707.569 207.223C707.017 207.271 706.597 207.447 706.309 207.751C706.021 208.047 705.877 208.455 705.877 208.975V212.299H704.893ZM709.194 212.299V203.839H710.166V209.059H710.19L712.89 206.467H714.126L711.198 209.275L714.378 212.299H713.142L710.19 209.563H710.166V212.299H709.194ZM717.057 212.407C716.601 212.407 716.169 212.343 715.761 212.215C715.353 212.087 715.017 211.907 714.753 211.675L715.065 210.991C715.353 211.223 715.669 211.395 716.013 211.507C716.365 211.611 716.721 211.663 717.081 211.663C717.537 211.663 717.881 211.579 718.113 211.411C718.345 211.243 718.461 211.015 718.461 210.727C718.461 210.503 718.385 210.327 718.233 210.199C718.081 210.063 717.841 209.959 717.513 209.887L716.421 209.647C715.429 209.431 714.933 208.919 714.933 208.111C714.933 207.583 715.141 207.159 715.557 206.839C715.981 206.519 716.533 206.359 717.213 206.359C717.613 206.359 717.993 206.423 718.353 206.551C718.721 206.671 719.025 206.851 719.265 207.091L718.941 207.775C718.709 207.559 718.437 207.395 718.125 207.283C717.821 207.163 717.517 207.103 717.213 207.103C716.765 207.103 716.425 207.191 716.193 207.367C715.961 207.543 715.845 207.775 715.845 208.063C715.845 208.511 716.141 208.799 716.733 208.927L717.825 209.155C718.337 209.267 718.725 209.447 718.989 209.695C719.253 209.935 719.385 210.263 719.385 210.679C719.385 211.215 719.173 211.639 718.749 211.951C718.325 212.255 717.761 212.407 717.057 212.407ZM723.147 212.407C722.459 212.407 721.943 212.227 721.599 211.867C721.255 211.499 721.083 210.971 721.083 210.283V207.223H719.943V206.467H721.083V204.679H722.055V206.467H723.903V207.223H722.055V210.187C722.055 210.643 722.151 210.991 722.343 211.231C722.535 211.463 722.847 211.579 723.279 211.579C723.407 211.579 723.535 211.563 723.663 211.531C723.791 211.499 723.907 211.467 724.011 211.435L724.179 212.179C724.075 212.235 723.923 212.287 723.723 212.335C723.523 212.383 723.331 212.407 723.147 212.407ZM726.839 212.407C726.439 212.407 726.079 212.331 725.759 212.179C725.447 212.019 725.199 211.803 725.015 211.531C724.831 211.259 724.739 210.955 724.739 210.619C724.739 210.195 724.847 209.859 725.063 209.611C725.287 209.363 725.651 209.187 726.155 209.083C726.667 208.971 727.363 208.915 728.243 208.915H728.627V208.543C728.627 208.047 728.523 207.691 728.315 207.475C728.115 207.251 727.791 207.139 727.343 207.139C726.991 207.139 726.651 207.191 726.323 207.295C725.995 207.391 725.659 207.551 725.315 207.775L724.979 207.067C725.283 206.851 725.651 206.679 726.083 206.551C726.523 206.423 726.943 206.359 727.343 206.359C728.095 206.359 728.651 206.543 729.011 206.911C729.379 207.279 729.563 207.851 729.563 208.627V212.299H728.651V211.291C728.499 211.635 728.263 211.907 727.943 212.107C727.631 212.307 727.263 212.407 726.839 212.407ZM726.995 211.675C727.475 211.675 727.867 211.511 728.171 211.183C728.475 210.847 728.627 210.423 728.627 209.911V209.551H728.255C727.607 209.551 727.095 209.583 726.719 209.647C726.351 209.703 726.091 209.807 725.939 209.959C725.795 210.103 725.723 210.303 725.723 210.559C725.723 210.887 725.835 211.155 726.059 211.363C726.291 211.571 726.603 211.675 726.995 211.675ZM733.706 212.407C733.018 212.407 732.502 212.227 732.158 211.867C731.814 211.499 731.642 210.971 731.642 210.283V207.223H730.502V206.467H731.642V204.679H732.614V206.467H734.462V207.223H732.614V210.187C732.614 210.643 732.71 210.991 732.902 211.231C733.094 211.463 733.406 211.579 733.838 211.579C733.966 211.579 734.094 211.563 734.222 211.531C734.35 211.499 734.466 211.467 734.57 211.435L734.738 212.179C734.634 212.235 734.482 212.287 734.282 212.335C734.082 212.383 733.89 212.407 733.706 212.407ZM735.441 205.015V203.923H736.641V205.015H735.441ZM735.561 212.299V206.467H736.533V212.299H735.561ZM740.774 212.407C740.206 212.407 739.714 212.283 739.298 212.035C738.882 211.787 738.558 211.439 738.326 210.991C738.102 210.535 737.99 209.999 737.99 209.383C737.99 208.767 738.102 208.235 738.326 207.787C738.558 207.331 738.882 206.979 739.298 206.731C739.714 206.483 740.206 206.359 740.774 206.359C741.334 206.359 741.822 206.483 742.238 206.731C742.662 206.979 742.986 207.331 743.21 207.787C743.442 208.235 743.558 208.767 743.558 209.383C743.558 209.999 743.442 210.535 743.21 210.991C742.986 211.439 742.662 211.787 742.238 212.035C741.822 212.283 741.334 212.407 740.774 212.407ZM740.774 211.627C741.318 211.627 741.754 211.435 742.082 211.051C742.41 210.659 742.574 210.103 742.574 209.383C742.574 208.655 742.41 208.099 742.082 207.715C741.754 207.331 741.318 207.139 740.774 207.139C740.222 207.139 739.782 207.331 739.454 207.715C739.134 208.099 738.974 208.655 738.974 209.383C738.974 210.103 739.134 210.659 739.454 211.051C739.782 211.435 740.222 211.627 740.774 211.627ZM745.018 212.299V206.467H745.966V207.463C746.158 207.095 746.43 206.819 746.782 206.635C747.134 206.451 747.53 206.359 747.97 206.359C749.354 206.359 750.046 207.127 750.046 208.663V212.299H749.074V208.723C749.074 208.179 748.966 207.783 748.75 207.535C748.542 207.279 748.206 207.151 747.742 207.151C747.206 207.151 746.778 207.319 746.458 207.655C746.146 207.983 745.99 208.423 745.99 208.975V212.299H745.018Z" fill="#3C92FF"/>
<path d="M632.429 347.536C631.645 347.536 630.961 347.36 630.377 347.008C629.801 346.648 629.353 346.144 629.033 345.496C628.721 344.848 628.565 344.08 628.565 343.192C628.565 342.304 628.721 341.536 629.033 340.888C629.345 340.24 629.789 339.74 630.365 339.388C630.949 339.036 631.637 338.86 632.429 338.86C633.229 338.86 633.917 339.036 634.493 339.388C635.077 339.74 635.525 340.24 635.837 340.888C636.157 341.528 636.317 342.292 636.317 343.18C636.317 344.068 636.157 344.84 635.837 345.496C635.517 346.144 635.065 346.648 634.481 347.008C633.905 347.36 633.221 347.536 632.429 347.536ZM632.429 346.66C633.333 346.66 634.033 346.356 634.529 345.748C635.025 345.14 635.273 344.288 635.273 343.192C635.273 342.096 635.025 341.248 634.529 340.648C634.033 340.04 633.333 339.736 632.429 339.736C631.541 339.736 630.849 340.04 630.353 340.648C629.857 341.248 629.609 342.096 629.609 343.192C629.609 344.28 629.857 345.132 630.353 345.748C630.849 346.356 631.541 346.66 632.429 346.66ZM638.256 347.428V342.352H637.104V341.596H638.256V341.392C638.256 340.616 638.448 340.028 638.832 339.628C639.224 339.228 639.824 339.004 640.632 338.956L641.1 338.932L641.184 339.676L640.632 339.712C640.136 339.752 639.776 339.9 639.552 340.156C639.336 340.412 639.228 340.784 639.228 341.272V341.596H640.908V342.352H639.228V347.428H638.256ZM642.065 347.428V342.352H640.913V341.596H642.065V341.392C642.065 340.616 642.257 340.028 642.641 339.628C643.033 339.228 643.633 339.004 644.441 338.956L644.885 338.932L644.945 339.688L644.441 339.712C643.945 339.744 643.585 339.892 643.361 340.156C643.145 340.412 643.037 340.784 643.037 341.272V341.596H646.637V347.428H645.665V342.352H643.037V347.428H642.065ZM645.557 340.144V339.052H646.745V340.144H645.557ZM650.928 347.536C650.344 347.536 649.84 347.412 649.416 347.164C648.992 346.908 648.664 346.552 648.432 346.096C648.208 345.632 648.096 345.092 648.096 344.476C648.096 343.548 648.348 342.82 648.852 342.292C649.356 341.756 650.048 341.488 650.928 341.488C651.288 341.488 651.644 341.552 651.996 341.68C652.348 341.808 652.64 341.988 652.872 342.22L652.536 342.928C652.304 342.704 652.048 342.54 651.768 342.436C651.496 342.332 651.236 342.28 650.988 342.28C650.38 342.28 649.912 342.472 649.584 342.856C649.256 343.232 649.092 343.776 649.092 344.488C649.092 345.184 649.256 345.736 649.584 346.144C649.912 346.544 650.38 346.744 650.988 346.744C651.236 346.744 651.496 346.692 651.768 346.588C652.048 346.484 652.304 346.316 652.536 346.084L652.872 346.792C652.64 347.024 652.344 347.208 651.984 347.344C651.632 347.472 651.28 347.536 650.928 347.536ZM656.521 347.536C655.601 347.536 654.873 347.268 654.337 346.732C653.801 346.188 653.533 345.452 653.533 344.524C653.533 343.924 653.653 343.396 653.893 342.94C654.133 342.476 654.461 342.12 654.877 341.872C655.301 341.616 655.789 341.488 656.341 341.488C657.133 341.488 657.753 341.744 658.201 342.256C658.649 342.76 658.873 343.456 658.873 344.344V344.716H654.481C654.513 345.38 654.705 345.888 655.057 346.24C655.409 346.584 655.897 346.756 656.521 346.756C656.873 346.756 657.209 346.704 657.529 346.6C657.849 346.488 658.153 346.308 658.441 346.06L658.777 346.744C658.513 346.992 658.177 347.188 657.769 347.332C657.361 347.468 656.945 347.536 656.521 347.536ZM656.365 342.208C655.813 342.208 655.377 342.38 655.057 342.724C654.737 343.068 654.549 343.52 654.493 344.08H658.033C658.009 343.488 657.853 343.028 657.565 342.7C657.285 342.372 656.885 342.208 656.365 342.208ZM665.954 347.536C665.394 347.536 664.862 347.452 664.358 347.284C663.854 347.108 663.43 346.856 663.086 346.528L663.446 345.748C663.838 346.068 664.234 346.3 664.634 346.444C665.034 346.588 665.466 346.66 665.93 346.66C666.538 346.66 667.002 346.528 667.322 346.264C667.65 345.992 667.814 345.596 667.814 345.076C667.814 344.58 667.65 344.204 667.322 343.948C666.994 343.692 666.518 343.564 665.894 343.564H664.646V342.712H665.81C666.354 342.712 666.782 342.572 667.094 342.292C667.414 342.004 667.574 341.612 667.574 341.116C667.574 340.676 667.426 340.336 667.13 340.096C666.842 339.856 666.43 339.736 665.894 339.736C665.014 339.736 664.246 340.056 663.59 340.696L663.23 339.928C663.542 339.592 663.938 339.332 664.418 339.148C664.906 338.956 665.418 338.86 665.954 338.86C666.77 338.86 667.406 339.052 667.862 339.436C668.326 339.82 668.558 340.352 668.558 341.032C668.558 341.504 668.438 341.92 668.198 342.28C667.958 342.632 667.626 342.888 667.202 343.048C667.706 343.184 668.098 343.436 668.378 343.804C668.658 344.164 668.798 344.612 668.798 345.148C668.798 345.876 668.542 346.456 668.03 346.888C667.526 347.32 666.834 347.536 665.954 347.536ZM673.533 347.536C672.533 347.536 671.761 347.176 671.217 346.456C670.681 345.728 670.413 344.712 670.413 343.408C670.413 341.944 670.713 340.82 671.313 340.036C671.913 339.252 672.753 338.86 673.833 338.86C674.265 338.86 674.697 338.952 675.129 339.136C675.569 339.32 675.929 339.568 676.209 339.88L675.849 340.648C675.553 340.344 675.229 340.116 674.877 339.964C674.533 339.812 674.177 339.736 673.809 339.736C673.025 339.736 672.421 340.028 671.997 340.612C671.581 341.196 671.373 342.064 671.373 343.216V343.804C671.525 343.276 671.805 342.864 672.213 342.568C672.629 342.272 673.117 342.124 673.677 342.124C674.173 342.124 674.613 342.24 674.997 342.472C675.381 342.696 675.681 343.008 675.897 343.408C676.113 343.808 676.221 344.268 676.221 344.788C676.221 345.324 676.105 345.8 675.873 346.216C675.649 346.624 675.333 346.948 674.925 347.188C674.525 347.42 674.061 347.536 673.533 347.536ZM673.473 346.696C674.009 346.696 674.441 346.524 674.769 346.18C675.105 345.836 675.273 345.384 675.273 344.824C675.273 344.272 675.105 343.824 674.769 343.48C674.441 343.128 674.009 342.952 673.473 342.952C672.937 342.952 672.501 343.128 672.165 343.48C671.837 343.824 671.673 344.272 671.673 344.824C671.673 345.384 671.837 345.836 672.165 346.18C672.501 346.524 672.937 346.696 673.473 346.696ZM680.621 347.536C680.077 347.536 679.557 347.448 679.061 347.272C678.565 347.096 678.145 346.848 677.801 346.528L678.173 345.748C678.917 346.356 679.729 346.66 680.609 346.66C681.193 346.66 681.653 346.496 681.989 346.168C682.325 345.84 682.493 345.408 682.493 344.872C682.493 344.32 682.333 343.868 682.013 343.516C681.693 343.164 681.253 342.988 680.693 342.988C679.885 342.988 679.249 343.324 678.785 343.996H678.065V338.968H682.973V339.808H679.037V342.832C679.501 342.368 680.113 342.136 680.873 342.136C681.401 342.136 681.861 342.248 682.253 342.472C682.645 342.696 682.945 343.012 683.153 343.42C683.369 343.82 683.477 344.288 683.477 344.824C683.477 345.352 683.361 345.82 683.129 346.228C682.897 346.636 682.565 346.956 682.133 347.188C681.709 347.42 681.205 347.536 680.621 347.536Z" fill="#F5C304"/>
<circle cx="648.615" cy="61.791" r="7.88256" fill="#4999FE" fill-opacity="0.4"/>
<circle cx="648.615" cy="61.791" r="7.63256" stroke="#4999FE" stroke-opacity="0.4" stroke-width="0.5"/>
<circle cx="685.776" cy="29.1348" r="7.88256" fill="#4999FE" fill-opacity="0.4"/>
<circle cx="685.776" cy="29.1348" r="7.63256" stroke="#4999FE" stroke-opacity="0.4" stroke-width="0.5"/>
<circle cx="731.944" cy="29.1348" r="7.88256" fill="#4999FE" fill-opacity="0.4"/>
<circle cx="731.944" cy="29.1348" r="7.63256" stroke="#4999FE" stroke-opacity="0.4" stroke-width="0.5"/>
<path d="M530.376 46.026L521.737 46.6227L526.573 53.8065L530.376 46.026ZM417.061 123.222L525.196 50.4179L524.358 49.1736L416.223 121.977L417.061 123.222Z" fill="#CBAA00" fill-opacity="0.5"/>
<path d="M693.659 169.895L686.77 164.647L685.669 173.237L693.659 169.895ZM421.052 135.73L686.868 169.781L687.059 168.293L421.243 134.242L421.052 135.73Z" fill="url(#paint1_linear_366_10631)" fill-opacity="0.5"/>
<path fill-rule="evenodd" clip-rule="evenodd" d="M593.436 120.347H525.871V142.869H593.436V120.347ZM552.264 142.869H567.044L559.654 151.877L552.264 142.869Z" fill="url(#paint2_linear_366_10631)" fill-opacity="0.25"/>
<path d="M525.871 120.347V120.097H525.621V120.347H525.871ZM593.436 120.347H593.686V120.097H593.436V120.347ZM525.871 142.869H525.621V143.119H525.871V142.869ZM593.436 142.869V143.119H593.686V142.869H593.436ZM567.044 142.869L567.237 143.027L567.573 142.619H567.044V142.869ZM552.264 142.869V142.619H551.736L552.071 143.027L552.264 142.869ZM559.654 151.877L559.461 152.036L559.654 152.272L559.848 152.036L559.654 151.877ZM525.871 120.597H593.436V120.097H525.871V120.597ZM526.121 142.869V120.347H525.621V142.869H526.121ZM593.436 142.619H525.871V143.119H593.436V142.619ZM593.186 120.347V142.869H593.686V120.347H593.186ZM567.044 142.619H552.264V143.119H567.044V142.619ZM559.848 152.036L567.237 143.027L566.851 142.71L559.461 151.719L559.848 152.036ZM552.071 143.027L559.461 152.036L559.848 151.719L552.458 142.71L552.071 143.027Z" fill="white"/>
<path d="M535.548 133.816C535.081 133.816 534.638 133.746 534.218 133.606C533.798 133.459 533.445 133.249 533.158 132.976L533.458 132.326C533.785 132.592 534.115 132.786 534.448 132.906C534.781 133.026 535.141 133.086 535.528 133.086C536.035 133.086 536.421 132.976 536.688 132.756C536.961 132.529 537.098 132.199 537.098 131.766C537.098 131.352 536.961 131.039 536.688 130.826C536.415 130.612 536.018 130.506 535.498 130.506H534.458V129.796H535.428C535.881 129.796 536.238 129.679 536.498 129.446C536.765 129.206 536.898 128.879 536.898 128.466C536.898 128.099 536.775 127.816 536.528 127.616C536.288 127.416 535.945 127.316 535.498 127.316C534.765 127.316 534.125 127.582 533.578 128.116L533.278 127.476C533.538 127.196 533.868 126.979 534.268 126.826C534.675 126.666 535.101 126.586 535.548 126.586C536.228 126.586 536.758 126.746 537.138 127.066C537.525 127.386 537.718 127.829 537.718 128.396C537.718 128.789 537.618 129.136 537.418 129.436C537.218 129.729 536.941 129.942 536.588 130.076C537.008 130.189 537.335 130.399 537.568 130.706C537.801 131.006 537.918 131.379 537.918 131.826C537.918 132.432 537.705 132.916 537.278 133.276C536.858 133.636 536.281 133.816 535.548 133.816ZM541.544 133.816C541.077 133.816 540.634 133.746 540.214 133.606C539.794 133.459 539.441 133.249 539.154 132.976L539.454 132.326C539.781 132.592 540.111 132.786 540.444 132.906C540.777 133.026 541.137 133.086 541.524 133.086C542.031 133.086 542.417 132.976 542.684 132.756C542.957 132.529 543.094 132.199 543.094 131.766C543.094 131.352 542.957 131.039 542.684 130.826C542.411 130.612 542.014 130.506 541.494 130.506H540.454V129.796H541.424C541.877 129.796 542.234 129.679 542.494 129.446C542.761 129.206 542.894 128.879 542.894 128.466C542.894 128.099 542.771 127.816 542.524 127.616C542.284 127.416 541.941 127.316 541.494 127.316C540.761 127.316 540.121 127.582 539.574 128.116L539.274 127.476C539.534 127.196 539.864 126.979 540.264 126.826C540.671 126.666 541.097 126.586 541.544 126.586C542.224 126.586 542.754 126.746 543.134 127.066C543.521 127.386 543.714 127.829 543.714 128.396C543.714 128.789 543.614 129.136 543.414 129.436C543.214 129.729 542.937 129.942 542.584 130.076C543.004 130.189 543.331 130.399 543.564 130.706C543.797 131.006 543.914 131.379 543.914 131.826C543.914 132.432 543.701 132.916 543.274 133.276C542.854 133.636 542.277 133.816 541.544 133.816ZM548.39 133.726V132.216H545.14V131.596L548.53 126.676H549.22V131.516H550.27V132.216H549.22V133.726H548.39ZM548.39 131.516V128.026L545.99 131.516H548.39ZM551.246 133.726V132.706H552.266V133.726H551.246ZM556.042 133.816C555.588 133.816 555.155 133.742 554.742 133.596C554.328 133.449 553.978 133.242 553.692 132.976L554.002 132.326C554.622 132.832 555.298 133.086 556.032 133.086C556.518 133.086 556.902 132.949 557.182 132.676C557.462 132.402 557.602 132.042 557.602 131.596C557.602 131.136 557.468 130.759 557.202 130.466C556.935 130.172 556.568 130.026 556.102 130.026C555.428 130.026 554.898 130.306 554.512 130.866H553.912V126.676H558.002V127.376H554.722V129.896C555.108 129.509 555.618 129.316 556.252 129.316C556.692 129.316 557.075 129.409 557.402 129.596C557.728 129.782 557.978 130.046 558.152 130.386C558.332 130.719 558.422 131.109 558.422 131.556C558.422 131.996 558.325 132.386 558.132 132.726C557.938 133.066 557.662 133.332 557.302 133.526C556.948 133.719 556.528 133.816 556.042 133.816ZM561.808 133.816C561.341 133.816 560.898 133.746 560.478 133.606C560.058 133.459 559.704 133.249 559.418 132.976L559.718 132.326C560.044 132.592 560.374 132.786 560.708 132.906C561.041 133.026 561.401 133.086 561.788 133.086C562.294 133.086 562.681 132.976 562.948 132.756C563.221 132.529 563.358 132.199 563.358 131.766C563.358 131.352 563.221 131.039 562.948 130.826C562.674 130.612 562.278 130.506 561.758 130.506H560.718V129.796H561.688C562.141 129.796 562.498 129.679 562.758 129.446C563.024 129.206 563.158 128.879 563.158 128.466C563.158 128.099 563.034 127.816 562.788 127.616C562.548 127.416 562.204 127.316 561.758 127.316C561.024 127.316 560.384 127.582 559.838 128.116L559.538 127.476C559.798 127.196 560.128 126.979 560.528 126.826C560.934 126.666 561.361 126.586 561.808 126.586C562.488 126.586 563.018 126.746 563.398 127.066C563.784 127.386 563.978 127.829 563.978 128.396C563.978 128.789 563.878 129.136 563.678 129.436C563.478 129.729 563.201 129.942 562.848 130.076C563.268 130.189 563.594 130.399 563.828 130.706C564.061 131.006 564.178 131.379 564.178 131.826C564.178 132.432 563.964 132.916 563.538 133.276C563.118 133.636 562.541 133.816 561.808 133.816ZM568.342 133.726V126.676H569.032L571.742 131.766L574.432 126.676H575.122V133.726H574.362V128.216L572.012 132.636H571.472L569.092 128.226V133.726H568.342ZM576.877 133.726V126.676H579.697C580.424 126.676 580.984 126.839 581.377 127.166C581.777 127.486 581.977 127.936 581.977 128.516C581.977 128.902 581.877 129.232 581.677 129.506C581.477 129.779 581.2 129.979 580.847 130.106C581.254 130.212 581.57 130.409 581.797 130.696C582.03 130.982 582.147 131.346 582.147 131.786C582.147 132.412 581.944 132.892 581.537 133.226C581.13 133.559 580.557 133.726 579.817 133.726H576.877ZM577.677 129.826H579.577C580.637 129.826 581.167 129.412 581.167 128.586C581.167 127.752 580.637 127.336 579.577 127.336H577.677V129.826ZM577.677 133.066H579.737C580.804 133.066 581.337 132.636 581.337 131.776C581.337 130.916 580.804 130.486 579.737 130.486H577.677V133.066Z" fill="white"/>
<path d="M421.147 307.276L422.134 301.588L416.714 303.577L421.147 307.276ZM388.021 218.488L419.127 303.224L420.065 302.88L388.96 218.144L388.021 218.488Z" fill="#CBAA00" fill-opacity="0.5"/>
<path d="M415.266 414.993V406.533H416.25V414.129H420.558V414.993H415.266ZM424.015 415.101C423.447 415.101 422.955 414.977 422.539 414.729C422.123 414.481 421.799 414.133 421.567 413.685C421.343 413.229 421.231 412.693 421.231 412.077C421.231 411.461 421.343 410.929 421.567 410.481C421.799 410.025 422.123 409.673 422.539 409.425C422.955 409.177 423.447 409.053 424.015 409.053C424.575 409.053 425.063 409.177 425.479 409.425C425.903 409.673 426.227 410.025 426.451 410.481C426.683 410.929 426.799 411.461 426.799 412.077C426.799 412.693 426.683 413.229 426.451 413.685C426.227 414.133 425.903 414.481 425.479 414.729C425.063 414.977 424.575 415.101 424.015 415.101ZM424.015 414.321C424.559 414.321 424.995 414.129 425.323 413.745C425.651 413.353 425.815 412.797 425.815 412.077C425.815 411.349 425.651 410.793 425.323 410.409C424.995 410.025 424.559 409.833 424.015 409.833C423.463 409.833 423.023 410.025 422.695 410.409C422.375 410.793 422.215 411.349 422.215 412.077C422.215 412.797 422.375 413.353 422.695 413.745C423.023 414.129 423.463 414.321 424.015 414.321ZM430.839 417.261C430.335 417.261 429.859 417.193 429.411 417.057C428.971 416.929 428.579 416.733 428.235 416.469L428.559 415.761C428.919 416.017 429.275 416.201 429.627 416.313C429.987 416.425 430.375 416.481 430.791 416.481C431.943 416.481 432.519 415.889 432.519 414.705V413.673C432.351 414.041 432.087 414.333 431.727 414.549C431.375 414.757 430.971 414.861 430.515 414.861C429.979 414.861 429.515 414.737 429.123 414.489C428.731 414.241 428.427 413.901 428.211 413.469C428.003 413.029 427.899 412.521 427.899 411.945C427.899 411.369 428.003 410.865 428.211 410.433C428.427 409.993 428.731 409.653 429.123 409.413C429.515 409.173 429.979 409.053 430.515 409.053C430.971 409.053 431.375 409.157 431.727 409.365C432.087 409.573 432.351 409.857 432.519 410.217V409.161H433.467V414.573C433.467 415.469 433.243 416.141 432.795 416.589C432.355 417.037 431.703 417.261 430.839 417.261ZM430.695 414.069C431.255 414.069 431.699 413.877 432.027 413.493C432.355 413.109 432.519 412.593 432.519 411.945C432.519 411.297 432.355 410.785 432.027 410.409C431.699 410.025 431.255 409.833 430.695 409.833C430.143 409.833 429.703 410.025 429.375 410.409C429.047 410.785 428.883 411.297 428.883 411.945C428.883 412.593 429.047 413.109 429.375 413.493C429.703 413.877 430.143 414.069 430.695 414.069ZM435.171 407.709V406.617H436.371V407.709H435.171ZM435.291 414.993V409.161H436.263V414.993H435.291ZM438.08 414.993V409.161H439.028V410.157C439.22 409.789 439.492 409.513 439.844 409.329C440.196 409.145 440.592 409.053 441.032 409.053C442.416 409.053 443.108 409.821 443.108 411.357V414.993H442.136V411.417C442.136 410.873 442.028 410.477 441.812 410.229C441.604 409.973 441.268 409.845 440.804 409.845C440.268 409.845 439.84 410.013 439.52 410.349C439.208 410.677 439.052 411.117 439.052 411.669V414.993H438.08ZM447.862 407.709V406.617H449.062V407.709H447.862ZM447.982 414.993V409.161H448.954V414.993H447.982ZM450.771 414.993V409.161H451.719V410.157C451.911 409.789 452.183 409.513 452.535 409.329C452.887 409.145 453.283 409.053 453.723 409.053C455.107 409.053 455.799 409.821 455.799 411.357V414.993H454.827V411.417C454.827 410.873 454.719 410.477 454.503 410.229C454.295 409.973 453.959 409.845 453.495 409.845C452.959 409.845 452.531 410.013 452.211 410.349C451.899 410.677 451.743 411.117 451.743 411.669V414.993H450.771ZM459.931 415.101C459.243 415.101 458.727 414.921 458.383 414.561C458.039 414.193 457.867 413.665 457.867 412.977V409.917H456.727V409.161H457.867V407.373H458.839V409.161H460.687V409.917H458.839V412.881C458.839 413.337 458.935 413.685 459.127 413.925C459.319 414.157 459.631 414.273 460.063 414.273C460.191 414.273 460.319 414.257 460.447 414.225C460.575 414.193 460.691 414.161 460.795 414.129L460.963 414.873C460.859 414.929 460.707 414.981 460.507 415.029C460.307 415.077 460.115 415.101 459.931 415.101ZM464.152 415.101C463.584 415.101 463.092 414.977 462.676 414.729C462.26 414.481 461.936 414.133 461.704 413.685C461.48 413.229 461.368 412.693 461.368 412.077C461.368 411.461 461.48 410.929 461.704 410.481C461.936 410.025 462.26 409.673 462.676 409.425C463.092 409.177 463.584 409.053 464.152 409.053C464.712 409.053 465.2 409.177 465.616 409.425C466.04 409.673 466.364 410.025 466.588 410.481C466.82 410.929 466.936 411.461 466.936 412.077C466.936 412.693 466.82 413.229 466.588 413.685C466.364 414.133 466.04 414.481 465.616 414.729C465.2 414.977 464.712 415.101 464.152 415.101ZM464.152 414.321C464.696 414.321 465.132 414.129 465.46 413.745C465.788 413.353 465.952 412.797 465.952 412.077C465.952 411.349 465.788 410.793 465.46 410.409C465.132 410.025 464.696 409.833 464.152 409.833C463.6 409.833 463.16 410.025 462.832 410.409C462.512 410.793 462.352 411.349 462.352 412.077C462.352 412.797 462.512 413.353 462.832 413.745C463.16 414.129 463.6 414.321 464.152 414.321ZM417.348 431.101C416.564 431.101 415.88 430.925 415.296 430.573C414.72 430.213 414.272 429.709 413.952 429.061C413.64 428.413 413.484 427.645 413.484 426.757C413.484 425.869 413.64 425.101 413.952 424.453C414.264 423.805 414.708 423.305 415.284 422.953C415.868 422.601 416.556 422.425 417.348 422.425C418.148 422.425 418.836 422.601 419.412 422.953C419.996 423.305 420.444 423.805 420.756 424.453C421.076 425.093 421.236 425.857 421.236 426.745C421.236 427.633 421.076 428.405 420.756 429.061C420.436 429.709 419.984 430.213 419.4 430.573C418.824 430.925 418.14 431.101 417.348 431.101ZM417.348 430.225C418.252 430.225 418.952 429.921 419.448 429.313C419.944 428.705 420.192 427.853 420.192 426.757C420.192 425.661 419.944 424.813 419.448 424.213C418.952 423.605 418.252 423.301 417.348 423.301C416.46 423.301 415.768 423.605 415.272 424.213C414.776 424.813 414.528 425.661 414.528 426.757C414.528 427.845 414.776 428.697 415.272 429.313C415.768 429.921 416.46 430.225 417.348 430.225ZM423.175 430.993V425.917H422.023V425.161H423.175V424.957C423.175 424.181 423.367 423.593 423.751 423.193C424.143 422.793 424.743 422.569 425.551 422.521L426.019 422.497L426.103 423.241L425.551 423.277C425.055 423.317 424.695 423.465 424.471 423.721C424.255 423.977 424.147 424.349 424.147 424.837V425.161H425.827V425.917H424.147V430.993H423.175ZM426.983 430.993V425.917H425.831V425.161H426.983V424.957C426.983 424.181 427.175 423.593 427.559 423.193C427.951 422.793 428.551 422.569 429.359 422.521L429.803 422.497L429.863 423.253L429.359 423.277C428.863 423.309 428.503 423.457 428.279 423.721C428.063 423.977 427.955 424.349 427.955 424.837V425.161H431.555V430.993H430.583V425.917H427.955V430.993H426.983ZM430.475 423.709V422.617H431.663V423.709H430.475ZM435.847 431.101C435.263 431.101 434.759 430.977 434.335 430.729C433.911 430.473 433.583 430.117 433.351 429.661C433.127 429.197 433.015 428.657 433.015 428.041C433.015 427.113 433.267 426.385 433.771 425.857C434.275 425.321 434.967 425.053 435.847 425.053C436.207 425.053 436.563 425.117 436.915 425.245C437.267 425.373 437.559 425.553 437.791 425.785L437.455 426.493C437.223 426.269 436.967 426.105 436.687 426.001C436.415 425.897 436.155 425.845 435.907 425.845C435.299 425.845 434.831 426.037 434.503 426.421C434.175 426.797 434.011 427.341 434.011 428.053C434.011 428.749 434.175 429.301 434.503 429.709C434.831 430.109 435.299 430.309 435.907 430.309C436.155 430.309 436.415 430.257 436.687 430.153C436.967 430.049 437.223 429.881 437.455 429.649L437.791 430.357C437.559 430.589 437.263 430.773 436.903 430.909C436.551 431.037 436.199 431.101 435.847 431.101ZM441.44 431.101C440.52 431.101 439.792 430.833 439.256 430.297C438.72 429.753 438.452 429.017 438.452 428.089C438.452 427.489 438.572 426.961 438.812 426.505C439.052 426.041 439.38 425.685 439.796 425.437C440.22 425.181 440.708 425.053 441.26 425.053C442.052 425.053 442.672 425.309 443.12 425.821C443.568 426.325 443.792 427.021 443.792 427.909V428.281H439.4C439.432 428.945 439.624 429.453 439.976 429.805C440.328 430.149 440.816 430.321 441.44 430.321C441.792 430.321 442.128 430.269 442.448 430.165C442.768 430.053 443.072 429.873 443.36 429.625L443.696 430.309C443.432 430.557 443.096 430.753 442.688 430.897C442.28 431.033 441.864 431.101 441.44 431.101ZM441.284 425.773C440.732 425.773 440.296 425.945 439.976 426.289C439.656 426.633 439.468 427.085 439.412 427.645H442.952C442.928 427.053 442.772 426.593 442.484 426.265C442.204 425.937 441.804 425.773 441.284 425.773ZM450.873 431.101C450.313 431.101 449.781 431.017 449.277 430.849C448.773 430.673 448.349 430.421 448.005 430.093L448.365 429.313C448.757 429.633 449.153 429.865 449.553 430.009C449.953 430.153 450.385 430.225 450.849 430.225C451.457 430.225 451.921 430.093 452.241 429.829C452.569 429.557 452.733 429.161 452.733 428.641C452.733 428.145 452.569 427.769 452.241 427.513C451.913 427.257 451.437 427.129 450.813 427.129H449.565V426.277H450.729C451.273 426.277 451.701 426.137 452.013 425.857C452.333 425.569 452.493 425.177 452.493 424.681C452.493 424.241 452.345 423.901 452.049 423.661C451.761 423.421 451.349 423.301 450.813 423.301C449.933 423.301 449.165 423.621 448.509 424.261L448.149 423.493C448.461 423.157 448.857 422.897 449.337 422.713C449.825 422.521 450.337 422.425 450.873 422.425C451.689 422.425 452.325 422.617 452.781 423.001C453.245 423.385 453.477 423.917 453.477 424.597C453.477 425.069 453.357 425.485 453.117 425.845C452.877 426.197 452.545 426.453 452.121 426.613C452.625 426.749 453.017 427.001 453.297 427.369C453.577 427.729 453.717 428.177 453.717 428.713C453.717 429.441 453.461 430.021 452.949 430.453C452.445 430.885 451.753 431.101 450.873 431.101ZM458.452 431.101C457.452 431.101 456.68 430.741 456.136 430.021C455.6 429.293 455.332 428.277 455.332 426.973C455.332 425.509 455.632 424.385 456.232 423.601C456.832 422.817 457.672 422.425 458.752 422.425C459.184 422.425 459.616 422.517 460.048 422.701C460.488 422.885 460.848 423.133 461.128 423.445L460.768 424.213C460.472 423.909 460.148 423.681 459.796 423.529C459.452 423.377 459.096 423.301 458.728 423.301C457.944 423.301 457.34 423.593 456.916 424.177C456.5 424.761 456.292 425.629 456.292 426.781V427.369C456.444 426.841 456.724 426.429 457.132 426.133C457.548 425.837 458.036 425.689 458.596 425.689C459.092 425.689 459.532 425.805 459.916 426.037C460.3 426.261 460.6 426.573 460.816 426.973C461.032 427.373 461.14 427.833 461.14 428.353C461.14 428.889 461.024 429.365 460.792 429.781C460.568 430.189 460.252 430.513 459.844 430.753C459.444 430.985 458.98 431.101 458.452 431.101ZM458.392 430.261C458.928 430.261 459.36 430.089 459.688 429.745C460.024 429.401 460.192 428.949 460.192 428.389C460.192 427.837 460.024 427.389 459.688 427.045C459.36 426.693 458.928 426.517 458.392 426.517C457.856 426.517 457.42 426.693 457.084 427.045C456.756 427.389 456.592 427.837 456.592 428.389C456.592 428.949 456.756 429.401 457.084 429.745C457.42 430.089 457.856 430.261 458.392 430.261ZM465.539 431.101C464.995 431.101 464.475 431.013 463.979 430.837C463.483 430.661 463.063 430.413 462.719 430.093L463.091 429.313C463.835 429.921 464.647 430.225 465.527 430.225C466.111 430.225 466.571 430.061 466.907 429.733C467.243 429.405 467.411 428.973 467.411 428.437C467.411 427.885 467.251 427.433 466.931 427.081C466.611 426.729 466.171 426.553 465.611 426.553C464.803 426.553 464.167 426.889 463.703 427.561H462.983V422.533H467.891V423.373H463.955V426.397C464.419 425.933 465.031 425.701 465.791 425.701C466.319 425.701 466.779 425.813 467.171 426.037C467.563 426.261 467.863 426.577 468.071 426.985C468.287 427.385 468.395 427.853 468.395 428.389C468.395 428.917 468.279 429.385 468.047 429.793C467.815 430.201 467.483 430.521 467.051 430.753C466.627 430.985 466.123 431.101 465.539 431.101Z" fill="#F5C304"/>
<circle cx="440.29" cy="357.95" r="38.0367" fill="#CBAA00" fill-opacity="0.15" stroke="#F5C304" stroke-width="0.5"/>
<path d="M429.711 338.807C430.835 338.807 431.949 339.028 432.988 339.458C434.027 339.889 434.971 340.52 435.767 341.315C436.562 342.11 437.193 343.054 437.623 344.093C438.053 345.132 438.275 346.246 438.275 347.371V355.935H429.711C427.439 355.935 425.261 355.032 423.655 353.426C422.049 351.82 421.147 349.642 421.147 347.371C421.147 345.099 422.049 342.921 423.655 341.315C425.261 339.709 427.439 338.807 429.711 338.807ZM429.711 359.965H438.275V368.529C438.275 370.223 437.773 371.879 436.832 373.287C435.891 374.695 434.553 375.793 432.988 376.441C431.423 377.09 429.701 377.259 428.04 376.929C426.379 376.598 424.853 375.783 423.655 374.585C422.457 373.387 421.642 371.861 421.311 370.2C420.981 368.539 421.15 366.817 421.799 365.252C422.447 363.687 423.544 362.349 424.953 361.408C426.361 360.467 428.017 359.965 429.711 359.965ZM450.869 338.807C453.141 338.807 455.319 339.709 456.925 341.315C458.531 342.921 459.433 345.099 459.433 347.371C459.433 349.642 458.531 351.82 456.925 353.426C455.319 355.032 453.141 355.935 450.869 355.935H442.305V347.371C442.305 345.099 443.207 342.921 444.813 341.315C446.42 339.709 448.598 338.807 450.869 338.807ZM442.305 359.965H450.869C452.563 359.965 454.219 360.467 455.627 361.408C457.036 362.349 458.133 363.687 458.781 365.252C459.43 366.817 459.599 368.539 459.269 370.2C458.938 371.861 458.123 373.387 456.925 374.585C455.727 375.783 454.201 376.598 452.54 376.929C450.879 377.259 449.157 377.09 447.592 376.441C446.027 375.793 444.689 374.695 443.748 373.287C442.807 371.879 442.305 370.223 442.305 368.529V359.965Z" fill="#F5C304"/>
<path d="M666.632 285.881L673.6 280.739L665.663 277.275L666.632 285.881ZM692.97 223.647L668.644 279.394L670.019 279.994L694.345 224.246L692.97 223.647Z" fill="url(#paint3_linear_366_10631)" fill-opacity="0.5"/>
<path d="M730.819 40.3954L727.439 45.0766L733.183 45.6627L730.819 40.3954ZM720.055 150.802L730.859 44.923L729.865 44.8214L719.061 150.7L720.055 150.802Z" fill="#3C92FF" fill-opacity="0.5"/>
<path d="M688.028 40.3954L686.253 45.8893L691.898 44.6796L688.028 40.3954ZM712.164 150.646L689.459 44.6908L688.482 44.9003L711.186 150.856L712.164 150.646Z" fill="#3C92FF" fill-opacity="0.5"/>
<path d="M655.371 73.0518L655.61 78.8204L660.486 75.7296L655.371 73.0518ZM706.467 152.736L658.203 76.585L657.358 77.1203L705.622 153.271L706.467 152.736Z" fill="#3C92FF" fill-opacity="0.5"/>
<g opacity="0.5">
<g filter="url(#filter1_d_366_10631)">
<circle cx="77.1044" cy="341.598" r="36.0345" fill="#FF5C00" fill-opacity="0.15"/>
<circle cx="77.1044" cy="341.598" r="34.7845" stroke="#FF3D00" stroke-width="2.5"/>
</g>
<path d="M61.3397 329.336V353.86C61.3397 355.786 62.8987 357.363 64.843 357.363H89.3666C91.2934 357.363 92.8699 355.786 92.8699 353.86V329.336C92.8699 327.409 91.2934 325.833 89.3666 325.833H64.843C62.8987 325.833 61.3397 327.409 61.3397 329.336ZM82.3598 336.343C82.3598 339.251 80.0126 341.598 77.1048 341.598C74.197 341.598 71.8498 339.251 71.8498 336.343C71.8498 333.435 74.197 331.088 77.1048 331.088C80.0126 331.088 82.3598 333.435 82.3598 336.343ZM66.5947 350.356C66.5947 346.853 73.6014 344.926 77.1048 344.926C80.6082 344.926 87.6149 346.853 87.6149 350.356V352.108H66.5947V350.356Z" fill="#FF3D00"/>
<path d="M28.6577 398.641L32.3897 390.181H33.2297L36.9617 398.641H35.9417L35.0057 396.481H30.6017L29.6777 398.641H28.6577ZM32.7977 391.333L30.9617 395.653H34.6577L32.8217 391.333H32.7977ZM38.0839 398.641V392.809H39.0319V393.805C39.2239 393.437 39.4959 393.161 39.8479 392.977C40.1999 392.793 40.5959 392.701 41.0359 392.701C42.4199 392.701 43.1119 393.469 43.1119 395.005V398.641H42.1399V395.065C42.1399 394.521 42.0319 394.125 41.8159 393.877C41.6079 393.621 41.2719 393.493 40.8079 393.493C40.2719 393.493 39.8439 393.661 39.5239 393.997C39.2119 394.325 39.0559 394.765 39.0559 395.317V398.641H38.0839ZM44.9042 398.641V392.809H45.8522V393.805C46.0442 393.437 46.3162 393.161 46.6682 392.977C47.0202 392.793 47.4162 392.701 47.8562 392.701C49.2402 392.701 49.9322 393.469 49.9322 395.005V398.641H48.9602V395.065C48.9602 394.521 48.8522 394.125 48.6362 393.877C48.4282 393.621 48.0922 393.493 47.6282 393.493C47.0922 393.493 46.6642 393.661 46.3442 393.997C46.0322 394.325 45.8762 394.765 45.8762 395.317V398.641H44.9042ZM53.5605 398.749C53.1605 398.749 52.8005 398.673 52.4805 398.521C52.1685 398.361 51.9205 398.145 51.7365 397.873C51.5525 397.601 51.4605 397.297 51.4605 396.961C51.4605 396.537 51.5685 396.201 51.7845 395.953C52.0085 395.705 52.3725 395.529 52.8765 395.425C53.3885 395.313 54.0845 395.257 54.9645 395.257H55.3485V394.885C55.3485 394.389 55.2445 394.033 55.0365 393.817C54.8365 393.593 54.5125 393.481 54.0645 393.481C53.7125 393.481 53.3725 393.533 53.0445 393.637C52.7165 393.733 52.3805 393.893 52.0365 394.117L51.7005 393.409C52.0045 393.193 52.3725 393.021 52.8045 392.893C53.2445 392.765 53.6645 392.701 54.0645 392.701C54.8165 392.701 55.3725 392.885 55.7325 393.253C56.1005 393.621 56.2845 394.193 56.2845 394.969V398.641H55.3725V397.633C55.2205 397.977 54.9845 398.249 54.6645 398.449C54.3525 398.649 53.9845 398.749 53.5605 398.749ZM53.7165 398.017C54.1965 398.017 54.5885 397.853 54.8925 397.525C55.1965 397.189 55.3485 396.765 55.3485 396.253V395.893H54.9765C54.3285 395.893 53.8165 395.925 53.4405 395.989C53.0725 396.045 52.8125 396.149 52.6605 396.301C52.5165 396.445 52.4445 396.645 52.4445 396.901C52.4445 397.229 52.5565 397.497 52.7805 397.705C53.0125 397.913 53.3245 398.017 53.7165 398.017ZM58.1118 398.641V392.809H59.0598V393.793C59.2358 393.441 59.4798 393.173 59.7918 392.989C60.1038 392.797 60.4678 392.701 60.8838 392.701C61.7958 392.701 62.3798 393.097 62.6358 393.889C62.8118 393.521 63.0718 393.233 63.4158 393.025C63.7598 392.809 64.1558 392.701 64.6038 392.701C65.8998 392.701 66.5478 393.469 66.5478 395.005V398.641H65.5758V395.053C65.5758 394.517 65.4798 394.125 65.2878 393.877C65.1038 393.621 64.7958 393.493 64.3638 393.493C63.8918 393.493 63.5158 393.661 63.2358 393.997C62.9558 394.333 62.8158 394.781 62.8158 395.341V398.641H61.8438V395.053C61.8438 394.517 61.7478 394.125 61.5558 393.877C61.3718 393.621 61.0638 393.493 60.6318 393.493C60.1518 393.493 59.7718 393.661 59.4918 393.997C59.2198 394.333 59.0838 394.781 59.0838 395.341V398.641H58.1118ZM70.2012 398.749C69.8012 398.749 69.4412 398.673 69.1212 398.521C68.8092 398.361 68.5612 398.145 68.3772 397.873C68.1932 397.601 68.1012 397.297 68.1012 396.961C68.1012 396.537 68.2092 396.201 68.4252 395.953C68.6492 395.705 69.0132 395.529 69.5172 395.425C70.0292 395.313 70.7252 395.257 71.6052 395.257H71.9892V394.885C71.9892 394.389 71.8852 394.033 71.6772 393.817C71.4772 393.593 71.1532 393.481 70.7052 393.481C70.3532 393.481 70.0132 393.533 69.6852 393.637C69.3572 393.733 69.0212 393.893 68.6772 394.117L68.3412 393.409C68.6452 393.193 69.0132 393.021 69.4452 392.893C69.8852 392.765 70.3052 392.701 70.7052 392.701C71.4572 392.701 72.0132 392.885 72.3732 393.253C72.7412 393.621 72.9252 394.193 72.9252 394.969V398.641H72.0132V397.633C71.8612 397.977 71.6252 398.249 71.3052 398.449C70.9932 398.649 70.6252 398.749 70.2012 398.749ZM70.3572 398.017C70.8372 398.017 71.2292 397.853 71.5332 397.525C71.8372 397.189 71.9892 396.765 71.9892 396.253V395.893H71.6172C70.9692 395.893 70.4572 395.925 70.0812 395.989C69.7132 396.045 69.4532 396.149 69.3012 396.301C69.1572 396.445 69.0852 396.645 69.0852 396.901C69.0852 397.229 69.1972 397.497 69.4212 397.705C69.6532 397.913 69.9652 398.017 70.3572 398.017ZM76.5164 398.749C75.9244 398.749 75.4764 398.577 75.1724 398.233C74.8764 397.881 74.7284 397.373 74.7284 396.709V390.181H75.7004V396.637C75.7004 397.493 76.0404 397.921 76.7204 397.921C76.9204 397.921 77.1004 397.897 77.2604 397.849L77.2364 398.665C76.9884 398.721 76.7484 398.749 76.5164 398.749ZM80.1152 398.749C79.7152 398.749 79.3552 398.673 79.0352 398.521C78.7232 398.361 78.4752 398.145 78.2912 397.873C78.1072 397.601 78.0152 397.297 78.0152 396.961C78.0152 396.537 78.1232 396.201 78.3392 395.953C78.5632 395.705 78.9272 395.529 79.4312 395.425C79.9432 395.313 80.6392 395.257 81.5192 395.257H81.9032V394.885C81.9032 394.389 81.7992 394.033 81.5912 393.817C81.3912 393.593 81.0672 393.481 80.6192 393.481C80.2672 393.481 79.9272 393.533 79.5992 393.637C79.2712 393.733 78.9352 393.893 78.5912 394.117L78.2552 393.409C78.5592 393.193 78.9272 393.021 79.3592 392.893C79.7992 392.765 80.2192 392.701 80.6192 392.701C81.3712 392.701 81.9272 392.885 82.2872 393.253C82.6552 393.621 82.8392 394.193 82.8392 394.969V398.641H81.9272V397.633C81.7752 397.977 81.5392 398.249 81.2192 398.449C80.9072 398.649 80.5392 398.749 80.1152 398.749ZM80.2712 398.017C80.7512 398.017 81.1432 397.853 81.4472 397.525C81.7512 397.189 81.9032 396.765 81.9032 396.253V395.893H81.5312C80.8832 395.893 80.3712 395.925 79.9952 395.989C79.6272 396.045 79.3672 396.149 79.2152 396.301C79.0712 396.445 78.9992 396.645 78.9992 396.901C78.9992 397.229 79.1112 397.497 79.3352 397.705C79.5672 397.913 79.8792 398.017 80.2712 398.017ZM84.5225 391.357V390.265H85.7225V391.357H84.5225ZM84.6425 398.641V392.809H85.6145V398.641H84.6425ZM90.6456 398.641V390.181H91.6296V394.021H91.6536L95.7576 390.181H97.0176L92.6016 394.297L97.2816 398.641H95.9856L91.6536 394.657H91.6296V398.641H90.6456ZM99.9604 398.749C98.5604 398.749 97.8604 397.977 97.8604 396.433V392.809H98.8324V396.421C98.8324 396.941 98.9364 397.325 99.1444 397.573C99.3604 397.821 99.6964 397.945 100.152 397.945C100.648 397.945 101.052 397.781 101.364 397.453C101.676 397.117 101.832 396.673 101.832 396.121V392.809H102.804V398.641H101.856V397.657C101.672 398.009 101.412 398.281 101.076 398.473C100.748 398.657 100.376 398.749 99.9604 398.749ZM104.647 398.641V392.809H105.595V393.793C105.771 393.441 106.015 393.173 106.327 392.989C106.639 392.797 107.003 392.701 107.419 392.701C108.331 392.701 108.915 393.097 109.171 393.889C109.347 393.521 109.607 393.233 109.951 393.025C110.295 392.809 110.691 392.701 111.139 392.701C112.435 392.701 113.083 393.469 113.083 395.005V398.641H112.111V395.053C112.111 394.517 112.015 394.125 111.823 393.877C111.639 393.621 111.331 393.493 110.899 393.493C110.427 393.493 110.051 393.661 109.771 393.997C109.491 394.333 109.351 394.781 109.351 395.341V398.641H108.379V395.053C108.379 394.517 108.283 394.125 108.091 393.877C107.907 393.621 107.599 393.493 107.167 393.493C106.687 393.493 106.307 393.661 106.027 393.997C105.755 394.333 105.619 394.781 105.619 395.341V398.641H104.647ZM116.736 398.749C116.336 398.749 115.976 398.673 115.656 398.521C115.344 398.361 115.096 398.145 114.912 397.873C114.728 397.601 114.636 397.297 114.636 396.961C114.636 396.537 114.744 396.201 114.96 395.953C115.184 395.705 115.548 395.529 116.052 395.425C116.564 395.313 117.26 395.257 118.14 395.257H118.524V394.885C118.524 394.389 118.42 394.033 118.212 393.817C118.012 393.593 117.688 393.481 117.24 393.481C116.888 393.481 116.548 393.533 116.22 393.637C115.892 393.733 115.556 393.893 115.212 394.117L114.876 393.409C115.18 393.193 115.548 393.021 115.98 392.893C116.42 392.765 116.84 392.701 117.24 392.701C117.992 392.701 118.548 392.885 118.908 393.253C119.276 393.621 119.46 394.193 119.46 394.969V398.641H118.548V397.633C118.396 397.977 118.16 398.249 117.84 398.449C117.528 398.649 117.16 398.749 116.736 398.749ZM116.892 398.017C117.372 398.017 117.764 397.853 118.068 397.525C118.372 397.189 118.524 396.765 118.524 396.253V395.893H118.152C117.504 395.893 116.992 395.925 116.616 395.989C116.248 396.045 115.988 396.149 115.836 396.301C115.692 396.445 115.62 396.645 115.62 396.901C115.62 397.229 115.732 397.497 115.956 397.705C116.188 397.913 116.5 398.017 116.892 398.017ZM121.264 398.641V392.809H122.212V393.853C122.524 393.149 123.164 392.761 124.132 392.689L124.48 392.653L124.552 393.493L123.94 393.565C123.388 393.613 122.968 393.789 122.68 394.093C122.392 394.389 122.248 394.797 122.248 395.317V398.641H121.264Z" fill="#FF3D00"/>
<circle cx="180.165" cy="247.594" r="7.88256" fill="#FF3D00" fill-opacity="0.25"/>
<circle cx="180.165" cy="247.594" r="7.63256" stroke="#4999FE" stroke-opacity="0.4" stroke-width="0.5"/>
<circle cx="283.764" cy="328.672" r="7.88256" fill="#CBAA00" fill-opacity="0.25"/>
<circle cx="283.764" cy="328.672" r="7.63256" stroke="#4999FE" stroke-opacity="0.4" stroke-width="0.5"/>
<circle cx="255.612" cy="263.359" r="7.88256" fill="#FF3D00" fill-opacity="0.25"/>
<circle cx="255.612" cy="263.359" r="7.63256" stroke="#4999FE" stroke-opacity="0.4" stroke-width="0.5"/>
<circle cx="230.839" cy="384.976" r="7.88256" fill="#FF3D00" fill-opacity="0.25"/>
<circle cx="230.839" cy="384.976" r="7.63256" stroke="#4999FE" stroke-opacity="0.4" stroke-width="0.5"/>
<circle cx="209.443" cy="305.024" r="17.7673" fill="#FF5C00" fill-opacity="0.15" stroke="#FF3D00" stroke-width="0.5"/>
<path d="M215.298 296.015H208.092L202.704 301.421L202.686 312.231C202.686 313.222 203.497 314.033 204.488 314.033H215.298C216.289 314.033 217.1 313.222 217.1 312.231V297.817C217.1 296.826 216.289 296.015 215.298 296.015ZM209.893 301.421H208.092V297.817H209.893V301.421ZM212.596 301.421H210.794V297.817H212.596V301.421ZM215.298 301.421H213.497V297.817H215.298V301.421Z" fill="#FF3D00"/>
<path d="M185.933 343.032C184.821 343.032 183.977 342.74 183.401 342.156C182.825 341.564 182.537 340.704 182.537 339.576V334.464H183.521V339.528C183.521 341.28 184.325 342.156 185.933 342.156C187.525 342.156 188.321 341.28 188.321 339.528V334.464H189.305V339.576C189.305 340.704 189.017 341.564 188.441 342.156C187.873 342.74 187.037 343.032 185.933 343.032ZM194.063 343.032C193.399 343.032 192.799 342.948 192.263 342.78C191.727 342.604 191.263 342.352 190.871 342.024L191.219 341.232C191.627 341.544 192.055 341.776 192.503 341.928C192.951 342.08 193.471 342.156 194.063 342.156C194.783 342.156 195.315 342.024 195.659 341.76C196.011 341.488 196.187 341.132 196.187 340.692C196.187 340.34 196.059 340.06 195.803 339.852C195.555 339.644 195.135 339.48 194.543 339.36L193.295 339.108C192.543 338.948 191.979 338.688 191.603 338.328C191.235 337.96 191.051 337.472 191.051 336.864C191.051 336.36 191.179 335.92 191.435 335.544C191.699 335.168 192.063 334.876 192.527 334.668C192.991 334.46 193.527 334.356 194.135 334.356C194.703 334.356 195.231 334.448 195.719 334.632C196.207 334.808 196.619 335.064 196.955 335.4L196.607 336.168C196.247 335.84 195.867 335.604 195.467 335.46C195.067 335.308 194.619 335.232 194.123 335.232C193.491 335.232 192.987 335.38 192.611 335.676C192.235 335.964 192.047 336.348 192.047 336.828C192.047 337.212 192.163 337.516 192.395 337.74C192.635 337.964 193.023 338.128 193.559 338.232L194.807 338.496C195.615 338.664 196.211 338.92 196.595 339.264C196.987 339.6 197.183 340.06 197.183 340.644C197.183 341.116 197.055 341.532 196.799 341.892C196.551 342.252 196.191 342.532 195.719 342.732C195.255 342.932 194.703 343.032 194.063 343.032ZM198.71 342.924V334.464H202.094C202.966 334.464 203.638 334.66 204.11 335.052C204.59 335.436 204.83 335.976 204.83 336.672C204.83 337.136 204.71 337.532 204.47 337.86C204.23 338.188 203.898 338.428 203.474 338.58C203.962 338.708 204.342 338.944 204.614 339.288C204.894 339.632 205.034 340.068 205.034 340.596C205.034 341.348 204.79 341.924 204.302 342.324C203.814 342.724 203.126 342.924 202.238 342.924H198.71ZM199.67 338.244H201.95C203.222 338.244 203.858 337.748 203.858 336.756C203.858 335.756 203.222 335.256 201.95 335.256H199.67V338.244ZM199.67 342.132H202.142C203.422 342.132 204.062 341.616 204.062 340.584C204.062 339.552 203.422 339.036 202.142 339.036H199.67V342.132ZM209.901 342.924V334.464H212.757C214.125 334.464 215.181 334.828 215.925 335.556C216.669 336.276 217.041 337.32 217.041 338.688C217.041 340.056 216.669 341.104 215.925 341.832C215.181 342.56 214.125 342.924 212.757 342.924H209.901ZM210.885 342.084H212.685C214.893 342.084 215.997 340.952 215.997 338.688C215.997 336.432 214.893 335.304 212.685 335.304H210.885V342.084ZM218.676 342.924V337.092H219.624V338.136C219.936 337.432 220.576 337.044 221.544 336.972L221.892 336.936L221.964 337.776L221.352 337.848C220.8 337.896 220.38 338.072 220.092 338.376C219.804 338.672 219.66 339.08 219.66 339.6V342.924H218.676ZM222.856 335.64V334.548H224.056V335.64H222.856ZM222.976 342.924V337.092H223.948V342.924H222.976ZM227.481 342.924L224.973 337.092H226.029L227.961 341.82L229.917 337.092H230.913L228.393 342.924H227.481ZM234.487 343.032C233.567 343.032 232.839 342.764 232.303 342.228C231.767 341.684 231.499 340.948 231.499 340.02C231.499 339.42 231.619 338.892 231.859 338.436C232.099 337.972 232.427 337.616 232.843 337.368C233.267 337.112 233.755 336.984 234.307 336.984C235.099 336.984 235.719 337.24 236.167 337.752C236.615 338.256 236.839 338.952 236.839 339.84V340.212H232.447C232.479 340.876 232.671 341.384 233.023 341.736C233.375 342.08 233.863 342.252 234.487 342.252C234.839 342.252 235.175 342.2 235.495 342.096C235.815 341.984 236.119 341.804 236.407 341.556L236.743 342.24C236.479 342.488 236.143 342.684 235.735 342.828C235.327 342.964 234.911 343.032 234.487 343.032ZM234.331 337.704C233.779 337.704 233.343 337.876 233.023 338.22C232.703 338.564 232.515 339.016 232.459 339.576H235.999C235.975 338.984 235.819 338.524 235.531 338.196C235.251 337.868 234.851 337.704 234.331 337.704Z" fill="#FF3D00"/>
<path d="M115 322L122.893 325.564L122.033 316.946L115 322ZM183.469 314.413L121.642 320.583L121.791 322.076L183.618 315.905L183.469 314.413Z" fill="url(#paint4_linear_366_10631)" fill-opacity="0.5"/>
<path d="M227.46 288.133L230.305 287.642L228.457 285.424L227.46 288.133ZM247.569 271.05L229.029 286.501L229.349 286.885L247.89 271.434L247.569 271.05Z" fill="url(#paint5_linear_366_10631)" fill-opacity="0.5"/>
<path d="M200.435 280.251L200.282 277.368L197.862 278.941L200.435 280.251ZM185.586 257.865L198.999 278.5L199.418 278.228L186.005 257.593L185.586 257.865Z" fill="url(#paint6_linear_366_10631)" fill-opacity="0.5"/>
<path d="M222.956 350.067L222.059 352.811L224.884 352.216L222.956 350.067ZM227.705 371.411L223.664 352.218L223.175 352.321L227.216 371.514L227.705 371.411Z" fill="url(#paint7_linear_366_10631)" fill-opacity="0.5"/>
<path d="M231.964 309.529L233.615 311.897L234.84 309.283L231.964 309.529ZM270.357 327.26L234.107 310.258L233.895 310.71L270.145 327.713L270.357 327.26Z" fill="url(#paint8_linear_366_10631)" fill-opacity="0.5"/>
</g>
</g>
<defs>
<filter id="filter0_d_366_10631" x="324.076" y="85.8342" width="113.06" height="113.061" filterUnits="userSpaceOnUse" color-interpolation-filters="sRGB">
<feFlood flood-opacity="0" result="BackgroundImageFix"/>
<feColorMatrix in="SourceAlpha" type="matrix" values="0 0 0 0 0 0 0 0 0 0 0 0 0 0 0 0 0 0 127 0" result="hardAlpha"/>
<feMorphology radius="5" operator="dilate" in="SourceAlpha" result="effect1_dropShadow_366_10631"/>
<feOffset dy="4"/>
<feGaussianBlur stdDeviation="10"/>
<feComposite in2="hardAlpha" operator="out"/>
<feColorMatrix type="matrix" values="0 0 0 0 0.721569 0 0 0 0 0.560784 0 0 0 0 0 0 0 0 0.2 0"/>
<feBlend mode="normal" in2="BackgroundImageFix" result="effect1_dropShadow_366_10631"/>
<feBlend mode="normal" in="SourceGraphic" in2="effect1_dropShadow_366_10631" result="shape"/>
</filter>
<filter id="filter1_d_366_10631" x="16.0699" y="280.563" width="122.069" height="122.069" filterUnits="userSpaceOnUse" color-interpolation-filters="sRGB">
<feFlood flood-opacity="0" result="BackgroundImageFix"/>
<feColorMatrix in="SourceAlpha" type="matrix" values="0 0 0 0 0 0 0 0 0 0 0 0 0 0 0 0 0 0 127 0" result="hardAlpha"/>
<feMorphology radius="10" operator="dilate" in="SourceAlpha" result="effect1_dropShadow_366_10631"/>
<feOffset/>
<feGaussianBlur stdDeviation="7.5"/>
<feColorMatrix type="matrix" values="0 0 0 0 1 0 0 0 0 0.36 0 0 0 0 0 0 0 0 0.15 0"/>
<feBlend mode="normal" in2="BackgroundImageFix" result="effect1_dropShadow_366_10631"/>
<feBlend mode="normal" in="SourceGraphic" in2="effect1_dropShadow_366_10631" result="shape"/>
</filter>
<linearGradient id="paint0_linear_366_10631" x1="88" y1="297" x2="137.374" y2="136.112" gradientUnits="userSpaceOnUse">
<stop stop-color="#FF5C00"/>
<stop offset="1" stop-color="#B88F00"/>
</linearGradient>
<linearGradient id="paint1_linear_366_10631" x1="693.659" y1="169.895" x2="421.147" y2="134.986" gradientUnits="userSpaceOnUse">
<stop stop-color="#1391FF"/>
<stop offset="1" stop-color="#B88F00" stop-opacity="0.5"/>
</linearGradient>
<linearGradient id="paint2_linear_366_10631" x1="525.871" y1="143.432" x2="589.368" y2="117.704" gradientUnits="userSpaceOnUse">
<stop stop-color="#242E58"/>
<stop offset="0.369435" stop-color="#5F6580"/>
<stop offset="1" stop-color="#C4C4C4"/>
</linearGradient>
<linearGradient id="paint3_linear_366_10631" x1="693.658" y1="223.947" x2="666.632" y2="285.881" gradientUnits="userSpaceOnUse">
<stop stop-color="#1391FF" stop-opacity="0.5"/>
<stop offset="1" stop-color="#B88F00" stop-opacity="0.5"/>
</linearGradient>
<linearGradient id="paint4_linear_366_10631" x1="122.469" y1="321.254" x2="183.543" y2="315.159" gradientUnits="userSpaceOnUse">
<stop stop-color="#FF5C00"/>
<stop offset="0.871547" stop-color="#006AA6" stop-opacity="0.94"/>
</linearGradient>
<linearGradient id="paint5_linear_366_10631" x1="229.669" y1="286.292" x2="247.73" y2="271.242" gradientUnits="userSpaceOnUse">
<stop stop-color="#FF5C00"/>
<stop offset="0.871547" stop-color="#006AA6" stop-opacity="0.94"/>
</linearGradient>
<linearGradient id="paint6_linear_366_10631" x1="198.839" y1="277.796" x2="185.796" y2="257.729" gradientUnits="userSpaceOnUse">
<stop stop-color="#FF5C00"/>
<stop offset="0.871547" stop-color="#006AA6" stop-opacity="0.94"/>
</linearGradient>
<linearGradient id="paint7_linear_366_10631" x1="223.447" y1="352.399" x2="227.461" y2="371.463" gradientUnits="userSpaceOnUse">
<stop stop-color="#FF5C00"/>
<stop offset="0.871547" stop-color="#006AA6" stop-opacity="0.94"/>
</linearGradient>
<linearGradient id="paint8_linear_366_10631" x1="368.949" y1="206.029" x2="273.629" y2="322.419" gradientUnits="userSpaceOnUse">
<stop stop-color="#CBAA00"/>
<stop offset="0.871547" stop-color="#006AA6" stop-opacity="0.94"/>
</linearGradient>
</defs>
</svg>
