<svg width="54" height="17" viewBox="0 0 54 17" fill="none" xmlns="http://www.w3.org/2000/svg">
<path d="M18.8634 16.1731L21.5642 0.32401H25.8842L23.1814 16.1731H18.8634ZM38.789 0.66567C37.9333 0.344574 36.5921 0 34.9173 0C30.6485 0 27.6418 2.14962 27.6161 5.23047C27.592 7.50785 29.7628 8.77839 31.4014 9.53644C33.083 10.3135 33.6482 10.8088 33.6401 11.5024C33.6293 12.5649 32.2973 13.05 31.0555 13.05C29.3265 13.05 28.4079 12.8098 26.9892 12.2183L26.4323 11.9664L25.8261 15.5144C26.8352 15.957 28.7009 16.3401 30.6384 16.36C35.1795 16.36 38.1275 14.2349 38.161 10.9449C38.1772 9.14183 37.0263 7.76993 34.5339 6.63864C33.0239 5.90545 32.0992 5.4162 32.109 4.67378C32.109 4.01499 32.8917 3.31054 34.5832 3.31054C35.9956 3.2886 37.0191 3.59666 37.8165 3.91775L38.2035 4.10065L38.789 0.66567ZM49.9059 0.323767H46.5678C45.5338 0.323767 44.7598 0.606001 44.3057 1.63811L37.8899 16.1627H42.4263C42.4263 16.1627 43.1678 14.2098 43.3356 13.781C43.8313 13.781 48.2382 13.7878 48.8682 13.7878C48.9974 14.3427 49.3938 16.1627 49.3938 16.1627H53.4024L49.9059 0.323281V0.323767ZM44.6096 10.5582C44.9669 9.64501 46.3308 6.12761 46.3308 6.12761C46.3054 6.16979 46.6855 5.20999 46.9036 4.61492L47.1955 5.98139C47.1955 5.98139 48.0227 9.76467 48.1956 10.5579H44.6096V10.5582ZM15.1961 0.323767L10.9667 11.1322L10.5161 8.93578C9.7287 6.40377 7.27563 3.66054 4.5332 2.28718L8.40052 16.1479L12.9712 16.1428L19.7724 0.323605L15.1961 0.323525" fill="white"/>
<path d="M7.02127 0.323242H0.0552164L0 0.653C5.41952 1.96491 9.00541 5.1353 10.4943 8.94513L8.97958 1.66179C8.71816 0.658181 7.9597 0.358622 7.02144 0.323646" fill="#F2AE14"/>
</svg>
